<svg width="424" height="160" viewBox="0 0 424 160" fill="none" xmlns="http://www.w3.org/2000/svg">
<mask id="path-1-inside-1_261_1401" fill="white">
<path d="M0 0H284V32H0V0Z"/>
</mask>
<path d="M0 0V-1H-1V0H0ZM0 1H284V-1H0V1ZM1 32V0H-1V32H1Z" fill="#3A3A3A" mask="url(#path-1-inside-1_261_1401)"/>
<path d="M18.16 20H16.576L15.664 17.488H10.624L9.712 20H8.128L12.304 8.8H13.984L18.16 20ZM13.136 10.576L11.136 16.096H15.152L13.136 10.576ZM20.7293 12V13.344C21.1933 12.352 22.0253 11.856 23.2253 11.856V13.312C22.5373 13.28 21.9613 13.456 21.4653 13.856C20.9693 14.256 20.7293 14.88 20.7293 15.76V20H19.3372V12H20.7293ZM29.1268 12V13.344H26.9988V17.68C26.9988 18.912 27.7028 18.816 29.1268 18.752V20C26.6948 20.32 25.6068 19.664 25.6068 17.68V13.344H24.0228V12H25.6068V10.176L26.9988 9.76V12H29.1268ZM38.4856 18.096L40.2456 12H41.7016L39.2216 20H37.7976L35.9256 14.08L34.0536 20H32.6296L30.1496 12H31.6056L33.3656 18.08L35.2536 12H36.5976L38.4856 18.096ZM49.8861 18.992C49.0701 19.808 48.0621 20.208 46.8941 20.208C45.7261 20.208 44.7181 19.808 43.9021 18.992C43.0861 18.176 42.6861 17.184 42.6861 16C42.6861 14.816 43.0861 13.824 43.9021 13.008C44.7181 12.192 45.7261 11.792 46.8941 11.792C48.0621 11.792 49.0701 12.192 49.8861 13.008C50.7021 13.824 51.1181 14.816 51.1181 16C51.1181 17.184 50.7021 18.176 49.8861 18.992ZM46.8941 18.848C47.6941 18.848 48.3661 18.576 48.9101 18.032C49.4541 17.488 49.7261 16.816 49.7261 16C49.7261 15.184 49.4541 14.512 48.9101 13.968C48.3661 13.424 47.6941 13.152 46.8941 13.152C46.1101 13.152 45.4381 13.424 44.8941 13.968C44.3501 14.512 44.0781 15.184 44.0781 16C44.0781 16.816 44.3501 17.488 44.8941 18.032C45.4381 18.576 46.1101 18.848 46.8941 18.848ZM54.1511 12V13.344C54.6151 12.352 55.4471 11.856 56.6471 11.856V13.312C55.9591 13.28 55.3831 13.456 54.8871 13.856C54.3911 14.256 54.1511 14.88 54.1511 15.76V20H52.7591V12H54.1511ZM60.8251 15.872L64.7771 20H63.0491L59.4011 16.208V20H58.0091V8.8H59.4011V15.536L62.8571 12H64.6491L60.8251 15.872ZM74.4876 11.792C75.6076 11.792 76.5676 12.208 77.3516 13.024C78.1356 13.84 78.5356 14.832 78.5356 16C78.5356 17.168 78.1356 18.176 77.3516 18.992C76.5676 19.808 75.6076 20.208 74.4876 20.208C73.1596 20.208 72.1516 19.68 71.4636 18.624V23.2H70.0716V12H71.4636V13.376C72.1516 12.32 73.1596 11.792 74.4876 11.792ZM74.3116 18.864C75.1116 18.864 75.7836 18.592 76.3276 18.048C76.8716 17.488 77.1436 16.816 77.1436 16C77.1436 15.184 76.8716 14.512 76.3276 13.968C75.7836 13.408 75.1116 13.136 74.3116 13.136C73.4956 13.136 72.8236 13.408 72.2796 13.968C71.7356 14.512 71.4636 15.184 71.4636 16C71.4636 16.816 71.7356 17.488 72.2796 18.048C72.8236 18.592 73.4956 18.864 74.3116 18.864ZM84.1806 11.792C86.0526 11.792 87.2846 13.056 87.2846 15.088V20H85.8926V15.168C85.8926 13.872 85.1406 13.12 83.9086 13.12C82.5166 13.12 81.5886 13.968 81.5886 15.76V20H80.1966V8.8H81.5886V13.152C82.1486 12.24 83.0126 11.792 84.1806 11.792ZM89.9319 11.008C89.4039 11.008 88.9879 10.592 88.9879 10.08C88.9879 9.568 89.4039 9.136 89.9319 9.136C90.4439 9.136 90.8599 9.568 90.8599 10.08C90.8599 10.592 90.4439 11.008 89.9319 11.008ZM90.6199 20H89.2279V12H90.6199V20ZM97.5115 10.944L96.5355 9.648L95.5595 10.944H94.0715L95.7675 8.784H97.3035L98.9995 10.944H97.5115ZM100.424 16.64H93.7195C93.9915 18.064 95.0955 18.896 96.6155 18.896C97.6715 18.896 98.4395 18.512 98.9195 17.728L100.104 18.4C99.3195 19.6 98.1515 20.208 96.5835 20.208C95.3195 20.208 94.2795 19.808 93.4795 19.024C92.6955 18.224 92.2955 17.216 92.2955 16C92.2955 14.8 92.6795 13.792 93.4635 12.992C94.2475 12.192 95.2555 11.792 96.4875 11.792C97.6555 11.792 98.6155 12.208 99.3515 13.04C100.104 13.856 100.472 14.848 100.472 16.016C100.472 16.224 100.456 16.432 100.424 16.64ZM96.4875 13.104C94.9995 13.104 93.9595 14.016 93.7195 15.424H99.0635C98.8235 13.904 97.7675 13.104 96.4875 13.104ZM106.056 11.792C107.928 11.792 109.16 13.056 109.16 15.088V20H107.768V15.168C107.768 13.872 107.016 13.12 105.784 13.12C104.392 13.12 103.464 13.968 103.464 15.76V20H102.072V12H103.464V13.152C104.024 12.24 104.888 11.792 106.056 11.792ZM119.519 11.792C120.639 11.792 121.599 12.208 122.383 13.024C123.167 13.84 123.567 14.832 123.567 16C123.567 17.168 123.167 18.176 122.383 18.992C121.599 19.808 120.639 20.208 119.519 20.208C118.191 20.208 117.183 19.68 116.495 18.624V20H115.103V8.8H116.495V13.376C117.183 12.32 118.191 11.792 119.519 11.792ZM119.343 18.864C120.143 18.864 120.815 18.592 121.359 18.048C121.903 17.488 122.175 16.816 122.175 16C122.175 15.184 121.903 14.512 121.359 13.968C120.815 13.408 120.143 13.136 119.343 13.136C118.527 13.136 117.855 13.408 117.311 13.968C116.767 14.512 116.495 15.184 116.495 16C116.495 16.816 116.767 17.488 117.311 18.048C117.855 18.592 118.527 18.864 119.343 18.864ZM130.444 10.96H129.468C129.468 10.256 129.484 10.096 129.788 9.856C129.788 9.856 130.028 9.712 130.044 9.696C130.14 9.648 130.348 9.552 130.348 9.296C130.348 9.136 130.22 9.024 129.948 9.024C129.66 9.024 129.34 9.136 129.212 9.52L128.316 9.136C128.62 8.384 129.244 8.08 129.948 8.08C130.7 8.08 131.324 8.464 131.324 9.28C131.324 9.888 131.036 10.24 130.732 10.4C130.524 10.496 130.396 10.592 130.444 10.96ZM131.852 13.376V12H133.244V20H131.852V18.624C131.164 19.68 130.156 20.208 128.828 20.208C127.708 20.208 126.748 19.808 125.964 18.992C125.18 18.176 124.78 17.168 124.78 16C124.78 14.832 125.18 13.84 125.964 13.024C126.748 12.208 127.708 11.792 128.828 11.792C130.156 11.792 131.164 12.32 131.852 13.376ZM129.004 18.864C129.82 18.864 130.492 18.592 131.036 18.048C131.58 17.488 131.852 16.816 131.852 16C131.852 15.184 131.58 14.512 131.036 13.968C130.492 13.408 129.82 13.136 129.004 13.136C128.204 13.136 127.532 13.408 126.988 13.968C126.444 14.512 126.172 15.184 126.172 16C126.172 16.816 126.444 17.488 126.988 18.048C127.532 18.592 128.204 18.864 129.004 18.864ZM139.337 11.792C141.209 11.792 142.441 13.056 142.441 15.088V20H141.049V15.168C141.049 13.872 140.297 13.12 139.065 13.12C137.673 13.12 136.745 13.968 136.745 15.76V20H135.353V12H136.745V13.152C137.305 12.24 138.169 11.792 139.337 11.792ZM153.136 20H151.456L147.456 8.8H149.056L152.304 18.144L155.536 8.8H157.152L153.136 20ZM159.026 11.008C158.498 11.008 158.082 10.592 158.082 10.08C158.082 9.568 158.498 9.136 159.026 9.136C159.538 9.136 159.954 9.568 159.954 10.08C159.954 10.592 159.538 11.008 159.026 11.008ZM159.714 20H158.322V12H159.714V20ZM166.525 10.944L165.629 9.728L164.717 10.944H163.325L164.909 8.928H166.333L167.917 10.944H166.525ZM169.517 16.64H162.813C163.085 18.064 164.189 18.896 165.709 18.896C166.765 18.896 167.533 18.512 168.013 17.728L169.197 18.4C168.413 19.6 167.245 20.208 165.677 20.208C164.413 20.208 163.373 19.808 162.573 19.024C161.789 18.224 161.389 17.216 161.389 16C161.389 14.8 161.773 13.792 162.557 12.992C163.341 12.192 164.349 11.792 165.581 11.792C166.749 11.792 167.709 12.208 168.445 13.04C169.197 13.856 169.565 14.848 169.565 16.016C169.565 16.224 169.549 16.432 169.517 16.64ZM165.581 13.104C164.093 13.104 163.053 14.016 162.813 15.424H168.157C167.917 13.904 166.861 13.104 165.581 13.104ZM165.677 23.232C165.149 23.232 164.733 22.816 164.733 22.304C164.733 21.792 165.149 21.36 165.677 21.36C166.189 21.36 166.605 21.792 166.605 22.304C166.605 22.816 166.189 23.232 165.677 23.232ZM175.517 12V13.344H173.389V17.68C173.389 18.912 174.093 18.816 175.517 18.752V20C173.085 20.32 171.997 19.664 171.997 17.68V13.344H170.413V12H171.997V10.176L173.389 9.76V12H175.517ZM185.196 11.792C187.068 11.792 188.3 13.056 188.3 15.088V20H186.908V15.168C186.908 13.872 186.156 13.12 184.924 13.12C183.532 13.12 182.604 13.968 182.604 15.76V20H181.212V8.8H182.604V13.152C183.164 12.24 184.028 11.792 185.196 11.792ZM193.252 10.864H194.596L196.212 8.752H194.532L193.252 10.864ZM196.996 18.992C196.18 19.808 195.172 20.208 194.004 20.208C192.836 20.208 191.828 19.808 191.012 18.992C190.196 18.176 189.796 17.184 189.796 16C189.796 14.816 190.196 13.824 191.012 13.008C191.828 12.192 192.836 11.792 194.004 11.792C195.172 11.792 196.18 12.192 196.996 13.008C197.812 13.824 198.227 14.816 198.227 16C198.227 17.184 197.812 18.176 196.996 18.992ZM194.004 18.848C194.804 18.848 195.476 18.576 196.02 18.032C196.564 17.488 196.836 16.816 196.836 16C196.836 15.184 196.564 14.512 196.02 13.968C195.476 13.424 194.804 13.152 194.004 13.152C193.22 13.152 192.548 13.424 192.004 13.968C191.46 14.512 191.188 15.184 191.188 16C191.188 16.816 191.46 17.488 192.004 18.032C192.548 18.576 193.22 18.848 194.004 18.848ZM206.493 13.376V12H207.885V20H206.493V18.624C205.805 19.68 204.797 20.208 203.469 20.208C202.349 20.208 201.389 19.808 200.605 18.992C199.821 18.176 199.421 17.168 199.421 16C199.421 14.832 199.821 13.84 200.605 13.024C201.389 12.208 202.349 11.792 203.469 11.792C204.797 11.792 205.805 12.32 206.493 13.376ZM203.645 18.864C204.461 18.864 205.133 18.592 205.677 18.048C206.221 17.488 206.493 16.816 206.493 16C206.493 15.184 206.221 14.512 205.677 13.968C205.133 13.408 204.461 13.136 203.645 13.136C202.845 13.136 202.173 13.408 201.629 13.968C201.085 14.512 200.812 15.184 200.812 16C200.812 16.816 201.085 17.488 201.629 18.048C202.173 18.592 202.845 18.864 203.645 18.864Z" fill="#3A3A3A"/>
<mask id="path-4-inside-2_261_1401" fill="white">
<path d="M284 0H424V32H284V0Z"/>
</mask>
<path d="M284 0V-1H283V0H284ZM424 0H425V-1H424V0ZM284 1H424V-1H284V1ZM423 0V32H425V0H423ZM285 32V0H283V32H285Z" fill="#3A3A3A" mask="url(#path-4-inside-2_261_1401)"/>
<path d="M299.584 16.48H300.944V17.872H299.584V20H298.096V17.872H292.384V16.48L296.4 8.8H298L293.984 16.48H298.096V13.312H299.584V16.48ZM309.121 7.2L302.721 21.6H301.889L308.289 7.2H309.121ZM312.422 13.168H314.054C315.11 13.168 316.006 13.488 316.726 14.112C317.462 14.736 317.83 15.584 317.83 16.688C317.83 17.776 317.462 18.64 316.71 19.264C315.958 19.888 315.062 20.208 313.99 20.208C312.278 20.208 310.822 19.36 310.294 17.808L311.558 17.088C311.862 18.176 312.758 18.752 313.99 18.752C315.398 18.752 316.358 17.984 316.358 16.688C316.358 15.392 315.382 14.608 314.022 14.608H310.854L311.27 8.8H317.398V10.192H312.614L312.422 13.168Z" fill="#3A3A3A"/>
<mask id="path-7-inside-3_261_1401" fill="white">
<path d="M284 32H424V64H284V32Z"/>
</mask>
<path d="M284 32V31H283V32H284ZM424 32H425V31H424V32ZM284 33H424V31H284V33ZM423 32V64H425V32H423ZM285 64V32H283V64H285Z" fill="#3A3A3A" mask="url(#path-7-inside-3_261_1401)"/>
<path d="M292.224 41.824L295.168 40.8H296.448V52H294.976V42.4L292.592 43.104L292.224 41.824ZM299.639 52.176C299.063 52.176 298.599 51.712 298.599 51.136C298.599 50.56 299.063 50.096 299.639 50.096C300.231 50.096 300.679 50.56 300.679 51.136C300.679 51.712 300.231 52.176 299.639 52.176ZM305.898 44.672C307.018 44.672 307.946 45.024 308.666 45.728C309.386 46.416 309.754 47.328 309.754 48.432C309.754 49.536 309.386 50.448 308.666 51.152C307.946 51.856 307.018 52.208 305.898 52.208C304.762 52.208 303.834 51.856 303.114 51.152C302.394 50.448 302.042 49.536 302.042 48.432C302.042 47.568 302.266 46.816 302.714 46.192L306.314 40.8H308.01L305.37 44.704C305.61 44.688 305.786 44.672 305.898 44.672ZM305.898 46.096C304.474 46.096 303.514 47.024 303.514 48.432C303.514 49.84 304.49 50.784 305.898 50.784C307.306 50.784 308.282 49.84 308.282 48.432C308.282 47.024 307.306 46.096 305.898 46.096ZM318.043 39.2L311.643 53.6H310.811L317.211 39.2H318.043ZM321.344 45.168H322.976C324.032 45.168 324.928 45.488 325.648 46.112C326.384 46.736 326.752 47.584 326.752 48.688C326.752 49.776 326.384 50.64 325.632 51.264C324.88 51.888 323.984 52.208 322.912 52.208C321.2 52.208 319.744 51.36 319.216 49.808L320.48 49.088C320.784 50.176 321.68 50.752 322.912 50.752C324.32 50.752 325.28 49.984 325.28 48.688C325.28 47.392 324.304 46.608 322.944 46.608H319.776L320.192 40.8H326.32V42.192H321.536L321.344 45.168Z" fill="#3A3A3A"/>
<mask id="path-10-inside-4_261_1401" fill="white">
<path d="M284 64H424V96H284V64Z"/>
</mask>
<path d="M284 64V63H283V64H284ZM424 64H425V63H424V64ZM284 65H424V63H284V65ZM423 64V96H425V64H423ZM285 96V64H283V96H285Z" fill="#3A3A3A" mask="url(#path-10-inside-4_261_1401)"/>
<path d="M299.584 80.48H300.944V81.872H299.584V84H298.096V81.872H292.384V80.48L296.4 72.8H298L293.984 80.48H298.096V77.312H299.584V80.48ZM309.121 71.2L302.721 85.6H301.889L308.289 71.2H309.121ZM312.422 77.168H314.054C315.11 77.168 316.006 77.488 316.726 78.112C317.462 78.736 317.83 79.584 317.83 80.688C317.83 81.776 317.462 82.64 316.71 83.264C315.958 83.888 315.062 84.208 313.99 84.208C312.278 84.208 310.822 83.36 310.294 81.808L311.558 81.088C311.862 82.176 312.758 82.752 313.99 82.752C315.398 82.752 316.358 81.984 316.358 80.688C316.358 79.392 315.382 78.608 314.022 78.608H310.854L311.27 72.8H317.398V74.192H312.614L312.422 77.168Z" fill="#3A3A3A"/>
<mask id="path-13-inside-5_261_1401" fill="white">
<path d="M284 96H424V128H284V96Z"/>
</mask>
<path d="M284 96V95H283V96H284ZM424 96H425V95H424V96ZM284 97H424V95H284V97ZM423 96V128H425V96H423ZM285 128V96H283V128H285Z" fill="#3A3A3A" mask="url(#path-13-inside-5_261_1401)"/>
<path d="M299.584 112.48H300.944V113.872H299.584V116H298.096V113.872H292.384V112.48L296.4 104.8H298L293.984 112.48H298.096V109.312H299.584V112.48ZM309.121 103.2L302.721 117.6H301.889L308.289 103.2H309.121ZM312.422 109.168H314.054C315.11 109.168 316.006 109.488 316.726 110.112C317.462 110.736 317.83 111.584 317.83 112.688C317.83 113.776 317.462 114.64 316.71 115.264C315.958 115.888 315.062 116.208 313.99 116.208C312.278 116.208 310.822 115.36 310.294 113.808L311.558 113.088C311.862 114.176 312.758 114.752 313.99 114.752C315.398 114.752 316.358 113.984 316.358 112.688C316.358 111.392 315.382 110.608 314.022 110.608H310.854L311.27 104.8H317.398V106.192H312.614L312.422 109.168Z" fill="#3A3A3A"/>
<mask id="path-16-inside-6_261_1401" fill="white">
<path d="M284 128H424V160H284V128Z"/>
</mask>
<path d="M284 128V127H283V128H284ZM424 128H425V127H424V128ZM424 160V161H425V160H424ZM284 160H283V161H284V160ZM284 129H424V127H284V129ZM423 128V160H425V128H423ZM424 159H284V161H424V159ZM285 160V128H283V160H285Z" fill="#3A3A3A" mask="url(#path-16-inside-6_261_1401)"/>
<path d="M299.584 144.48H300.944V145.872H299.584V148H298.096V145.872H292.384V144.48L296.4 136.8H298L293.984 144.48H298.096V141.312H299.584V144.48ZM309.121 135.2L302.721 149.6H301.889L308.289 135.2H309.121ZM312.422 141.168H314.054C315.11 141.168 316.006 141.488 316.726 142.112C317.462 142.736 317.83 143.584 317.83 144.688C317.83 145.776 317.462 146.64 316.71 147.264C315.958 147.888 315.062 148.208 313.99 148.208C312.278 148.208 310.822 147.36 310.294 145.808L311.558 145.088C311.862 146.176 312.758 146.752 313.99 146.752C315.398 146.752 316.358 145.984 316.358 144.688C316.358 143.392 315.382 142.608 314.022 142.608H310.854L311.27 136.8H317.398V138.192H312.614L312.422 141.168Z" fill="#3A3A3A"/>
<mask id="path-19-inside-7_261_1401" fill="white">
<path d="M0 32H284V64H0V32Z"/>
</mask>
<path d="M0 32V31H-1V32H0ZM0 33H284V31H0V33ZM1 64V32H-1V64H1Z" fill="#3A3A3A" mask="url(#path-19-inside-7_261_1401)"/>
<path d="M9.6 40.8H13.968C15.488 40.8 16.752 41.344 17.76 42.432C18.768 43.504 19.28 44.832 19.28 46.4C19.28 47.968 18.768 49.296 17.76 50.384C16.752 51.456 15.488 52 13.968 52H9.6V47.184H8.592V45.904H9.6V40.8ZM11.088 50.592H13.968C15.104 50.592 16.048 50.192 16.768 49.392C17.488 48.592 17.856 47.6 17.856 46.4C17.856 45.2 17.488 44.208 16.768 43.408C16.048 42.608 15.104 42.208 13.968 42.208H11.088V45.904H13.904V47.184H11.088V50.592ZM25.5866 42.912L24.6906 41.696L23.7786 42.912H22.3866L23.9706 40.896H25.3946L26.9786 42.912H25.5866ZM21.7146 45.008C22.5306 44.192 23.5386 43.792 24.7066 43.792C25.8746 43.792 26.8826 44.192 27.6986 45.008C28.5146 45.824 28.9306 46.816 28.9306 48C28.9306 49.184 28.5146 50.176 27.6986 50.992C26.8826 51.808 25.8746 52.208 24.7066 52.208C23.5386 52.208 22.5306 51.808 21.7146 50.992C20.8986 50.176 20.4986 49.184 20.4986 48C20.4986 46.816 20.8986 45.824 21.7146 45.008ZM24.7066 50.848C25.5066 50.848 26.1786 50.576 26.7226 50.032C27.2666 49.488 27.5386 48.816 27.5386 48C27.5386 47.184 27.2666 46.512 26.7226 45.968C26.1786 45.424 25.5066 45.152 24.7066 45.152C23.9226 45.152 23.2506 45.424 22.7066 45.968C22.1626 46.512 21.8906 47.184 21.8906 48C21.8906 48.816 22.1626 49.488 22.7066 50.032C23.2506 50.576 23.9226 50.848 24.7066 50.848ZM24.7066 55.232C24.1786 55.232 23.7626 54.816 23.7626 54.304C23.7626 53.792 24.1786 53.36 24.7066 53.36C25.2186 53.36 25.6346 53.792 25.6346 54.304C25.6346 54.816 25.2186 55.232 24.7066 55.232ZM38.9876 43.792C40.1076 43.792 41.0676 44.208 41.8516 45.024C42.6356 45.84 43.0356 46.832 43.0356 48C43.0356 49.168 42.6356 50.176 41.8516 50.992C41.0676 51.808 40.1076 52.208 38.9876 52.208C37.6596 52.208 36.6516 51.68 35.9636 50.624V55.2H34.5716V44H35.9636V45.376C36.6516 44.32 37.6596 43.792 38.9876 43.792ZM38.8116 50.864C39.6116 50.864 40.2836 50.592 40.8276 50.048C41.3716 49.488 41.6436 48.816 41.6436 48C41.6436 47.184 41.3716 46.512 40.8276 45.968C40.2836 45.408 39.6116 45.136 38.8116 45.136C37.9956 45.136 37.3236 45.408 36.7796 45.968C36.2356 46.512 35.9636 47.184 35.9636 48C35.9636 48.816 36.2356 49.488 36.7796 50.048C37.3236 50.592 37.9956 50.864 38.8116 50.864ZM48.6806 43.792C50.5526 43.792 51.7846 45.056 51.7846 47.088V52H50.3926V47.168C50.3926 45.872 49.6406 45.12 48.4086 45.12C47.0166 45.12 46.0886 45.968 46.0886 47.76V52H44.6966V40.8H46.0886V45.152C46.6486 44.24 47.5126 43.792 48.6806 43.792ZM57.8079 40.8H59.4879L57.8719 42.912H56.5279L57.8079 40.8ZM60.7039 43.008V42.816H61.9359V43.008C61.9359 44.16 61.6159 44.816 60.6399 45.008V52H59.2479V50.848C58.6879 51.76 57.8239 52.208 56.6559 52.208C54.7839 52.208 53.5519 50.944 53.5519 48.912V44H54.9439V48.832C54.9439 50.128 55.6959 50.88 56.9279 50.88C58.3199 50.88 59.2479 50.032 59.2479 48.24V44H59.8879C60.5919 44 60.7039 43.712 60.7039 43.008ZM66.5191 52.208C65.3191 52.208 64.3111 51.808 63.5111 51.008C62.7111 50.192 62.3111 49.2 62.3111 48C62.3111 46.8 62.7111 45.808 63.5111 45.008C64.3111 44.192 65.3191 43.792 66.5191 43.792C68.1031 43.792 69.4311 44.608 70.0551 45.888L68.8871 46.56C68.4871 45.712 67.5911 45.152 66.5191 45.152C65.7191 45.152 65.0471 45.424 64.5031 45.968C63.9751 46.512 63.7031 47.184 63.7031 48C63.7031 48.8 63.9751 49.472 64.5031 50.016C65.0471 50.56 65.7191 50.832 66.5191 50.832C67.5911 50.832 68.4871 50.288 68.9351 49.44L70.1191 50.128C69.4311 51.392 68.0711 52.208 66.5191 52.208ZM79.8611 44V45.344H77.7331V49.68C77.7331 50.912 78.4371 50.816 79.8611 50.752V52C77.4291 52.32 76.3411 51.664 76.3411 49.68V45.344H74.7571V44H76.3411V42.176L77.7331 41.76V44H79.8611ZM85.428 55.232C84.9 55.232 84.484 54.816 84.484 54.304C84.484 53.792 84.9 53.36 85.428 53.36C85.94 53.36 86.356 53.792 86.356 54.304C86.356 54.816 85.94 55.232 85.428 55.232ZM88.18 45.376V44H89.572V52H88.18V50.624C87.492 51.68 86.484 52.208 85.156 52.208C84.036 52.208 83.076 51.808 82.292 50.992C81.508 50.176 81.108 49.168 81.108 48C81.108 46.832 81.508 45.84 82.292 45.024C83.076 44.208 84.036 43.792 85.156 43.792C86.484 43.792 87.492 44.32 88.18 45.376ZM85.332 50.864C86.148 50.864 86.82 50.592 87.364 50.048C87.908 49.488 88.18 48.816 88.18 48C88.18 47.184 87.908 46.512 87.364 45.968C86.82 45.408 86.148 45.136 85.332 45.136C84.532 45.136 83.86 45.408 83.316 45.968C82.772 46.512 82.5 47.184 82.5 48C82.5 48.816 82.772 49.488 83.316 50.048C83.86 50.592 84.532 50.864 85.332 50.864ZM96.097 43.792C97.217 43.792 98.177 44.208 98.961 45.024C99.745 45.84 100.145 46.832 100.145 48C100.145 49.168 99.745 50.176 98.961 50.992C98.177 51.808 97.217 52.208 96.097 52.208C94.769 52.208 93.761 51.68 93.073 50.624V55.2H91.681V44H93.073V45.376C93.761 44.32 94.769 43.792 96.097 43.792ZM95.921 50.864C96.721 50.864 97.393 50.592 97.937 50.048C98.481 49.488 98.753 48.816 98.753 48C98.753 47.184 98.481 46.512 97.937 45.968C97.393 45.408 96.721 45.136 95.921 45.136C95.105 45.136 94.433 45.408 93.889 45.968C93.345 46.512 93.073 47.184 93.073 48C93.073 48.816 93.345 49.488 93.889 50.048C94.433 50.592 95.105 50.864 95.921 50.864Z" fill="#3A3A3A"/>
<mask id="path-22-inside-8_261_1401" fill="white">
<path d="M0 64H284V96H0V64Z"/>
</mask>
<path d="M0 64V63H-1V64H0ZM0 65H284V63H0V65ZM1 96V64H-1V96H1Z" fill="#3A3A3A" mask="url(#path-22-inside-8_261_1401)"/>
<path d="M12.24 78.24L17.344 84H15.52L10.688 78.624V84H9.2V72.8H10.688V77.856L15.36 72.8H17.184L12.24 78.24ZM22.5088 75.792C24.3808 75.792 25.6128 77.056 25.6128 79.088V84H24.2208V79.168C24.2208 77.872 23.4688 77.12 22.2368 77.12C20.8448 77.12 19.9168 77.968 19.9168 79.76V84H18.5247V72.8H19.9168V77.152C20.4768 76.24 21.3408 75.792 22.5088 75.792ZM32.772 74.96H31.796C31.796 74.256 31.812 74.096 32.116 73.856C32.116 73.856 32.356 73.712 32.372 73.696C32.468 73.648 32.676 73.552 32.676 73.296C32.676 73.136 32.548 73.024 32.276 73.024C31.988 73.024 31.668 73.136 31.54 73.52L30.644 73.136C30.948 72.384 31.572 72.08 32.276 72.08C33.028 72.08 33.652 72.464 33.652 73.28C33.652 73.888 33.364 74.24 33.06 74.4C32.852 74.496 32.724 74.592 32.772 74.96ZM34.18 77.376V76H35.572V84H34.18V82.624C33.492 83.68 32.484 84.208 31.156 84.208C30.036 84.208 29.076 83.808 28.292 82.992C27.508 82.176 27.108 81.168 27.108 80C27.108 78.832 27.508 77.84 28.292 77.024C29.076 76.208 30.036 75.792 31.156 75.792C32.484 75.792 33.492 76.32 34.18 77.376ZM31.332 82.864C32.148 82.864 32.82 82.592 33.364 82.048C33.908 81.488 34.18 80.816 34.18 80C34.18 79.184 33.908 78.512 33.364 77.968C32.82 77.408 32.148 77.136 31.332 77.136C30.532 77.136 29.86 77.408 29.316 77.968C28.772 78.512 28.5 79.184 28.5 80C28.5 80.816 28.772 81.488 29.316 82.048C29.86 82.592 30.532 82.864 31.332 82.864ZM45.665 75.792C47.537 75.792 48.769 77.056 48.769 79.088V84H47.377V79.168C47.377 77.872 46.625 77.12 45.393 77.12C44.001 77.12 43.073 77.968 43.073 79.76V84H41.681V76H43.073V77.152C43.633 76.24 44.497 75.792 45.665 75.792ZM55.2883 75.088C53.8163 75.088 52.9043 74.288 52.9043 72.928H54.2003C54.2003 73.616 54.5683 73.968 55.2883 73.968C56.0083 73.968 56.3763 73.616 56.3763 72.928H57.6723C57.6723 74.288 56.7763 75.088 55.2883 75.088ZM57.3363 77.376V76H58.7283V84H57.3363V82.624C56.6483 83.68 55.6403 84.208 54.3123 84.208C53.1923 84.208 52.2323 83.808 51.4483 82.992C50.6643 82.176 50.2643 81.168 50.2643 80C50.2643 78.832 50.6643 77.84 51.4483 77.024C52.2323 76.208 53.1923 75.792 54.3123 75.792C55.6403 75.792 56.6483 76.32 57.3363 77.376ZM54.4883 82.864C55.3043 82.864 55.9763 82.592 56.5203 82.048C57.0643 81.488 57.3363 80.816 57.3363 80C57.3363 79.184 57.0643 78.512 56.5203 77.968C55.9763 77.408 55.3043 77.136 54.4883 77.136C53.6883 77.136 53.0163 77.408 52.4723 77.968C51.9283 78.512 51.6562 79.184 51.6562 80C51.6562 80.816 51.9283 81.488 52.4723 82.048C53.0163 82.592 53.6883 82.864 54.4883 82.864ZM64.8213 75.792C66.6933 75.792 67.9253 77.056 67.9253 79.088V84H66.5333V79.168C66.5333 77.872 65.7813 77.12 64.5493 77.12C63.1573 77.12 62.2293 77.968 62.2293 79.76V84H60.8372V76H62.2293V77.152C62.7893 76.24 63.6533 75.792 64.8213 75.792ZM76.5085 77.376V76H77.8845V83.664C77.8845 84.848 77.4845 85.76 76.6845 86.416C75.8845 87.072 74.9245 87.408 73.8045 87.408C72.0125 87.408 70.6685 86.72 70.0125 85.456L71.2285 84.768C71.6605 85.664 72.5405 86.112 73.8365 86.112C75.5005 86.112 76.5085 85.184 76.5085 83.664V82.528C75.8045 83.6 74.7965 84.128 73.5005 84.128C72.3645 84.128 71.3885 83.728 70.6045 82.912C69.8205 82.096 69.4205 81.12 69.4205 79.952C69.4205 78.784 69.8205 77.808 70.6045 77.008C71.3885 76.192 72.3645 75.792 73.5005 75.792C74.8125 75.792 75.8205 76.32 76.5085 77.376ZM76.5085 79.952C76.5085 79.152 76.2365 78.48 75.6925 77.936C75.1485 77.392 74.4765 77.12 73.6605 77.12C72.8445 77.12 72.1725 77.392 71.6285 77.936C71.0845 78.48 70.8125 79.152 70.8125 79.952C70.8125 80.768 71.0845 81.44 71.6285 81.984C72.1725 82.528 72.8445 82.8 73.6605 82.8C74.4765 82.8 75.1485 82.528 75.6925 81.984C76.2365 81.44 76.5085 80.768 76.5085 79.952ZM87.7535 84.208C86.5535 84.208 85.5455 83.808 84.7455 83.008C83.9455 82.192 83.5455 81.2 83.5455 80C83.5455 78.8 83.9455 77.808 84.7455 77.008C85.5455 76.192 86.5535 75.792 87.7535 75.792C89.3375 75.792 90.6655 76.608 91.2895 77.888L90.1215 78.56C89.7215 77.712 88.8255 77.152 87.7535 77.152C86.9535 77.152 86.2815 77.424 85.7375 77.968C85.2095 78.512 84.9375 79.184 84.9375 80C84.9375 80.8 85.2095 81.472 85.7375 82.016C86.2815 82.56 86.9535 82.832 87.7535 82.832C88.8255 82.832 89.7215 82.288 90.1695 81.44L91.3535 82.128C90.6655 83.392 89.3055 84.208 87.7535 84.208ZM96.7275 75.792C98.5995 75.792 99.8315 77.056 99.8315 79.088V84H98.4395V79.168C98.4395 77.872 97.6875 77.12 96.4555 77.12C95.0635 77.12 94.1355 77.968 94.1355 79.76V84H92.7435V72.8H94.1355V77.152C94.6955 76.24 95.5595 75.792 96.7275 75.792ZM108.527 82.992C107.711 83.808 106.703 84.208 105.535 84.208C104.367 84.208 103.359 83.808 102.543 82.992C101.727 82.176 101.327 81.184 101.327 80C101.327 78.816 101.727 77.824 102.543 77.008C103.359 76.192 104.367 75.792 105.535 75.792C106.015 75.792 106.479 75.856 106.911 76H107.455C108.159 76 108.271 75.712 108.271 75.008V74.816H109.503V75.008C109.503 76.048 109.231 76.688 108.463 76.944C108.479 76.976 108.495 76.992 108.527 77.008C109.343 77.824 109.759 78.816 109.759 80C109.759 81.184 109.343 82.176 108.527 82.992ZM105.535 82.848C106.335 82.848 107.007 82.576 107.551 82.032C108.095 81.488 108.367 80.816 108.367 80C108.367 79.184 108.095 78.512 107.551 77.968C107.007 77.424 106.335 77.152 105.535 77.152C104.751 77.152 104.079 77.424 103.535 77.968C102.991 78.512 102.719 79.184 102.719 80C102.719 80.816 102.991 81.488 103.535 82.032C104.079 82.576 104.751 82.848 105.535 82.848ZM112.104 75.008C111.576 75.008 111.16 74.592 111.16 74.08C111.16 73.568 111.576 73.136 112.104 73.136C112.616 73.136 113.032 73.568 113.032 74.08C113.032 74.592 112.616 75.008 112.104 75.008ZM112.792 84H111.4V76H112.792V84ZM120.307 84H118.915V72.32H120.307V84ZM126.303 87.232C125.775 87.232 125.359 86.816 125.359 86.304C125.359 85.792 125.775 85.36 126.303 85.36C126.815 85.36 127.231 85.792 127.231 86.304C127.231 86.816 126.815 87.232 126.303 87.232ZM129.055 77.376V76H130.447V84H129.055V82.624C128.367 83.68 127.359 84.208 126.031 84.208C124.911 84.208 123.951 83.808 123.167 82.992C122.383 82.176 121.983 81.168 121.983 80C121.983 78.832 122.383 77.84 123.167 77.024C123.951 76.208 124.911 75.792 126.031 75.792C127.359 75.792 128.367 76.32 129.055 77.376ZM126.207 82.864C127.023 82.864 127.695 82.592 128.239 82.048C128.783 81.488 129.055 80.816 129.055 80C129.055 79.184 128.783 78.512 128.239 77.968C127.695 77.408 127.023 77.136 126.207 77.136C125.407 77.136 124.735 77.408 124.191 77.968C123.647 78.512 123.375 79.184 123.375 80C123.375 80.816 123.647 81.488 124.191 82.048C124.735 82.592 125.407 82.864 126.207 82.864ZM133.26 75.008C132.732 75.008 132.316 74.592 132.316 74.08C132.316 73.568 132.732 73.136 133.26 73.136C133.772 73.136 134.188 73.568 134.188 74.08C134.188 74.592 133.772 75.008 133.26 75.008ZM133.948 84H132.556V76H133.948V84Z" fill="#3A3A3A"/>
<mask id="path-25-inside-9_261_1401" fill="white">
<path d="M0 96H284V128H0V96Z"/>
</mask>
<path d="M0 96V95H-1V96H0ZM0 97H284V95H0V97ZM1 128V96H-1V128H1Z" fill="#3A3A3A" mask="url(#path-25-inside-9_261_1401)"/>
<path d="M9.6 104.8H13.968C15.488 104.8 16.752 105.344 17.76 106.432C18.768 107.504 19.28 108.832 19.28 110.4C19.28 111.968 18.768 113.296 17.76 114.384C16.752 115.456 15.488 116 13.968 116H9.6V111.184H8.592V109.904H9.6V104.8ZM11.088 114.592H13.968C15.104 114.592 16.048 114.192 16.768 113.392C17.488 112.592 17.856 111.6 17.856 110.4C17.856 109.2 17.488 108.208 16.768 107.408C16.048 106.608 15.104 106.208 13.968 106.208H11.088V109.904H13.904V111.184H11.088V114.592ZM25.5866 106.912L24.6906 105.696L23.7786 106.912H22.3866L23.9706 104.896H25.3946L26.9786 106.912H25.5866ZM21.7146 109.008C22.5306 108.192 23.5386 107.792 24.7066 107.792C25.8746 107.792 26.8826 108.192 27.6986 109.008C28.5146 109.824 28.9306 110.816 28.9306 112C28.9306 113.184 28.5146 114.176 27.6986 114.992C26.8826 115.808 25.8746 116.208 24.7066 116.208C23.5386 116.208 22.5306 115.808 21.7146 114.992C20.8986 114.176 20.4986 113.184 20.4986 112C20.4986 110.816 20.8986 109.824 21.7146 109.008ZM24.7066 114.848C25.5066 114.848 26.1786 114.576 26.7226 114.032C27.2666 113.488 27.5386 112.816 27.5386 112C27.5386 111.184 27.2666 110.512 26.7226 109.968C26.1786 109.424 25.5066 109.152 24.7066 109.152C23.9226 109.152 23.2506 109.424 22.7066 109.968C22.1626 110.512 21.8906 111.184 21.8906 112C21.8906 112.816 22.1626 113.488 22.7066 114.032C23.2506 114.576 23.9226 114.848 24.7066 114.848ZM24.7066 119.232C24.1786 119.232 23.7626 118.816 23.7626 118.304C23.7626 117.792 24.1786 117.36 24.7066 117.36C25.2186 117.36 25.6346 117.792 25.6346 118.304C25.6346 118.816 25.2186 119.232 24.7066 119.232ZM38.9236 108V109.344H36.7956V113.68C36.7956 114.912 37.4996 114.816 38.9236 114.752V116C36.4916 116.32 35.4036 115.664 35.4036 113.68V109.344H33.8196V108H35.4036V106.176L36.7956 105.76V108H38.9236ZM47.5945 107.008V106.816H48.8265V107.008C48.8265 108.16 48.5065 108.816 47.5305 109.008V116H46.1385V114.848C45.5785 115.76 44.7145 116.208 43.5465 116.208C41.6745 116.208 40.4425 114.944 40.4425 112.912V108H41.8345V112.832C41.8345 114.128 42.5865 114.88 43.8185 114.88C45.2105 114.88 46.1385 114.032 46.1385 112.24V108H46.7785C47.4825 108 47.5945 107.712 47.5945 107.008ZM56.4018 114.992C55.5858 115.808 54.5778 116.208 53.4098 116.208C52.2418 116.208 51.2338 115.808 50.4178 114.992C49.6018 114.176 49.2018 113.184 49.2018 112C49.2018 110.816 49.6018 109.824 50.4178 109.008C51.2338 108.192 52.2418 107.792 53.4098 107.792C53.8898 107.792 54.3538 107.856 54.7858 108H55.3298C56.0338 108 56.1458 107.712 56.1458 107.008V106.816H57.3778V107.008C57.3778 108.048 57.1058 108.688 56.3378 108.944C56.3538 108.976 56.3698 108.992 56.4018 109.008C57.2178 109.824 57.6337 110.816 57.6337 112C57.6337 113.184 57.2178 114.176 56.4018 114.992ZM53.4098 114.848C54.2098 114.848 54.8818 114.576 55.4258 114.032C55.9698 113.488 56.2418 112.816 56.2418 112C56.2418 111.184 55.9698 110.512 55.4258 109.968C54.8818 109.424 54.2098 109.152 53.4098 109.152C52.6258 109.152 51.9538 109.424 51.4098 109.968C50.8658 110.512 50.5938 111.184 50.5938 112C50.5938 112.816 50.8658 113.488 51.4098 114.032C51.9538 114.576 52.6258 114.848 53.4098 114.848ZM63.2588 107.792C65.1308 107.792 66.3628 109.056 66.3628 111.088V116H64.9708V111.168C64.9708 109.872 64.2188 109.12 62.9868 109.12C61.5948 109.12 60.6668 109.968 60.6668 111.76V116H59.2747V108H60.6668V109.152C61.2268 108.24 62.0908 107.792 63.2588 107.792ZM74.946 109.376V108H76.322V115.664C76.322 116.848 75.922 117.76 75.122 118.416C74.322 119.072 73.362 119.408 72.242 119.408C70.45 119.408 69.106 118.72 68.45 117.456L69.666 116.768C70.098 117.664 70.978 118.112 72.274 118.112C73.938 118.112 74.946 117.184 74.946 115.664V114.528C74.242 115.6 73.234 116.128 71.938 116.128C70.802 116.128 69.826 115.728 69.042 114.912C68.258 114.096 67.858 113.12 67.858 111.952C67.858 110.784 68.258 109.808 69.042 109.008C69.826 108.192 70.802 107.792 71.938 107.792C73.25 107.792 74.258 108.32 74.946 109.376ZM74.946 111.952C74.946 111.152 74.674 110.48 74.13 109.936C73.586 109.392 72.914 109.12 72.098 109.12C71.282 109.12 70.61 109.392 70.066 109.936C69.522 110.48 69.25 111.152 69.25 111.952C69.25 112.768 69.522 113.44 70.066 113.984C70.61 114.528 71.282 114.8 72.098 114.8C72.914 114.8 73.586 114.528 74.13 113.984C74.674 113.44 74.946 112.768 74.946 111.952ZM86.783 108V109.344H84.655V113.68C84.655 114.912 85.359 114.816 86.783 114.752V116C84.351 116.32 83.263 115.664 83.263 113.68V109.344H81.679V108H83.263V106.176L84.655 105.76V108H86.783ZM93.2619 104.8H94.9419L93.3259 106.912H91.9819L93.2619 104.8ZM95.1019 109.376V108H96.4939V116H95.1019V114.624C94.4139 115.68 93.4059 116.208 92.0779 116.208C90.9579 116.208 89.9979 115.808 89.2139 114.992C88.4299 114.176 88.0299 113.168 88.0299 112C88.0299 110.832 88.4299 109.84 89.2139 109.024C89.9979 108.208 90.9579 107.792 92.0779 107.792C93.4059 107.792 94.4139 108.32 95.1019 109.376ZM92.2539 114.864C93.0699 114.864 93.7419 114.592 94.2859 114.048C94.8299 113.488 95.1019 112.816 95.1019 112C95.1019 111.184 94.8299 110.512 94.2859 109.968C93.7419 109.408 93.0699 109.136 92.2539 109.136C91.4539 109.136 90.7819 109.408 90.2379 109.968C89.6939 110.512 89.4219 111.184 89.4219 112C89.4219 112.816 89.6939 113.488 90.2379 114.048C90.7819 114.592 91.4539 114.864 92.2539 114.864ZM102.363 116.208C101.163 116.208 100.155 115.808 99.3549 115.008C98.5549 114.192 98.1549 113.2 98.1549 112C98.1549 110.8 98.5549 109.808 99.3549 109.008C100.155 108.192 101.163 107.792 102.363 107.792C103.947 107.792 105.275 108.608 105.899 109.888L104.731 110.56C104.331 109.712 103.435 109.152 102.363 109.152C101.563 109.152 100.891 109.424 100.347 109.968C99.8189 110.512 99.5469 111.184 99.5469 112C99.5469 112.8 99.8189 113.472 100.347 114.016C100.891 114.56 101.563 114.832 102.363 114.832C103.435 114.832 104.331 114.288 104.779 113.44L105.963 114.128C105.275 115.392 103.915 116.208 102.363 116.208ZM117.993 109.376V108H119.369V115.664C119.369 116.848 118.969 117.76 118.169 118.416C117.369 119.072 116.409 119.408 115.289 119.408C113.497 119.408 112.153 118.72 111.497 117.456L112.713 116.768C113.145 117.664 114.025 118.112 115.321 118.112C116.985 118.112 117.993 117.184 117.993 115.664V114.528C117.289 115.6 116.281 116.128 114.985 116.128C113.849 116.128 112.873 115.728 112.089 114.912C111.305 114.096 110.905 113.12 110.905 111.952C110.905 110.784 111.305 109.808 112.089 109.008C112.873 108.192 113.849 107.792 114.985 107.792C116.297 107.792 117.305 108.32 117.993 109.376ZM117.993 111.952C117.993 111.152 117.721 110.48 117.177 109.936C116.633 109.392 115.961 109.12 115.145 109.12C114.329 109.12 113.657 109.392 113.113 109.936C112.569 110.48 112.297 111.152 112.297 111.952C112.297 112.768 112.569 113.44 113.113 113.984C113.657 114.528 114.329 114.8 115.145 114.8C115.961 114.8 116.633 114.528 117.177 113.984C117.721 113.44 117.993 112.768 117.993 111.952ZM122.182 107.008C121.654 107.008 121.238 106.592 121.238 106.08C121.238 105.568 121.654 105.136 122.182 105.136C122.694 105.136 123.11 105.568 123.11 106.08C123.11 106.592 122.694 107.008 122.182 107.008ZM122.87 116H121.478V108H122.87V116ZM131.97 107.008V106.816H133.202V107.008C133.202 108.16 132.882 108.816 131.906 109.008V116H130.514V114.848C129.954 115.76 129.09 116.208 127.922 116.208C126.049 116.208 124.818 114.944 124.818 112.912V108H126.21V112.832C126.21 114.128 126.962 114.88 128.194 114.88C129.586 114.88 130.514 114.032 130.514 112.24V108H131.154C131.858 108 131.97 107.712 131.97 107.008ZM127.106 106.832H125.938C125.938 104.688 127.218 104.4 128.402 105.248C129.186 105.888 129.554 105.904 129.554 104.88H130.722C130.722 107.008 129.474 107.296 128.258 106.448C127.49 105.808 127.106 105.792 127.106 106.832ZM140.649 109.376V108H142.041V116H140.649V114.624C139.961 115.68 138.953 116.208 137.625 116.208C136.505 116.208 135.545 115.808 134.761 114.992C133.977 114.176 133.577 113.168 133.577 112C133.577 110.832 133.977 109.84 134.761 109.024C135.545 108.208 136.505 107.792 137.625 107.792C138.953 107.792 139.961 108.32 140.649 109.376ZM137.801 114.864C138.617 114.864 139.289 114.592 139.833 114.048C140.377 113.488 140.649 112.816 140.649 112C140.649 111.184 140.377 110.512 139.833 109.968C139.289 109.408 138.617 109.136 137.801 109.136C137.001 109.136 136.329 109.408 135.785 109.968C135.241 110.512 134.969 111.184 134.969 112C134.969 112.816 135.241 113.488 135.785 114.048C136.329 114.592 137.001 114.864 137.801 114.864ZM152.134 107.792C154.006 107.792 155.238 109.056 155.238 111.088V116H153.846V111.168C153.846 109.872 153.094 109.12 151.862 109.12C150.47 109.12 149.542 109.968 149.542 111.76V116H148.15V108H149.542V109.152C150.102 108.24 150.966 107.792 152.134 107.792ZM163.821 109.376V108H165.197V115.664C165.197 116.848 164.797 117.76 163.997 118.416C163.197 119.072 162.237 119.408 161.117 119.408C159.325 119.408 157.981 118.72 157.325 117.456L158.541 116.768C158.973 117.664 159.853 118.112 161.149 118.112C162.813 118.112 163.821 117.184 163.821 115.664V114.528C163.117 115.6 162.109 116.128 160.813 116.128C159.677 116.128 158.701 115.728 157.917 114.912C157.133 114.096 156.733 113.12 156.733 111.952C156.733 110.784 157.133 109.808 157.917 109.008C158.701 108.192 159.677 107.792 160.813 107.792C162.125 107.792 163.133 108.32 163.821 109.376ZM163.821 111.952C163.821 111.152 163.549 110.48 163.005 109.936C162.461 109.392 161.789 109.12 160.973 109.12C160.157 109.12 159.485 109.392 158.941 109.936C158.397 110.48 158.125 111.152 158.125 111.952C158.125 112.768 158.397 113.44 158.941 113.984C159.485 114.528 160.157 114.8 160.973 114.8C161.789 114.8 162.461 114.528 163.005 113.984C163.549 113.44 163.821 112.768 163.821 111.952ZM174.282 107.008V106.816H175.514V107.008C175.514 108.16 175.194 108.816 174.218 109.008V116H172.826V114.848C172.266 115.76 171.402 116.208 170.234 116.208C168.362 116.208 167.13 114.944 167.13 112.912V108H168.522V112.832C168.522 114.128 169.274 114.88 170.506 114.88C171.898 114.88 172.826 114.032 172.826 112.24V108H173.466C174.17 108 174.282 107.712 174.282 107.008ZM181.233 106.864H179.889L178.273 104.752H179.953L181.233 106.864ZM183.089 114.992C182.273 115.808 181.265 116.208 180.097 116.208C178.929 116.208 177.921 115.808 177.105 114.992C176.289 114.176 175.889 113.184 175.889 112C175.889 110.816 176.289 109.824 177.105 109.008C177.921 108.192 178.929 107.792 180.097 107.792C180.577 107.792 181.041 107.856 181.473 108H182.017C182.721 108 182.833 107.712 182.833 107.008V106.816H184.065V107.008C184.065 108.048 183.793 108.688 183.025 108.944C183.041 108.976 183.057 108.992 183.089 109.008C183.905 109.824 184.321 110.816 184.321 112C184.321 113.184 183.905 114.176 183.089 114.992ZM180.097 114.848C180.897 114.848 181.569 114.576 182.113 114.032C182.657 113.488 182.929 112.816 182.929 112C182.929 111.184 182.657 110.512 182.113 109.968C181.569 109.424 180.897 109.152 180.097 109.152C179.313 109.152 178.641 109.424 178.097 109.968C177.553 110.512 177.281 111.184 177.281 112C177.281 112.816 177.553 113.488 178.097 114.032C178.641 114.576 179.313 114.848 180.097 114.848ZM186.666 107.008C186.138 107.008 185.722 106.592 185.722 106.08C185.722 105.568 186.138 105.136 186.666 105.136C187.178 105.136 187.594 105.568 187.594 106.08C187.594 106.592 187.178 107.008 186.666 107.008ZM187.354 116H185.962V108H187.354V116ZM197.238 116.208C196.038 116.208 195.03 115.808 194.23 115.008C193.43 114.192 193.03 113.2 193.03 112C193.03 110.8 193.43 109.808 194.23 109.008C195.03 108.192 196.038 107.792 197.238 107.792C198.822 107.792 200.15 108.608 200.774 109.888L199.606 110.56C199.206 109.712 198.31 109.152 197.238 109.152C196.438 109.152 195.766 109.424 195.222 109.968C194.694 110.512 194.422 111.184 194.422 112C194.422 112.8 194.694 113.472 195.222 114.016C195.766 114.56 196.438 114.832 197.238 114.832C198.31 114.832 199.206 114.288 199.654 113.44L200.838 114.128C200.15 115.392 198.79 116.208 197.238 116.208ZM206.212 107.792C208.084 107.792 209.316 109.056 209.316 111.088V116H207.924V111.168C207.924 109.872 207.172 109.12 205.94 109.12C204.548 109.12 203.62 109.968 203.62 111.76V116H202.228V104.8H203.62V109.152C204.18 108.24 205.044 107.792 206.212 107.792ZM218.011 114.992C217.195 115.808 216.187 116.208 215.019 116.208C213.851 116.208 212.843 115.808 212.027 114.992C211.211 114.176 210.811 113.184 210.811 112C210.811 110.816 211.211 109.824 212.027 109.008C212.843 108.192 213.851 107.792 215.019 107.792C215.499 107.792 215.963 107.856 216.395 108H216.939C217.643 108 217.755 107.712 217.755 107.008V106.816H218.987V107.008C218.987 108.048 218.715 108.688 217.947 108.944C217.963 108.976 217.979 108.992 218.011 109.008C218.827 109.824 219.243 110.816 219.243 112C219.243 113.184 218.827 114.176 218.011 114.992ZM215.019 114.848C215.819 114.848 216.491 114.576 217.035 114.032C217.579 113.488 217.851 112.816 217.851 112C217.851 111.184 217.579 110.512 217.035 109.968C216.491 109.424 215.819 109.152 215.019 109.152C214.235 109.152 213.563 109.424 213.019 109.968C212.475 110.512 212.203 111.184 212.203 112C212.203 112.816 212.475 113.488 213.019 114.032C213.563 114.576 214.235 114.848 215.019 114.848ZM221.588 107.008C221.06 107.008 220.644 106.592 220.644 106.08C220.644 105.568 221.06 105.136 221.588 105.136C222.1 105.136 222.516 105.568 222.516 106.08C222.516 106.592 222.1 107.008 221.588 107.008ZM222.276 116H220.884V108H222.276V116Z" fill="#3A3A3A"/>
<mask id="path-28-inside-10_261_1401" fill="white">
<path d="M0 128H284V160H0V128Z"/>
</mask>
<path d="M0 128V127H-1V128H0ZM0 160H-1V161H0V160ZM0 129H284V127H0V129ZM284 159H0V161H284V159ZM1 160V128H-1V160H1Z" fill="#3A3A3A" mask="url(#path-28-inside-10_261_1401)"/>
<path d="M14.464 148.208C12.768 148.208 11.36 147.648 10.256 146.528C9.152 145.408 8.608 144.032 8.608 142.4C8.608 140.768 9.152 139.392 10.256 138.272C11.36 137.152 12.768 136.592 14.464 136.592C16.512 136.592 18.336 137.648 19.296 139.312L18 140.064C17.36 138.832 16 138.032 14.464 138.032C13.168 138.032 12.112 138.448 11.296 139.28C10.48 140.112 10.08 141.152 10.08 142.4C10.08 143.632 10.48 144.672 11.296 145.504C12.112 146.336 13.168 146.752 14.464 146.752C16 146.752 17.36 145.952 18 144.736L19.296 145.472C18.832 146.304 18.16 146.976 17.296 147.472C16.432 147.968 15.488 148.208 14.464 148.208ZM24.8681 139.792C26.7401 139.792 27.9721 141.056 27.9721 143.088V148H26.5801V143.168C26.5801 141.872 25.8281 141.12 24.5961 141.12C23.2041 141.12 22.2761 141.968 22.2761 143.76V148H20.8841V136.8H22.2761V141.152C22.8361 140.24 23.7001 139.792 24.8681 139.792ZM35.2914 138.96L34.3954 137.744L33.4834 138.96H32.0914L33.6754 136.944H35.0994L36.6834 138.96H35.2914ZM36.5394 141.376V140H37.9314V148H36.5394V146.624C35.8514 147.68 34.8434 148.208 33.5154 148.208C32.3954 148.208 31.4354 147.808 30.6514 146.992C29.8674 146.176 29.4674 145.168 29.4674 144C29.4674 142.832 29.8674 141.84 30.6514 141.024C31.4354 140.208 32.3954 139.792 33.5154 139.792C34.8434 139.792 35.8514 140.32 36.5394 141.376ZM33.6914 146.864C34.5074 146.864 35.1794 146.592 35.7234 146.048C36.2674 145.488 36.5394 144.816 36.5394 144C36.5394 143.184 36.2674 142.512 35.7234 141.968C35.1794 141.408 34.5074 141.136 33.6914 141.136C32.8914 141.136 32.2194 141.408 31.6754 141.968C31.1314 142.512 30.8594 143.184 30.8594 144C30.8594 144.816 31.1314 145.488 31.6754 146.048C32.2194 146.592 32.8914 146.864 33.6914 146.864ZM35.9954 137.488L37.1794 135.52H38.7634L37.2434 137.488H35.9954ZM44.3924 140V141.344H42.2644V145.68C42.2644 146.912 42.9684 146.816 44.3924 146.752V148C41.9604 148.32 40.8724 147.664 40.8724 145.68V141.344H39.2884V140H40.8724V138.176L42.2644 137.76V140H44.3924ZM51.4793 148H50.0872V136.32H51.4793V148ZM60.5789 139.008V138.816H61.8109V139.008C61.8109 140.16 61.4909 140.816 60.5149 141.008V148H59.1229V146.848C58.5629 147.76 57.6989 148.208 56.5309 148.208C54.6589 148.208 53.4269 146.944 53.4269 144.912V140H54.8189V144.832C54.8189 146.128 55.5709 146.88 56.8029 146.88C58.1949 146.88 59.1229 146.032 59.1229 144.24V140H59.7629C60.4669 140 60.5789 139.712 60.5789 139.008ZM66.3941 151.232C65.8661 151.232 65.4501 150.816 65.4501 150.304C65.4501 149.792 65.8661 149.36 66.3941 149.36C66.9061 149.36 67.3221 149.792 67.3221 150.304C67.3221 150.816 66.9061 151.232 66.3941 151.232ZM69.3861 146.992C68.5701 147.808 67.5621 148.208 66.3941 148.208C65.2261 148.208 64.2181 147.808 63.4021 146.992C62.5861 146.176 62.1861 145.184 62.1861 144C62.1861 142.816 62.5861 141.824 63.4021 141.008C64.2181 140.192 65.2261 139.792 66.3941 139.792C66.8741 139.792 67.3381 139.856 67.7701 140H68.3141C69.0181 140 69.1301 139.712 69.1301 139.008V138.816H70.3621V139.008C70.3621 140.048 70.0901 140.688 69.3221 140.944C69.3381 140.976 69.3541 140.992 69.3861 141.008C70.2021 141.824 70.6181 142.816 70.6181 144C70.6181 145.184 70.2021 146.176 69.3861 146.992ZM66.3941 146.848C67.1941 146.848 67.8661 146.576 68.4101 146.032C68.9541 145.488 69.2261 144.816 69.2261 144C69.2261 143.184 68.9541 142.512 68.4101 141.968C67.8661 141.424 67.1941 141.152 66.3941 141.152C65.6101 141.152 64.9381 141.424 64.3941 141.968C63.8501 142.512 63.5781 143.184 63.5781 144C63.5781 144.816 63.8501 145.488 64.3941 146.032C64.9381 146.576 65.6101 146.848 66.3941 146.848ZM76.2431 139.792C78.1151 139.792 79.3471 141.056 79.3471 143.088V148H77.9551V143.168C77.9551 141.872 77.2031 141.12 75.9711 141.12C74.5791 141.12 73.6511 141.968 73.6511 143.76V148H72.2591V140H73.6511V141.152C74.2111 140.24 75.0751 139.792 76.2431 139.792ZM87.9304 141.376V140H89.3064V147.664C89.3064 148.848 88.9064 149.76 88.1064 150.416C87.3064 151.072 86.3464 151.408 85.2264 151.408C83.4344 151.408 82.0904 150.72 81.4344 149.456L82.6504 148.768C83.0824 149.664 83.9624 150.112 85.2584 150.112C86.9224 150.112 87.9304 149.184 87.9304 147.664V146.528C87.2264 147.6 86.2184 148.128 84.9224 148.128C83.7864 148.128 82.8104 147.728 82.0264 146.912C81.2424 146.096 80.8424 145.12 80.8424 143.952C80.8424 142.784 81.2424 141.808 82.0264 141.008C82.8104 140.192 83.7864 139.792 84.9224 139.792C86.2344 139.792 87.2424 140.32 87.9304 141.376ZM87.9304 143.952C87.9304 143.152 87.6584 142.48 87.1144 141.936C86.5704 141.392 85.8984 141.12 85.0824 141.12C84.2664 141.12 83.5944 141.392 83.0504 141.936C82.5064 142.48 82.2344 143.152 82.2344 143.952C82.2344 144.768 82.5064 145.44 83.0504 145.984C83.5944 146.528 84.2664 146.8 85.0824 146.8C85.8984 146.8 86.5704 146.528 87.1144 145.984C87.6584 145.44 87.9304 144.768 87.9304 143.952ZM99.1754 148.208C97.9754 148.208 96.9674 147.808 96.1674 147.008C95.3674 146.192 94.9674 145.2 94.9674 144C94.9674 142.8 95.3674 141.808 96.1674 141.008C96.9674 140.192 97.9754 139.792 99.1754 139.792C100.759 139.792 102.087 140.608 102.711 141.888L101.543 142.56C101.143 141.712 100.247 141.152 99.1754 141.152C98.3754 141.152 97.7034 141.424 97.1594 141.968C96.6314 142.512 96.3594 143.184 96.3594 144C96.3594 144.8 96.6314 145.472 97.1594 146.016C97.7034 146.56 98.3754 146.832 99.1754 146.832C100.247 146.832 101.143 146.288 101.591 145.44L102.775 146.128C102.087 147.392 100.727 148.208 99.1754 148.208ZM110.917 146.992C110.101 147.808 109.093 148.208 107.925 148.208C106.757 148.208 105.749 147.808 104.933 146.992C104.117 146.176 103.717 145.184 103.717 144C103.717 142.816 104.117 141.824 104.933 141.008C105.749 140.192 106.757 139.792 107.925 139.792C109.093 139.792 110.101 140.192 110.917 141.008C111.733 141.824 112.149 142.816 112.149 144C112.149 145.184 111.733 146.176 110.917 146.992ZM107.925 146.848C108.725 146.848 109.397 146.576 109.941 146.032C110.485 145.488 110.757 144.816 110.757 144C110.757 143.184 110.485 142.512 109.941 141.968C109.397 141.424 108.725 141.152 107.925 141.152C107.141 141.152 106.469 141.424 105.925 141.968C105.381 142.512 105.109 143.184 105.109 144C105.109 144.816 105.381 145.488 105.925 146.032C106.469 146.576 107.141 146.848 107.925 146.848ZM122.43 139.792C124.222 139.792 125.438 141.04 125.438 143.024V148H124.046V143.072C124.046 141.84 123.358 141.12 122.286 141.12C121.086 141.12 120.318 141.904 120.318 143.552V148H118.926V143.072C118.926 141.84 118.27 141.12 117.23 141.12C116.062 141.12 115.182 141.936 115.182 143.552V148H113.79V140H115.182V141.072C115.726 140.224 116.526 139.792 117.566 139.792C118.638 139.792 119.422 140.24 119.918 141.152C120.478 140.24 121.31 139.792 122.43 139.792ZM131.785 139.792C132.905 139.792 133.865 140.208 134.649 141.024C135.433 141.84 135.833 142.832 135.833 144C135.833 145.168 135.433 146.176 134.649 146.992C133.865 147.808 132.905 148.208 131.785 148.208C130.457 148.208 129.449 147.68 128.761 146.624V151.2H127.368V140H128.761V141.376C129.449 140.32 130.457 139.792 131.785 139.792ZM131.609 146.864C132.409 146.864 133.081 146.592 133.625 146.048C134.169 145.488 134.441 144.816 134.441 144C134.441 143.184 134.169 142.512 133.625 141.968C133.081 141.408 132.409 141.136 131.609 141.136C130.793 141.136 130.121 141.408 129.577 141.968C129.033 142.512 128.761 143.184 128.761 144C128.761 144.816 129.033 145.488 129.577 146.048C130.121 146.592 130.793 146.864 131.609 146.864ZM144.246 146.992C143.43 147.808 142.422 148.208 141.254 148.208C140.086 148.208 139.078 147.808 138.262 146.992C137.446 146.176 137.046 145.184 137.046 144C137.046 142.816 137.446 141.824 138.262 141.008C139.078 140.192 140.086 139.792 141.254 139.792C142.422 139.792 143.43 140.192 144.246 141.008C145.062 141.824 145.477 142.816 145.477 144C145.477 145.184 145.062 146.176 144.246 146.992ZM141.254 146.848C142.054 146.848 142.726 146.576 143.27 146.032C143.814 145.488 144.086 144.816 144.086 144C144.086 143.184 143.814 142.512 143.27 141.968C142.726 141.424 142.054 141.152 141.254 141.152C140.47 141.152 139.798 141.424 139.254 141.968C138.71 142.512 138.438 143.184 138.438 144C138.438 144.816 138.71 145.488 139.254 146.032C139.798 146.576 140.47 146.848 141.254 146.848ZM151.103 139.792C152.975 139.792 154.207 141.056 154.207 143.088V148H152.815V143.168C152.815 141.872 152.063 141.12 150.831 141.12C149.439 141.12 148.511 141.968 148.511 143.76V148H147.118V140H148.511V141.152C149.071 140.24 149.935 139.792 151.103 139.792ZM163.83 144.64H157.126C157.398 146.064 158.502 146.896 160.022 146.896C161.078 146.896 161.846 146.512 162.326 145.728L163.51 146.4C162.726 147.6 161.558 148.208 159.99 148.208C158.726 148.208 157.686 147.808 156.886 147.024C156.102 146.224 155.702 145.216 155.702 144C155.702 142.8 156.086 141.792 156.87 140.992C157.654 140.192 158.662 139.792 159.894 139.792C161.062 139.792 162.022 140.208 162.758 141.04C163.51 141.856 163.878 142.848 163.878 144.016C163.878 144.224 163.862 144.432 163.83 144.64ZM159.894 141.104C158.406 141.104 157.366 142.016 157.126 143.424H162.47C162.23 141.904 161.174 141.104 159.894 141.104ZM169.462 139.792C171.334 139.792 172.566 141.056 172.566 143.088V148H171.174V143.168C171.174 141.872 170.422 141.12 169.19 141.12C167.798 141.12 166.87 141.968 166.87 143.76V148H165.478V140H166.87V141.152C167.43 140.24 168.294 139.792 169.462 139.792ZM178.861 140V141.344H176.733V145.68C176.733 146.912 177.437 146.816 178.861 146.752V148C176.429 148.32 175.341 147.664 175.341 145.68V141.344H173.757V140H175.341V138.176L176.733 137.76V140H178.861ZM189.308 148H187.628L183.628 136.8H185.228L188.476 146.144L191.708 136.8H193.324L189.308 148ZM195.198 139.008C194.67 139.008 194.254 138.592 194.254 138.08C194.254 137.568 194.67 137.136 195.198 137.136C195.71 137.136 196.126 137.568 196.126 138.08C196.126 138.592 195.71 139.008 195.198 139.008ZM195.886 148H194.493V140H195.886V148ZM202.697 138.944L201.801 137.728L200.889 138.944H199.497L201.081 136.928H202.505L204.089 138.944H202.697ZM205.689 144.64H198.985C199.257 146.064 200.361 146.896 201.881 146.896C202.937 146.896 203.705 146.512 204.185 145.728L205.369 146.4C204.585 147.6 203.417 148.208 201.849 148.208C200.585 148.208 199.545 147.808 198.745 147.024C197.961 146.224 197.561 145.216 197.561 144C197.561 142.8 197.945 141.792 198.729 140.992C199.513 140.192 200.521 139.792 201.753 139.792C202.921 139.792 203.881 140.208 204.617 141.04C205.369 141.856 205.737 142.848 205.737 144.016C205.737 144.224 205.721 144.432 205.689 144.64ZM201.753 141.104C200.265 141.104 199.225 142.016 198.985 143.424H204.329C204.089 141.904 203.033 141.104 201.753 141.104ZM201.849 151.232C201.321 151.232 200.905 150.816 200.905 150.304C200.905 149.792 201.321 149.36 201.849 149.36C202.361 149.36 202.777 149.792 202.777 150.304C202.777 150.816 202.361 151.232 201.849 151.232ZM211.689 140V141.344H209.561V145.68C209.561 146.912 210.265 146.816 211.689 146.752V148C209.257 148.32 208.169 147.664 208.169 145.68V141.344H206.585V140H208.169V138.176L209.561 137.76V140H211.689ZM221.368 139.792C223.24 139.792 224.472 141.056 224.472 143.088V148H223.08V143.168C223.08 141.872 222.328 141.12 221.096 141.12C219.704 141.12 218.776 141.968 218.776 143.76V148H217.384V136.8H218.776V141.152C219.336 140.24 220.2 139.792 221.368 139.792ZM229.423 138.864H230.767L232.383 136.752H230.703L229.423 138.864ZM233.167 146.992C232.351 147.808 231.343 148.208 230.175 148.208C229.007 148.208 227.999 147.808 227.183 146.992C226.367 146.176 225.967 145.184 225.967 144C225.967 142.816 226.367 141.824 227.183 141.008C227.999 140.192 229.007 139.792 230.175 139.792C231.343 139.792 232.351 140.192 233.167 141.008C233.983 141.824 234.399 142.816 234.399 144C234.399 145.184 233.983 146.176 233.167 146.992ZM230.175 146.848C230.975 146.848 231.647 146.576 232.191 146.032C232.735 145.488 233.007 144.816 233.007 144C233.007 143.184 232.735 142.512 232.191 141.968C231.647 141.424 230.975 141.152 230.175 141.152C229.391 141.152 228.719 141.424 228.175 141.968C227.631 142.512 227.359 143.184 227.359 144C227.359 144.816 227.631 145.488 228.175 146.032C228.719 146.576 229.391 146.848 230.175 146.848ZM242.664 141.376V140H244.056V148H242.664V146.624C241.976 147.68 240.968 148.208 239.64 148.208C238.52 148.208 237.56 147.808 236.776 146.992C235.992 146.176 235.592 145.168 235.592 144C235.592 142.832 235.992 141.84 236.776 141.024C237.56 140.208 238.52 139.792 239.64 139.792C240.968 139.792 241.976 140.32 242.664 141.376ZM239.816 146.864C240.632 146.864 241.304 146.592 241.848 146.048C242.392 145.488 242.664 144.816 242.664 144C242.664 143.184 242.392 142.512 241.848 141.968C241.304 141.408 240.632 141.136 239.816 141.136C239.016 141.136 238.344 141.408 237.8 141.968C237.256 142.512 236.984 143.184 236.984 144C236.984 144.816 237.256 145.488 237.8 146.048C238.344 146.592 239.016 146.864 239.816 146.864Z" fill="#3A3A3A"/>
</svg>
