<svg width="536" height="192" viewBox="0 0 536 192" fill="none" xmlns="http://www.w3.org/2000/svg">
<mask id="path-2-inside-1_526_16007" fill="white">
<path d="M0 0H200V32H0V0Z"/>
</mask>
<path d="M0 0V-1H-1V0H0ZM0 1H200V-1H0V1ZM1 32V0H-1V32H1Z" fill="#3A3A3A" mask="url(#path-2-inside-1_526_16007)"/>
<path d="M12.816 20.208C10.72 20.208 9.168 19.168 8.576 17.456L9.856 16.72C10.288 18.08 11.296 18.752 12.848 18.752C14.384 18.752 15.216 18.064 15.216 17.024C15.216 16.496 15.008 16.096 14.608 15.824C14.208 15.552 13.52 15.28 12.576 14.976L11.504 14.624C11.264 14.528 10.944 14.384 10.576 14.208C10.208 14.016 9.936 13.824 9.76 13.632C9.392 13.232 9.056 12.576 9.056 11.76C9.056 10.784 9.392 10.016 10.08 9.456C10.768 8.88 11.6 8.592 12.576 8.592C14.352 8.592 15.712 9.568 16.368 11.04L15.12 11.76C14.64 10.608 13.792 10.032 12.576 10.032C11.36 10.032 10.544 10.672 10.544 11.696C10.544 12.192 10.72 12.56 11.072 12.816C11.424 13.072 12.032 13.344 12.896 13.616L13.552 13.824C13.68 13.872 13.872 13.936 14.144 14.048C14.704 14.256 14.832 14.336 15.264 14.576C15.712 14.816 15.856 14.992 16.128 15.312C16.528 15.712 16.688 16.288 16.688 16.992C16.688 17.968 16.336 18.752 15.616 19.344C14.896 19.92 13.968 20.208 12.816 20.208ZM22.946 10.912L22.05 9.696L21.138 10.912H19.746L21.33 8.896H22.754L24.338 10.912H22.946ZM19.074 13.008C19.89 12.192 20.898 11.792 22.066 11.792C23.234 11.792 24.242 12.192 25.058 13.008C25.874 13.824 26.29 14.816 26.29 16C26.29 17.184 25.874 18.176 25.058 18.992C24.242 19.808 23.234 20.208 22.066 20.208C20.898 20.208 19.89 19.808 19.074 18.992C18.258 18.176 17.858 17.184 17.858 16C17.858 14.816 18.258 13.824 19.074 13.008ZM22.066 18.848C22.866 18.848 23.538 18.576 24.082 18.032C24.626 17.488 24.898 16.816 24.898 16C24.898 15.184 24.626 14.512 24.082 13.968C23.538 13.424 22.866 13.152 22.066 13.152C21.282 13.152 20.61 13.424 20.066 13.968C19.522 14.512 19.25 15.184 19.25 16C19.25 16.816 19.522 17.488 20.066 18.032C20.61 18.576 21.282 18.848 22.066 18.848ZM23.65 9.44L24.834 7.472H26.418L24.898 9.44H23.65ZM33.323 20H31.931V8.32H33.323V20ZM42.4226 11.008V10.816H43.6546V11.008C43.6546 12.16 43.3346 12.816 42.3586 13.008V20H40.9666V18.848C40.4066 19.76 39.5426 20.208 38.3746 20.208C36.5026 20.208 35.2706 18.944 35.2706 16.912V12H36.6626V16.832C36.6626 18.128 37.4146 18.88 38.6466 18.88C40.0386 18.88 40.9666 18.032 40.9666 16.24V12H41.6066C42.3106 12 42.4226 11.712 42.4226 11.008ZM48.2379 23.232C47.7099 23.232 47.2939 22.816 47.2939 22.304C47.2939 21.792 47.7099 21.36 48.2379 21.36C48.7499 21.36 49.1659 21.792 49.1659 22.304C49.1659 22.816 48.7499 23.232 48.2379 23.232ZM51.2299 18.992C50.4139 19.808 49.4059 20.208 48.2379 20.208C47.0699 20.208 46.0619 19.808 45.2459 18.992C44.4299 18.176 44.0299 17.184 44.0299 16C44.0299 14.816 44.4299 13.824 45.2459 13.008C46.0619 12.192 47.0699 11.792 48.2379 11.792C48.7179 11.792 49.1819 11.856 49.6139 12H50.1579C50.8619 12 50.9739 11.712 50.9739 11.008V10.816H52.2059V11.008C52.2059 12.048 51.9339 12.688 51.1659 12.944C51.1819 12.976 51.1979 12.992 51.2299 13.008C52.0459 13.824 52.4619 14.816 52.4619 16C52.4619 17.184 52.0459 18.176 51.2299 18.992ZM48.2379 18.848C49.0379 18.848 49.7099 18.576 50.2539 18.032C50.7979 17.488 51.0699 16.816 51.0699 16C51.0699 15.184 50.7979 14.512 50.2539 13.968C49.7099 13.424 49.0379 13.152 48.2379 13.152C47.4539 13.152 46.7819 13.424 46.2379 13.968C45.6939 14.512 45.4219 15.184 45.4219 16C45.4219 16.816 45.6939 17.488 46.2379 18.032C46.7819 18.576 47.4539 18.848 48.2379 18.848ZM58.0869 11.792C59.9589 11.792 61.1909 13.056 61.1909 15.088V20H59.7989V15.168C59.7989 13.872 59.0469 13.12 57.8149 13.12C56.4229 13.12 55.4949 13.968 55.4949 15.76V20H54.1029V12H55.4949V13.152C56.0549 12.24 56.9189 11.792 58.0869 11.792ZM69.7741 13.376V12H71.1501V19.664C71.1501 20.848 70.7501 21.76 69.9501 22.416C69.1501 23.072 68.1901 23.408 67.0701 23.408C65.2781 23.408 63.9341 22.72 63.2781 21.456L64.4941 20.768C64.9261 21.664 65.8061 22.112 67.1021 22.112C68.7661 22.112 69.7741 21.184 69.7741 19.664V18.528C69.0701 19.6 68.0621 20.128 66.7661 20.128C65.6301 20.128 64.6541 19.728 63.8701 18.912C63.0861 18.096 62.6861 17.12 62.6861 15.952C62.6861 14.784 63.0861 13.808 63.8701 13.008C64.6541 12.192 65.6301 11.792 66.7661 11.792C68.0781 11.792 69.0861 12.32 69.7741 13.376ZM69.7741 15.952C69.7741 15.152 69.5021 14.48 68.9581 13.936C68.4141 13.392 67.7421 13.12 66.9261 13.12C66.1101 13.12 65.4381 13.392 64.8941 13.936C64.3501 14.48 64.0781 15.152 64.0781 15.952C64.0781 16.768 64.3501 17.44 64.8941 17.984C65.4381 18.528 66.1101 18.8 66.9261 18.8C67.7421 18.8 68.4141 18.528 68.9581 17.984C69.5021 17.44 69.7741 16.768 69.7741 15.952ZM81.2431 11.792C83.1151 11.792 84.3471 13.056 84.3471 15.088V20H82.9551V15.168C82.9551 13.872 82.2031 13.12 80.9711 13.12C79.5791 13.12 78.6511 13.968 78.6511 15.76V20H77.2591V12H78.6511V13.152C79.2111 12.24 80.0751 11.792 81.2431 11.792ZM92.9304 13.376V12H94.3064V19.664C94.3064 20.848 93.9064 21.76 93.1064 22.416C92.3064 23.072 91.3464 23.408 90.2264 23.408C88.4344 23.408 87.0904 22.72 86.4344 21.456L87.6504 20.768C88.0824 21.664 88.9624 22.112 90.2584 22.112C91.9224 22.112 92.9304 21.184 92.9304 19.664V18.528C92.2264 19.6 91.2184 20.128 89.9224 20.128C88.7864 20.128 87.8104 19.728 87.0264 18.912C86.2424 18.096 85.8424 17.12 85.8424 15.952C85.8424 14.784 86.2424 13.808 87.0264 13.008C87.8104 12.192 88.7864 11.792 89.9224 11.792C91.2344 11.792 92.2424 12.32 92.9304 13.376ZM92.9304 15.952C92.9304 15.152 92.6584 14.48 92.1144 13.936C91.5704 13.392 90.8984 13.12 90.0824 13.12C89.2664 13.12 88.5944 13.392 88.0504 13.936C87.5064 14.48 87.2344 15.152 87.2344 15.952C87.2344 16.768 87.5064 17.44 88.0504 17.984C88.5944 18.528 89.2664 18.8 90.0824 18.8C90.8984 18.8 91.5704 18.528 92.1144 17.984C92.6584 17.44 92.9304 16.768 92.9304 15.952ZM103.391 11.008V10.816H104.623V11.008C104.623 12.16 104.303 12.816 103.327 13.008V20H101.935V18.848C101.375 19.76 100.511 20.208 99.3434 20.208C97.4714 20.208 96.2394 18.944 96.2394 16.912V12H97.6314V16.832C97.6314 18.128 98.3834 18.88 99.6154 18.88C101.007 18.88 101.935 18.032 101.935 16.24V12H102.575C103.279 12 103.391 11.712 103.391 11.008ZM110.343 10.864H108.999L107.383 8.752H109.063L110.343 10.864ZM112.199 18.992C111.383 19.808 110.375 20.208 109.207 20.208C108.039 20.208 107.031 19.808 106.215 18.992C105.399 18.176 104.999 17.184 104.999 16C104.999 14.816 105.399 13.824 106.215 13.008C107.031 12.192 108.039 11.792 109.207 11.792C109.687 11.792 110.151 11.856 110.583 12H111.127C111.831 12 111.943 11.712 111.943 11.008V10.816H113.175V11.008C113.175 12.048 112.903 12.688 112.135 12.944C112.151 12.976 112.167 12.992 112.199 13.008C113.015 13.824 113.431 14.816 113.431 16C113.431 17.184 113.015 18.176 112.199 18.992ZM109.207 18.848C110.007 18.848 110.679 18.576 111.223 18.032C111.767 17.488 112.039 16.816 112.039 16C112.039 15.184 111.767 14.512 111.223 13.968C110.679 13.424 110.007 13.152 109.207 13.152C108.423 13.152 107.751 13.424 107.207 13.968C106.663 14.512 106.391 15.184 106.391 16C106.391 16.816 106.663 17.488 107.207 18.032C107.751 18.576 108.423 18.848 109.207 18.848ZM115.776 11.008C115.248 11.008 114.832 10.592 114.832 10.08C114.832 9.568 115.248 9.136 115.776 9.136C116.288 9.136 116.704 9.568 116.704 10.08C116.704 10.592 116.288 11.008 115.776 11.008ZM116.464 20H115.072V12H116.464V20ZM126.347 20.208C125.147 20.208 124.139 19.808 123.339 19.008C122.539 18.192 122.139 17.2 122.139 16C122.139 14.8 122.539 13.808 123.339 13.008C124.139 12.192 125.147 11.792 126.347 11.792C127.931 11.792 129.259 12.608 129.883 13.888L128.715 14.56C128.315 13.712 127.419 13.152 126.347 13.152C125.547 13.152 124.875 13.424 124.331 13.968C123.803 14.512 123.531 15.184 123.531 16C123.531 16.8 123.803 17.472 124.331 18.016C124.875 18.56 125.547 18.832 126.347 18.832C127.419 18.832 128.315 18.288 128.763 17.44L129.947 18.128C129.259 19.392 127.899 20.208 126.347 20.208ZM135.321 11.792C137.193 11.792 138.425 13.056 138.425 15.088V20H137.033V15.168C137.033 13.872 136.281 13.12 135.049 13.12C133.657 13.12 132.729 13.968 132.729 15.76V20H131.337V8.8H132.729V13.152C133.289 12.24 134.153 11.792 135.321 11.792ZM147.121 18.992C146.305 19.808 145.297 20.208 144.129 20.208C142.961 20.208 141.953 19.808 141.137 18.992C140.321 18.176 139.921 17.184 139.921 16C139.921 14.816 140.321 13.824 141.137 13.008C141.953 12.192 142.961 11.792 144.129 11.792C144.609 11.792 145.073 11.856 145.505 12H146.049C146.753 12 146.865 11.712 146.865 11.008V10.816H148.097V11.008C148.097 12.048 147.825 12.688 147.057 12.944C147.073 12.976 147.089 12.992 147.121 13.008C147.937 13.824 148.352 14.816 148.352 16C148.352 17.184 147.937 18.176 147.121 18.992ZM144.129 18.848C144.929 18.848 145.601 18.576 146.145 18.032C146.689 17.488 146.961 16.816 146.961 16C146.961 15.184 146.689 14.512 146.145 13.968C145.601 13.424 144.929 13.152 144.129 13.152C143.345 13.152 142.673 13.424 142.129 13.968C141.585 14.512 141.312 15.184 141.312 16C141.312 16.816 141.585 17.488 142.129 18.032C142.673 18.576 143.345 18.848 144.129 18.848ZM150.698 11.008C150.17 11.008 149.754 10.592 149.754 10.08C149.754 9.568 150.17 9.136 150.698 9.136C151.21 9.136 151.626 9.568 151.626 10.08C151.626 10.592 151.21 11.008 150.698 11.008ZM151.386 20H149.993V12H151.386V20Z" fill="#3A3A3A"/>
<mask id="path-5-inside-2_526_16007" fill="white">
<path d="M200 0H536V32H200V0Z"/>
</mask>
<path d="M200 0V-1H199V0H200ZM536 0H537V-1H536V0ZM200 1H536V-1H200V1ZM535 0V32H537V0H535ZM201 32V0H199V32H201Z" fill="#3A3A3A" mask="url(#path-5-inside-2_526_16007)"/>
<path d="M215.808 20H208.576V18.784L212.528 14.752C213.584 13.696 214.112 12.784 214.112 12.032C214.112 10.768 213.232 10.032 212.128 10.032C211.072 10.032 210.304 10.528 209.824 11.536L208.576 10.8C209.28 9.344 210.592 8.592 212.112 8.592C213.056 8.592 213.872 8.896 214.56 9.52C215.248 10.144 215.6 10.976 215.6 12.016C215.6 13.152 214.928 14.384 213.6 15.712L210.736 18.56H215.808V20ZM223.478 15.76H217.638V14.416H223.478V15.76ZM227.36 13.168H228.992C230.048 13.168 230.944 13.488 231.664 14.112C232.4 14.736 232.768 15.584 232.768 16.688C232.768 17.776 232.4 18.64 231.648 19.264C230.896 19.888 230 20.208 228.928 20.208C227.216 20.208 225.76 19.36 225.232 17.808L226.496 17.088C226.8 18.176 227.696 18.752 228.928 18.752C230.336 18.752 231.296 17.984 231.296 16.688C231.296 15.392 230.32 14.608 228.96 14.608H225.792L226.208 8.8H232.336V10.192H227.552L227.36 13.168ZM242.399 11.792C244.271 11.792 245.503 13.056 245.503 15.088V20H244.111V15.168C244.111 13.872 243.359 13.12 242.127 13.12C240.735 13.12 239.807 13.968 239.807 15.76V20H238.415V12H239.807V13.152C240.367 12.24 241.231 11.792 242.399 11.792ZM254.087 13.376V12H255.463V19.664C255.463 20.848 255.063 21.76 254.263 22.416C253.463 23.072 252.503 23.408 251.383 23.408C249.591 23.408 248.247 22.72 247.591 21.456L248.807 20.768C249.239 21.664 250.119 22.112 251.415 22.112C253.079 22.112 254.087 21.184 254.087 19.664V18.528C253.383 19.6 252.375 20.128 251.079 20.128C249.943 20.128 248.967 19.728 248.183 18.912C247.399 18.096 246.999 17.12 246.999 15.952C246.999 14.784 247.399 13.808 248.183 13.008C248.967 12.192 249.943 11.792 251.079 11.792C252.391 11.792 253.399 12.32 254.087 13.376ZM254.087 15.952C254.087 15.152 253.815 14.48 253.271 13.936C252.727 13.392 252.055 13.12 251.239 13.12C250.423 13.12 249.751 13.392 249.207 13.936C248.663 14.48 248.391 15.152 248.391 15.952C248.391 16.768 248.663 17.44 249.207 17.984C249.751 18.528 250.423 18.8 251.239 18.8C252.055 18.8 252.727 18.528 253.271 17.984C253.815 17.44 254.087 16.768 254.087 15.952ZM264.548 11.008V10.816H265.78V11.008C265.78 12.16 265.46 12.816 264.484 13.008V20H263.092V18.848C262.532 19.76 261.668 20.208 260.5 20.208C258.628 20.208 257.396 18.944 257.396 16.912V12H258.788V16.832C258.788 18.128 259.54 18.88 260.772 18.88C262.164 18.88 263.092 18.032 263.092 16.24V12H263.732C264.436 12 264.548 11.712 264.548 11.008ZM271.499 10.864H270.155L268.539 8.752H270.219L271.499 10.864ZM273.355 18.992C272.539 19.808 271.531 20.208 270.363 20.208C269.195 20.208 268.187 19.808 267.371 18.992C266.555 18.176 266.155 17.184 266.155 16C266.155 14.816 266.555 13.824 267.371 13.008C268.187 12.192 269.195 11.792 270.363 11.792C270.843 11.792 271.307 11.856 271.739 12H272.283C272.987 12 273.099 11.712 273.099 11.008V10.816H274.331V11.008C274.331 12.048 274.059 12.688 273.291 12.944C273.307 12.976 273.323 12.992 273.355 13.008C274.171 13.824 274.587 14.816 274.587 16C274.587 17.184 274.171 18.176 273.355 18.992ZM270.363 18.848C271.163 18.848 271.835 18.576 272.379 18.032C272.923 17.488 273.195 16.816 273.195 16C273.195 15.184 272.923 14.512 272.379 13.968C271.835 13.424 271.163 13.152 270.363 13.152C269.579 13.152 268.907 13.424 268.363 13.968C267.819 14.512 267.547 15.184 267.547 16C267.547 16.816 267.819 17.488 268.363 18.032C268.907 18.576 269.579 18.848 270.363 18.848ZM276.932 11.008C276.404 11.008 275.988 10.592 275.988 10.08C275.988 9.568 276.404 9.136 276.932 9.136C277.444 9.136 277.86 9.568 277.86 10.08C277.86 10.592 277.444 11.008 276.932 11.008ZM277.62 20H276.228V12H277.62V20Z" fill="#3A3A3A"/>
<mask id="path-8-inside-3_526_16007" fill="white">
<path d="M200 32H536V64H200V32Z"/>
</mask>
<path d="M200 32V31H199V32H200ZM536 32H537V31H536V32ZM200 33H536V31H200V33ZM535 32V64H537V32H535ZM201 64V32H199V64H201Z" fill="#3A3A3A" mask="url(#path-8-inside-3_526_16007)"/>
<path d="M208.224 41.824L211.168 40.8H212.448V52H210.976V42.4L208.592 43.104L208.224 41.824ZM216.391 45.168H218.023C219.079 45.168 219.975 45.488 220.695 46.112C221.431 46.736 221.799 47.584 221.799 48.688C221.799 49.776 221.431 50.64 220.679 51.264C219.927 51.888 219.031 52.208 217.959 52.208C216.247 52.208 214.791 51.36 214.263 49.808L215.527 49.088C215.831 50.176 216.727 50.752 217.959 50.752C219.367 50.752 220.327 49.984 220.327 48.688C220.327 47.392 219.351 46.608 217.991 46.608H214.823L215.239 40.8H221.367V42.192H216.583L216.391 45.168ZM233.431 47.76H227.591V46.416H233.431V47.76ZM246.433 52H239.201V50.784L243.153 46.752C244.209 45.696 244.737 44.784 244.737 44.032C244.737 42.768 243.857 42.032 242.753 42.032C241.697 42.032 240.929 42.528 240.449 43.536L239.201 42.8C239.905 41.344 241.217 40.592 242.737 40.592C243.681 40.592 244.497 40.896 245.185 41.52C245.873 42.144 246.225 42.976 246.225 44.016C246.225 45.152 245.553 46.384 244.225 47.712L241.361 50.56H246.433V52ZM255.13 50.624C254.378 51.68 253.306 52.208 251.946 52.208C250.586 52.208 249.514 51.68 248.762 50.624C248.01 49.568 247.626 48.16 247.626 46.4C247.626 44.64 248.01 43.232 248.762 42.176C249.514 41.12 250.586 40.592 251.946 40.592C253.306 40.592 254.378 41.12 255.13 42.176C255.882 43.232 256.266 44.64 256.266 46.4C256.266 48.16 255.882 49.568 255.13 50.624ZM249.114 46.4C249.114 49.168 250.138 50.752 251.946 50.752C253.754 50.752 254.794 49.168 254.794 46.4C254.794 43.632 253.754 42.032 251.946 42.032C250.138 42.032 249.114 43.6 249.114 46.4ZM266.456 43.792C267.576 43.792 268.536 44.208 269.32 45.024C270.104 45.84 270.504 46.832 270.504 48C270.504 49.168 270.104 50.176 269.32 50.992C268.536 51.808 267.576 52.208 266.456 52.208C265.128 52.208 264.12 51.68 263.432 50.624V55.2H262.04V44H263.432V45.376C264.12 44.32 265.128 43.792 266.456 43.792ZM266.28 50.864C267.08 50.864 267.752 50.592 268.296 50.048C268.84 49.488 269.112 48.816 269.112 48C269.112 47.184 268.84 46.512 268.296 45.968C267.752 45.408 267.08 45.136 266.28 45.136C265.464 45.136 264.792 45.408 264.248 45.968C263.704 46.512 263.432 47.184 263.432 48C263.432 48.816 263.704 49.488 264.248 50.048C264.792 50.592 265.464 50.864 266.28 50.864ZM276.149 43.792C278.021 43.792 279.253 45.056 279.253 47.088V52H277.861V47.168C277.861 45.872 277.109 45.12 275.877 45.12C274.485 45.12 273.557 45.968 273.557 47.76V52H272.165V40.8H273.557V45.152C274.117 44.24 274.981 43.792 276.149 43.792ZM285.277 40.8H286.957L285.341 42.912H283.997L285.277 40.8ZM286.717 48.24V44H288.109V52H286.717V50.848C286.157 51.76 285.293 52.208 284.125 52.208C282.253 52.208 281.021 50.944 281.021 48.912V44H282.413V48.832C282.413 50.128 283.165 50.88 284.397 50.88C285.789 50.88 286.717 50.032 286.717 48.24ZM294.58 44V45.344H292.452V49.68C292.452 50.912 293.156 50.816 294.58 50.752V52C292.148 52.32 291.06 51.664 291.06 49.68V45.344H289.476V44H291.06V42.176L292.452 41.76V44H294.58Z" fill="#3A3A3A"/>
<mask id="path-11-inside-4_526_16007" fill="white">
<path d="M200 64H536V96H200V64Z"/>
</mask>
<path d="M200 64V63H199V64H200ZM536 64H537V63H536V64ZM200 65H536V63H200V65ZM535 64V96H537V64H535ZM201 96V64H199V96H201Z" fill="#3A3A3A" mask="url(#path-11-inside-4_526_16007)"/>
<path d="M208.288 74.208V72.8H215.28V74.128L211.2 84H209.648L213.696 74.208H208.288ZM225.252 76V77.344H223.124V81.68C223.124 82.912 223.828 82.816 225.252 82.752V84C222.82 84.32 221.732 83.664 221.732 81.68V77.344H220.148V76H221.732V74.176L223.124 73.76V76H225.252ZM232.467 80.24V76H233.859V84H232.467V82.848C231.907 83.76 231.043 84.208 229.875 84.208C228.003 84.208 226.771 82.944 226.771 80.912V76H228.163V80.832C228.163 82.128 228.915 82.88 230.147 82.88C231.539 82.88 232.467 82.032 232.467 80.24ZM240.618 74.912L239.722 73.696L238.81 74.912H237.418L239.002 72.896H240.426L242.01 74.912H240.618ZM236.746 77.008C237.562 76.192 238.57 75.792 239.738 75.792C240.906 75.792 241.914 76.192 242.73 77.008C243.546 77.824 243.962 78.816 243.962 80C243.962 81.184 243.546 82.176 242.73 82.992C241.914 83.808 240.906 84.208 239.738 84.208C238.57 84.208 237.562 83.808 236.746 82.992C235.93 82.176 235.53 81.184 235.53 80C235.53 78.816 235.93 77.824 236.746 77.008ZM239.738 82.848C240.538 82.848 241.21 82.576 241.754 82.032C242.298 81.488 242.57 80.816 242.57 80C242.57 79.184 242.298 78.512 241.754 77.968C241.21 77.424 240.538 77.152 239.738 77.152C238.954 77.152 238.282 77.424 237.738 77.968C237.194 78.512 236.922 79.184 236.922 80C236.922 80.816 237.194 81.488 237.738 82.032C238.282 82.576 238.954 82.848 239.738 82.848ZM242.282 73.44H241.37C241.37 72.784 241.386 72.624 241.674 72.4C241.674 72.4 241.898 72.272 241.898 72.256C241.994 72.208 242.186 72.128 242.186 71.888C242.186 71.744 242.074 71.632 241.818 71.632C241.546 71.632 241.258 71.744 241.13 72.096L240.298 71.744C240.586 71.04 241.162 70.752 241.818 70.752C242.522 70.752 243.098 71.104 243.098 71.872C243.098 72.432 242.826 72.768 242.538 72.912C242.346 73.008 242.234 73.088 242.282 73.44ZM246.307 75.008C245.779 75.008 245.363 74.592 245.363 74.08C245.363 73.568 245.779 73.136 246.307 73.136C246.819 73.136 247.235 73.568 247.235 74.08C247.235 74.592 246.819 75.008 246.307 75.008ZM246.995 84H245.603V76H246.995V84ZM257.471 76V77.344H255.343V81.68C255.343 82.912 256.047 82.816 257.471 82.752V84C255.039 84.32 253.951 83.664 253.951 81.68V77.344H252.367V76H253.951V74.176L255.343 73.76V76H257.471ZM260.557 76V77.344C261.021 76.352 261.853 75.856 263.053 75.856V77.312C262.365 77.28 261.789 77.456 261.293 77.856C260.797 78.256 260.557 78.88 260.557 79.76V84H259.165V76H260.557ZM269.055 74.96H268.079C268.079 74.256 268.095 74.096 268.399 73.856C268.399 73.856 268.639 73.712 268.655 73.696C268.751 73.648 268.959 73.552 268.959 73.296C268.959 73.136 268.831 73.024 268.559 73.024C268.271 73.024 267.951 73.136 267.823 73.52L266.927 73.136C267.231 72.384 267.855 72.08 268.559 72.08C269.311 72.08 269.935 72.464 269.935 73.28C269.935 73.888 269.647 74.24 269.343 74.4C269.135 74.496 269.007 74.592 269.055 74.96ZM271.167 82.992C270.351 83.808 269.343 84.208 268.175 84.208C267.007 84.208 265.999 83.808 265.183 82.992C264.367 82.176 263.967 81.184 263.967 80C263.967 78.816 264.367 77.824 265.183 77.008C265.999 76.192 267.007 75.792 268.175 75.792C268.655 75.792 269.119 75.856 269.551 76H270.095C270.799 76 270.911 75.712 270.911 75.008V74.816H272.143V75.008C272.143 76.048 271.871 76.688 271.103 76.944C271.119 76.976 271.135 76.992 271.167 77.008C271.983 77.824 272.399 78.816 272.399 80C272.399 81.184 271.983 82.176 271.167 82.992ZM268.175 82.848C268.975 82.848 269.647 82.576 270.191 82.032C270.735 81.488 271.007 80.816 271.007 80C271.007 79.184 270.735 78.512 270.191 77.968C269.647 77.424 268.975 77.152 268.175 77.152C267.391 77.152 266.719 77.424 266.175 77.968C265.631 78.512 265.359 79.184 265.359 80C265.359 80.816 265.631 81.488 266.175 82.032C266.719 82.576 267.391 82.848 268.175 82.848ZM279.432 84H278.04V72.32H279.432V84ZM286.324 74.944L285.348 73.648L284.372 74.944H282.884L284.58 72.784H286.116L287.812 74.944H286.324ZM289.236 80.64H282.532C282.804 82.064 283.908 82.896 285.428 82.896C286.484 82.896 287.252 82.512 287.732 81.728L288.916 82.4C288.132 83.6 286.964 84.208 285.396 84.208C284.132 84.208 283.092 83.808 282.292 83.024C281.508 82.224 281.108 81.216 281.108 80C281.108 78.8 281.492 77.792 282.276 76.992C283.06 76.192 284.068 75.792 285.3 75.792C286.468 75.792 287.428 76.208 288.164 77.04C288.916 77.856 289.284 78.848 289.284 80.016C289.284 80.224 289.268 80.432 289.236 80.64ZM285.3 77.104C283.812 77.104 282.772 78.016 282.532 79.424H287.876C287.636 77.904 286.58 77.104 285.3 77.104ZM294.868 75.792C296.74 75.792 297.972 77.056 297.972 79.088V84H296.58V79.168C296.58 77.872 295.828 77.12 294.596 77.12C293.204 77.12 292.276 77.968 292.276 79.76V84H290.884V76H292.276V77.152C292.836 76.24 293.7 75.792 294.868 75.792Z" fill="#3A3A3A"/>
<mask id="path-14-inside-5_526_16007" fill="white">
<path d="M200 96H536V128H200V96Z"/>
</mask>
<path d="M200 96V95H199V96H200ZM536 96H537V95H536V96ZM200 97H536V95H200V97ZM535 96V128H537V96H535ZM201 128V96H199V128H201Z" fill="#3A3A3A" mask="url(#path-14-inside-5_526_16007)"/>
<path d="M210.688 111.04V114.592H215.888V116H209.2V104.8H215.808V106.208H210.688V109.648H215.408V111.04H210.688ZM221.428 111.872L224.484 116H222.852L220.612 112.976L218.356 116H216.724L219.796 111.888L216.9 108H218.548L220.612 110.784L222.676 108H224.308L221.428 111.872ZM230.191 107.792C231.311 107.792 232.271 108.208 233.055 109.024C233.839 109.84 234.239 110.832 234.239 112C234.239 113.168 233.839 114.176 233.055 114.992C232.271 115.808 231.311 116.208 230.191 116.208C228.863 116.208 227.855 115.68 227.167 114.624V119.2H225.775V108H227.167V109.376C227.855 108.32 228.863 107.792 230.191 107.792ZM230.015 114.864C230.815 114.864 231.487 114.592 232.031 114.048C232.575 113.488 232.847 112.816 232.847 112C232.847 111.184 232.575 110.512 232.031 109.968C231.487 109.408 230.815 109.136 230.015 109.136C229.199 109.136 228.527 109.408 227.983 109.968C227.439 110.512 227.167 111.184 227.167 112C227.167 112.816 227.439 113.488 227.983 114.048C228.527 114.592 229.199 114.864 230.015 114.864ZM237.292 116H235.9V104.32H237.292V116ZM246.167 114.992C245.351 115.808 244.343 116.208 243.175 116.208C242.007 116.208 240.999 115.808 240.183 114.992C239.367 114.176 238.967 113.184 238.967 112C238.967 110.816 239.367 109.824 240.183 109.008C240.999 108.192 242.007 107.792 243.175 107.792C244.343 107.792 245.351 108.192 246.167 109.008C246.983 109.824 247.399 110.816 247.399 112C247.399 113.184 246.983 114.176 246.167 114.992ZM243.175 114.848C243.975 114.848 244.647 114.576 245.191 114.032C245.735 113.488 246.007 112.816 246.007 112C246.007 111.184 245.735 110.512 245.191 109.968C244.647 109.424 243.975 109.152 243.175 109.152C242.391 109.152 241.719 109.424 241.175 109.968C240.631 110.512 240.359 111.184 240.359 112C240.359 112.816 240.631 113.488 241.175 114.032C241.719 114.576 242.391 114.848 243.175 114.848ZM255.664 109.376V104.8H257.056V116H255.664V114.624C254.976 115.68 253.968 116.208 252.64 116.208C251.52 116.208 250.56 115.808 249.776 114.992C248.992 114.176 248.592 113.168 248.592 112C248.592 110.832 248.992 109.84 249.776 109.024C250.56 108.208 251.52 107.792 252.64 107.792C253.968 107.792 254.976 108.32 255.664 109.376ZM252.816 114.864C253.632 114.864 254.304 114.592 254.848 114.048C255.392 113.488 255.664 112.816 255.664 112C255.664 111.184 255.392 110.512 254.848 109.968C254.304 109.408 253.632 109.136 252.816 109.136C252.016 109.136 251.344 109.408 250.8 109.968C250.256 110.512 249.984 111.184 249.984 112C249.984 112.816 250.256 113.488 250.8 114.048C251.344 114.592 252.016 114.864 252.816 114.864ZM259.869 107.008C259.341 107.008 258.925 106.592 258.925 106.08C258.925 105.568 259.341 105.136 259.869 105.136C260.381 105.136 260.797 105.568 260.797 106.08C260.797 106.592 260.381 107.008 259.869 107.008ZM260.557 116H259.165V108H260.557V116ZM266.665 107.792C268.537 107.792 269.769 109.056 269.769 111.088V116H268.377V111.168C268.377 109.872 267.625 109.12 266.393 109.12C265.001 109.12 264.073 109.968 264.073 111.76V116H262.681V108H264.073V109.152C264.633 108.24 265.497 107.792 266.665 107.792ZM278.352 109.376V108H279.728V115.664C279.728 116.848 279.328 117.76 278.528 118.416C277.728 119.072 276.768 119.408 275.648 119.408C273.856 119.408 272.512 118.72 271.856 117.456L273.072 116.768C273.504 117.664 274.384 118.112 275.68 118.112C277.344 118.112 278.352 117.184 278.352 115.664V114.528C277.648 115.6 276.64 116.128 275.344 116.128C274.208 116.128 273.232 115.728 272.448 114.912C271.664 114.096 271.264 113.12 271.264 111.952C271.264 110.784 271.664 109.808 272.448 109.008C273.232 108.192 274.208 107.792 275.344 107.792C276.656 107.792 277.664 108.32 278.352 109.376ZM278.352 111.952C278.352 111.152 278.08 110.48 277.536 109.936C276.992 109.392 276.32 109.12 275.504 109.12C274.688 109.12 274.016 109.392 273.472 109.936C272.928 110.48 272.656 111.152 272.656 111.952C272.656 112.768 272.928 113.44 273.472 113.984C274.016 114.528 274.688 114.8 275.504 114.8C276.32 114.8 276.992 114.528 277.536 113.984C278.08 113.44 278.352 112.768 278.352 111.952ZM289.021 110.24L294.125 116H292.301L287.469 110.624V116H285.981V104.8H287.469V109.856L292.141 104.8H293.965L289.021 110.24ZM296.01 107.008C295.482 107.008 295.066 106.592 295.066 106.08C295.066 105.568 295.482 105.136 296.01 105.136C296.522 105.136 296.938 105.568 296.938 106.08C296.938 106.592 296.522 107.008 296.01 107.008ZM296.698 116H295.306V108H296.698V116ZM303.174 108V109.344H301.046V113.68C301.046 114.912 301.75 114.816 303.174 114.752V116C300.742 116.32 299.654 115.664 299.654 113.68V109.344H298.07V108H299.654V106.176L301.046 105.76V108H303.174ZM308.752 108V109.344H306.624V113.68C306.624 114.912 307.328 114.816 308.752 114.752V116C306.32 116.32 305.232 115.664 305.232 113.68V109.344H303.648V108H305.232V106.176L306.624 105.76V108H308.752ZM318.127 112.64H311.423C311.695 114.064 312.799 114.896 314.319 114.896C315.375 114.896 316.143 114.512 316.623 113.728L317.807 114.4C317.023 115.6 315.855 116.208 314.287 116.208C313.023 116.208 311.983 115.808 311.183 115.024C310.399 114.224 309.999 113.216 309.999 112C309.999 110.8 310.383 109.792 311.167 108.992C311.951 108.192 312.959 107.792 314.191 107.792C315.359 107.792 316.319 108.208 317.055 109.04C317.807 109.856 318.175 110.848 318.175 112.016C318.175 112.224 318.159 112.432 318.127 112.64ZM314.191 109.104C312.703 109.104 311.663 110.016 311.423 111.424H316.767C316.527 109.904 315.471 109.104 314.191 109.104ZM323.759 107.792C325.631 107.792 326.863 109.056 326.863 111.088V116H325.471V111.168C325.471 109.872 324.719 109.12 323.487 109.12C322.095 109.12 321.167 109.968 321.167 111.76V116H319.775V108H321.167V109.152C321.727 108.24 322.591 107.792 323.759 107.792ZM330.006 110.16C330.006 110.784 330.71 111.12 331.59 111.36C332.838 111.632 334.502 112.096 334.486 113.808C334.486 114.528 334.198 115.12 333.638 115.552C333.078 115.984 332.374 116.208 331.494 116.208C329.942 116.208 328.774 115.472 328.31 114.336L329.51 113.648C329.766 114.416 330.518 114.896 331.494 114.896C332.406 114.896 333.078 114.56 333.078 113.808C333.078 113.184 332.374 112.832 331.494 112.624C330.23 112.288 328.598 111.872 328.598 110.176C328.598 109.488 328.87 108.912 329.398 108.464C329.942 108.016 330.614 107.792 331.43 107.792C332.726 107.792 333.798 108.416 334.31 109.456L333.142 110.112C332.854 109.424 332.278 109.088 331.43 109.088C330.646 109.088 330.006 109.472 330.006 110.16Z" fill="#3A3A3A"/>
<mask id="path-17-inside-6_526_16007" fill="white">
<path d="M200 128H536V160H200V128Z"/>
</mask>
<path d="M200 128V127H199V128H200ZM536 128H537V127H536V128ZM200 129H536V127H200V129ZM535 128V160H537V128H535ZM201 160V128H199V160H201Z" fill="#3A3A3A" mask="url(#path-17-inside-6_526_16007)"/>
<path d="M214.464 148.208C212.768 148.208 211.36 147.648 210.256 146.528C209.152 145.408 208.608 144.032 208.608 142.4C208.608 140.768 209.152 139.392 210.256 138.272C211.36 137.152 212.768 136.592 214.464 136.592C216.512 136.592 218.336 137.648 219.296 139.312L218 140.064C217.36 138.832 216 138.032 214.464 138.032C213.168 138.032 212.112 138.448 211.296 139.28C210.48 140.112 210.08 141.152 210.08 142.4C210.08 143.632 210.48 144.672 211.296 145.504C212.112 146.336 213.168 146.752 214.464 146.752C216 146.752 217.36 145.952 218 144.736L219.296 145.472C218.832 146.304 218.16 146.976 217.296 147.472C216.432 147.968 215.488 148.208 214.464 148.208ZM224.868 139.792C226.74 139.792 227.972 141.056 227.972 143.088V148H226.58V143.168C226.58 141.872 225.828 141.12 224.596 141.12C223.204 141.12 222.276 141.968 222.276 143.76V148H220.884V136.8H222.276V141.152C222.836 140.24 223.7 139.792 224.868 139.792ZM230.619 139.008C230.091 139.008 229.675 138.592 229.675 138.08C229.675 137.568 230.091 137.136 230.619 137.136C231.131 137.136 231.547 137.568 231.547 138.08C231.547 138.592 231.131 139.008 230.619 139.008ZM231.307 148H229.915V140H231.307V148ZM238.119 138.944L237.223 137.728L236.311 138.944H234.919L236.503 136.928H237.927L239.511 138.944H238.119ZM241.111 144.64H234.407C234.679 146.064 235.783 146.896 237.303 146.896C238.359 146.896 239.127 146.512 239.607 145.728L240.791 146.4C240.007 147.6 238.839 148.208 237.271 148.208C236.007 148.208 234.967 147.808 234.167 147.024C233.383 146.224 232.983 145.216 232.983 144C232.983 142.8 233.367 141.792 234.151 140.992C234.935 140.192 235.943 139.792 237.175 139.792C238.343 139.792 239.303 140.208 240.039 141.04C240.791 141.856 241.159 142.848 241.159 144.016C241.159 144.224 241.143 144.432 241.111 144.64ZM237.175 141.104C235.687 141.104 234.647 142.016 234.407 143.424H239.751C239.511 141.904 238.455 141.104 237.175 141.104ZM238.823 137.472L240.007 135.504H241.591L240.071 137.472H238.823ZM246.743 139.792C248.615 139.792 249.847 141.056 249.847 143.088V148H248.455V143.168C248.455 141.872 247.703 141.12 246.471 141.12C245.079 141.12 244.151 141.968 244.151 143.76V148H242.759V140H244.151V141.152C244.711 140.24 245.575 139.792 246.743 139.792ZM260.142 140V141.344H258.014V145.68C258.014 146.912 258.718 146.816 260.142 146.752V148C257.71 148.32 256.622 147.664 256.622 145.68V141.344H255.038V140H256.622V138.176L258.014 137.76V140H260.142ZM265.821 139.792C267.693 139.792 268.925 141.056 268.925 143.088V148H267.533V143.168C267.533 141.872 266.781 141.12 265.549 141.12C264.157 141.12 263.229 141.968 263.229 143.76V148H261.837V136.8H263.229V141.152C263.789 140.24 264.653 139.792 265.821 139.792ZM276.389 144.24V140H277.781V148H276.389V146.848C275.829 147.76 274.965 148.208 273.797 148.208C271.924 148.208 270.693 146.944 270.693 144.912V140H272.085V144.832C272.085 146.128 272.837 146.88 274.069 146.88C275.461 146.88 276.389 146.032 276.389 144.24ZM285.276 138.96L284.38 137.744L283.468 138.96H282.076L283.66 136.944H285.084L286.668 138.96H285.276ZM286.524 141.376V140H287.916V148H286.524V146.624C285.836 147.68 284.828 148.208 283.5 148.208C282.38 148.208 281.42 147.808 280.636 146.992C279.852 146.176 279.452 145.168 279.452 144C279.452 142.832 279.852 141.84 280.636 141.024C281.42 140.208 282.38 139.792 283.5 139.792C284.828 139.792 285.836 140.32 286.524 141.376ZM283.676 146.864C284.492 146.864 285.164 146.592 285.708 146.048C286.252 145.488 286.524 144.816 286.524 144C286.524 143.184 286.252 142.512 285.708 141.968C285.164 141.408 284.492 141.136 283.676 141.136C282.876 141.136 282.204 141.408 281.66 141.968C281.116 142.512 280.844 143.184 280.844 144C280.844 144.816 281.116 145.488 281.66 146.048C282.204 146.592 282.876 146.864 283.676 146.864ZM283.772 151.232C283.244 151.232 282.828 150.816 282.828 150.304C282.828 149.792 283.244 149.36 283.772 149.36C284.284 149.36 284.7 149.792 284.7 150.304C284.7 150.816 284.284 151.232 283.772 151.232ZM294.377 140V141.344H292.249V145.68C292.249 146.912 292.953 146.816 294.377 146.752V148C291.945 148.32 290.857 147.664 290.857 145.68V141.344H289.273V140H290.857V138.176L292.249 137.76V140H294.377ZM306.056 143.76H300.216V142.416H306.056V143.76ZM312.85 136.8H317.218C318.738 136.8 320.002 137.344 321.01 138.432C322.018 139.504 322.53 140.832 322.53 142.4C322.53 143.968 322.018 145.296 321.01 146.384C320.002 147.456 318.738 148 317.218 148H312.85V143.184H311.842V141.904H312.85V136.8ZM314.338 146.592H317.218C318.354 146.592 319.298 146.192 320.018 145.392C320.738 144.592 321.106 143.6 321.106 142.4C321.106 141.2 320.738 140.208 320.018 139.408C319.298 138.608 318.354 138.208 317.218 138.208H314.338V141.904H317.154V143.184H314.338V146.592ZM328.837 138.912L327.941 137.696L327.029 138.912H325.637L327.221 136.896H328.645L330.229 138.912H328.837ZM324.965 141.008C325.781 140.192 326.789 139.792 327.957 139.792C329.125 139.792 330.133 140.192 330.949 141.008C331.765 141.824 332.181 142.816 332.181 144C332.181 145.184 331.765 146.176 330.949 146.992C330.133 147.808 329.125 148.208 327.957 148.208C326.789 148.208 325.781 147.808 324.965 146.992C324.149 146.176 323.749 145.184 323.749 144C323.749 142.816 324.149 141.824 324.965 141.008ZM327.957 146.848C328.757 146.848 329.429 146.576 329.973 146.032C330.517 145.488 330.789 144.816 330.789 144C330.789 143.184 330.517 142.512 329.973 141.968C329.429 141.424 328.757 141.152 327.957 141.152C327.173 141.152 326.501 141.424 325.957 141.968C325.413 142.512 325.141 143.184 325.141 144C325.141 144.816 325.413 145.488 325.957 146.032C326.501 146.576 327.173 146.848 327.957 146.848ZM329.541 137.44L330.725 135.472H332.309L330.789 137.44H329.541ZM334.526 139.008C333.998 139.008 333.582 138.592 333.582 138.08C333.582 137.568 333.998 137.136 334.526 137.136C335.038 137.136 335.454 137.568 335.454 138.08C335.454 138.592 335.038 139.008 334.526 139.008ZM335.214 148H333.822V140H335.214V148ZM344.153 143.872L348.105 148H346.377L342.729 144.208V148H341.337V136.8H342.729V143.536L346.185 140H347.977L344.153 143.872ZM353.384 139.792C355.256 139.792 356.488 141.056 356.488 143.088V148H355.096V143.168C355.096 141.872 354.344 141.12 353.112 141.12C351.72 141.12 350.792 141.968 350.792 143.76V148H349.4V136.8H350.792V141.152C351.352 140.24 352.216 139.792 353.384 139.792ZM363.215 136.8H364.895L363.279 138.912H361.935L363.215 136.8ZM365.055 141.376V140H366.447V148H365.055V146.624C364.367 147.68 363.359 148.208 362.031 148.208C360.911 148.208 359.951 147.808 359.167 146.992C358.383 146.176 357.983 145.168 357.983 144C357.983 142.832 358.383 141.84 359.167 141.024C359.951 140.208 360.911 139.792 362.031 139.792C363.359 139.792 364.367 140.32 365.055 141.376ZM362.207 146.864C363.023 146.864 363.695 146.592 364.239 146.048C364.783 145.488 365.055 144.816 365.055 144C365.055 143.184 364.783 142.512 364.239 141.968C363.695 141.408 363.023 141.136 362.207 141.136C361.407 141.136 360.735 141.408 360.191 141.968C359.647 142.512 359.375 143.184 359.375 144C359.375 144.816 359.647 145.488 360.191 146.048C360.735 146.592 361.407 146.864 362.207 146.864ZM372.54 139.792C374.412 139.792 375.644 141.056 375.644 143.088V148H374.252V143.168C374.252 141.872 373.5 141.12 372.268 141.12C370.876 141.12 369.948 141.968 369.948 143.76V148H368.556V140H369.948V141.152C370.508 140.24 371.372 139.792 372.54 139.792ZM384.227 141.376V140H385.603V147.664C385.603 148.848 385.203 149.76 384.403 150.416C383.603 151.072 382.643 151.408 381.523 151.408C379.731 151.408 378.387 150.72 377.731 149.456L378.947 148.768C379.379 149.664 380.259 150.112 381.555 150.112C383.219 150.112 384.227 149.184 384.227 147.664V146.528C383.523 147.6 382.515 148.128 381.219 148.128C380.083 148.128 379.107 147.728 378.323 146.912C377.539 146.096 377.139 145.12 377.139 143.952C377.139 142.784 377.539 141.808 378.323 141.008C379.107 140.192 380.083 139.792 381.219 139.792C382.531 139.792 383.539 140.32 384.227 141.376ZM384.227 143.952C384.227 143.152 383.955 142.48 383.411 141.936C382.867 141.392 382.195 141.12 381.379 141.12C380.563 141.12 379.891 141.392 379.347 141.936C378.803 142.48 378.531 143.152 378.531 143.952C378.531 144.768 378.803 145.44 379.347 145.984C379.891 146.528 380.563 146.8 381.379 146.8C382.195 146.8 382.867 146.528 383.411 145.984C383.955 145.44 384.227 144.768 384.227 143.952Z" fill="#3A3A3A"/>
<rect x="200.5" y="160.5" width="335" height="31" stroke="#3A3A3A"/>
<path d="M215.808 180H208.576V178.784L212.528 174.752C213.584 173.696 214.112 172.784 214.112 172.032C214.112 170.768 213.232 170.032 212.128 170.032C211.072 170.032 210.304 170.528 209.824 171.536L208.576 170.8C209.28 169.344 210.592 168.592 212.112 168.592C213.056 168.592 213.872 168.896 214.56 169.52C215.248 170.144 215.6 170.976 215.6 172.016C215.6 173.152 214.928 174.384 213.6 175.712L210.736 178.56H215.808V180ZM224.505 178.624C223.753 179.68 222.681 180.208 221.321 180.208C219.961 180.208 218.889 179.68 218.137 178.624C217.385 177.568 217.001 176.16 217.001 174.4C217.001 172.64 217.385 171.232 218.137 170.176C218.889 169.12 219.961 168.592 221.321 168.592C222.681 168.592 223.753 169.12 224.505 170.176C225.257 171.232 225.641 172.64 225.641 174.4C225.641 176.16 225.257 177.568 224.505 178.624ZM218.489 174.4C218.489 177.168 219.513 178.752 221.321 178.752C223.129 178.752 224.169 177.168 224.169 174.4C224.169 171.632 223.129 170.032 221.321 170.032C219.513 170.032 218.489 171.6 218.489 174.4ZM226.271 169.824L229.215 168.8H230.495V180H229.023V170.4L226.639 171.104L226.271 169.824ZM234.438 173.168H236.07C237.126 173.168 238.022 173.488 238.742 174.112C239.478 174.736 239.846 175.584 239.846 176.688C239.846 177.776 239.478 178.64 238.726 179.264C237.974 179.888 237.078 180.208 236.006 180.208C234.294 180.208 232.838 179.36 232.31 177.808L233.574 177.088C233.878 178.176 234.774 178.752 236.006 178.752C237.414 178.752 238.374 177.984 238.374 176.688C238.374 175.392 237.398 174.608 236.038 174.608H232.87L233.286 168.8H239.414V170.192H234.63L234.438 173.168Z" fill="#3A3A3A"/>
<mask id="path-22-inside-7_526_16007" fill="white">
<path d="M0 32H200V64H0V32Z"/>
</mask>
<path d="M0 32V31H-1V32H0ZM0 33H200V31H0V33ZM1 64V32H-1V64H1Z" fill="#3A3A3A" mask="url(#path-22-inside-7_526_16007)"/>
<path d="M8.288 40.8H16.368V42.208H13.056V52H11.584V42.208H8.288V40.8ZM21.6806 43.792C23.5526 43.792 24.7846 45.056 24.7846 47.088V52H23.3926V47.168C23.3926 45.872 22.6406 45.12 21.4086 45.12C20.0166 45.12 19.0886 45.968 19.0886 47.76V52H17.6966V40.8H19.0886V45.152C19.6486 44.24 20.5126 43.792 21.6806 43.792ZM31.6239 42.864H30.2799L28.6639 40.752H30.3439L31.6239 42.864ZM33.4799 50.992C32.6639 51.808 31.6559 52.208 30.4879 52.208C29.3199 52.208 28.3119 51.808 27.4959 50.992C26.6799 50.176 26.2799 49.184 26.2799 48C26.2799 46.816 26.6799 45.824 27.4959 45.008C28.3119 44.192 29.3199 43.792 30.4879 43.792C30.9679 43.792 31.4319 43.856 31.8639 44H32.4079C33.1119 44 33.2239 43.712 33.2239 43.008V42.816H34.4559V43.008C34.4559 44.048 34.1839 44.688 33.4159 44.944C33.4319 44.976 33.4479 44.992 33.4799 45.008C34.2959 45.824 34.7119 46.816 34.7119 48C34.7119 49.184 34.2959 50.176 33.4799 50.992ZM30.4879 50.848C31.2879 50.848 31.9599 50.576 32.5039 50.032C33.0479 49.488 33.3199 48.816 33.3199 48C33.3199 47.184 33.0479 46.512 32.5039 45.968C31.9599 45.424 31.2879 45.152 30.4879 45.152C29.7039 45.152 29.0319 45.424 28.4879 45.968C27.9439 46.512 27.6719 47.184 27.6719 48C27.6719 48.816 27.9439 49.488 28.4879 50.032C29.0319 50.576 29.7039 50.848 30.4879 50.848ZM37.0569 43.008C36.5289 43.008 36.1129 42.592 36.1129 42.08C36.1129 41.568 36.5289 41.136 37.0569 41.136C37.5689 41.136 37.9849 41.568 37.9849 42.08C37.9849 42.592 37.5689 43.008 37.0569 43.008ZM37.7449 52H36.3529V44H37.7449V52ZM50.5085 45.376V44H51.8845V51.664C51.8845 52.848 51.4845 53.76 50.6845 54.416C49.8845 55.072 48.9245 55.408 47.8045 55.408C46.0125 55.408 44.6685 54.72 44.0125 53.456L45.2285 52.768C45.6605 53.664 46.5405 54.112 47.8365 54.112C49.5005 54.112 50.5085 53.184 50.5085 51.664V50.528C49.8045 51.6 48.7965 52.128 47.5005 52.128C46.3645 52.128 45.3885 51.728 44.6045 50.912C43.8205 50.096 43.4205 49.12 43.4205 47.952C43.4205 46.784 43.8205 45.808 44.6045 45.008C45.3885 44.192 46.3645 43.792 47.5005 43.792C48.8125 43.792 49.8205 44.32 50.5085 45.376ZM50.5085 47.952C50.5085 47.152 50.2365 46.48 49.6925 45.936C49.1485 45.392 48.4765 45.12 47.6605 45.12C46.8445 45.12 46.1725 45.392 45.6285 45.936C45.0845 46.48 44.8125 47.152 44.8125 47.952C44.8125 48.768 45.0845 49.44 45.6285 49.984C46.1725 50.528 46.8445 50.8 47.6605 50.8C48.4765 50.8 49.1485 50.528 49.6925 49.984C50.2365 49.44 50.5085 48.768 50.5085 47.952ZM54.6975 43.008C54.1695 43.008 53.7535 42.592 53.7535 42.08C53.7535 41.568 54.1695 41.136 54.6975 41.136C55.2095 41.136 55.6255 41.568 55.6255 42.08C55.6255 42.592 55.2095 43.008 54.6975 43.008ZM55.3855 52H53.9935V44H55.3855V52ZM64.1331 45.376V44H65.5251V52H64.1331V50.624C63.4451 51.68 62.4371 52.208 61.1091 52.208C59.9891 52.208 59.0291 51.808 58.2451 50.992C57.4611 50.176 57.0611 49.168 57.0611 48C57.0611 46.832 57.4611 45.84 58.2451 45.024C59.0291 44.208 59.9891 43.792 61.1091 43.792C62.4371 43.792 63.4451 44.32 64.1331 45.376ZM61.2851 50.864C62.1011 50.864 62.7731 50.592 63.3171 50.048C63.8611 49.488 64.1331 48.816 64.1331 48C64.1331 47.184 63.8611 46.512 63.3171 45.968C62.7731 45.408 62.1011 45.136 61.2851 45.136C60.4851 45.136 59.8131 45.408 59.2691 45.968C58.7251 46.512 58.4531 47.184 58.4531 48C58.4531 48.816 58.7251 49.488 59.2691 50.048C59.8131 50.592 60.4851 50.864 61.2851 50.864ZM71.6181 43.792C73.4901 43.792 74.7221 45.056 74.7221 47.088V52H73.3301V47.168C73.3301 45.872 72.5781 45.12 71.3461 45.12C69.9541 45.12 69.0261 45.968 69.0261 47.76V52H67.6341V44H69.0261V45.152C69.5861 44.24 70.4501 43.792 71.6181 43.792ZM84.4254 52.208C83.2254 52.208 82.2174 51.808 81.4174 51.008C80.6174 50.192 80.2174 49.2 80.2174 48C80.2174 46.8 80.6174 45.808 81.4174 45.008C82.2174 44.192 83.2254 43.792 84.4254 43.792C86.0094 43.792 87.3374 44.608 87.9614 45.888L86.7934 46.56C86.3934 45.712 85.4974 45.152 84.4254 45.152C83.6254 45.152 82.9534 45.424 82.4094 45.968C81.8814 46.512 81.6094 47.184 81.6094 48C81.6094 48.8 81.8814 49.472 82.4094 50.016C82.9534 50.56 83.6254 50.832 84.4254 50.832C85.4974 50.832 86.3934 50.288 86.8414 49.44L88.0254 50.128C87.3374 51.392 85.9774 52.208 84.4254 52.208ZM93.3994 43.792C95.2714 43.792 96.5034 45.056 96.5034 47.088V52H95.1114V47.168C95.1114 45.872 94.3594 45.12 93.1274 45.12C91.7354 45.12 90.8074 45.968 90.8074 47.76V52H89.4154V40.8H90.8074V45.152C91.3674 44.24 92.2314 43.792 93.3994 43.792ZM105.199 50.992C104.383 51.808 103.375 52.208 102.207 52.208C101.039 52.208 100.031 51.808 99.2146 50.992C98.3986 50.176 97.9986 49.184 97.9986 48C97.9986 46.816 98.3986 45.824 99.2146 45.008C100.031 44.192 101.039 43.792 102.207 43.792C102.687 43.792 103.151 43.856 103.583 44H104.127C104.831 44 104.943 43.712 104.943 43.008V42.816H106.175V43.008C106.175 44.048 105.903 44.688 105.135 44.944C105.151 44.976 105.167 44.992 105.199 45.008C106.015 45.824 106.431 46.816 106.431 48C106.431 49.184 106.015 50.176 105.199 50.992ZM102.207 50.848C103.007 50.848 103.679 50.576 104.223 50.032C104.767 49.488 105.039 48.816 105.039 48C105.039 47.184 104.767 46.512 104.223 45.968C103.679 45.424 103.007 45.152 102.207 45.152C101.423 45.152 100.751 45.424 100.207 45.968C99.6626 46.512 99.3906 47.184 99.3906 48C99.3906 48.816 99.6626 49.488 100.207 50.032C100.751 50.576 101.423 50.848 102.207 50.848ZM108.776 43.008C108.248 43.008 107.832 42.592 107.832 42.08C107.832 41.568 108.248 41.136 108.776 41.136C109.288 41.136 109.704 41.568 109.704 42.08C109.704 42.592 109.288 43.008 108.776 43.008ZM109.464 52H108.072V44H109.464V52Z" fill="#3A3A3A"/>
<mask id="path-25-inside-8_526_16007" fill="white">
<path d="M0 64H200V96H0V64Z"/>
</mask>
<path d="M0 64V63H-1V64H0ZM0 65H200V63H0V65ZM1 96V64H-1V96H1Z" fill="#3A3A3A" mask="url(#path-25-inside-8_526_16007)"/>
<path d="M9.6 72.8H13.968C15.488 72.8 16.752 73.344 17.76 74.432C18.768 75.504 19.28 76.832 19.28 78.4C19.28 79.968 18.768 81.296 17.76 82.384C16.752 83.456 15.488 84 13.968 84H9.6V79.184H8.592V77.904H9.6V72.8ZM11.088 82.592H13.968C15.104 82.592 16.048 82.192 16.768 81.392C17.488 80.592 17.856 79.6 17.856 78.4C17.856 77.2 17.488 76.208 16.768 75.408C16.048 74.608 15.104 74.208 13.968 74.208H11.088V77.904H13.904V79.184H11.088V82.592ZM25.5866 74.912L24.6906 73.696L23.7786 74.912H22.3866L23.9706 72.896H25.3946L26.9786 74.912H25.5866ZM21.7146 77.008C22.5306 76.192 23.5386 75.792 24.7066 75.792C25.8746 75.792 26.8826 76.192 27.6986 77.008C28.5146 77.824 28.9306 78.816 28.9306 80C28.9306 81.184 28.5146 82.176 27.6986 82.992C26.8826 83.808 25.8746 84.208 24.7066 84.208C23.5386 84.208 22.5306 83.808 21.7146 82.992C20.8986 82.176 20.4986 81.184 20.4986 80C20.4986 78.816 20.8986 77.824 21.7146 77.008ZM24.7066 82.848C25.5066 82.848 26.1786 82.576 26.7226 82.032C27.2666 81.488 27.5386 80.816 27.5386 80C27.5386 79.184 27.2666 78.512 26.7226 77.968C26.1786 77.424 25.5066 77.152 24.7066 77.152C23.9226 77.152 23.2506 77.424 22.7066 77.968C22.1626 78.512 21.8906 79.184 21.8906 80C21.8906 80.816 22.1626 81.488 22.7066 82.032C23.2506 82.576 23.9226 82.848 24.7066 82.848ZM24.7066 87.232C24.1786 87.232 23.7626 86.816 23.7626 86.304C23.7626 85.792 24.1786 85.36 24.7066 85.36C25.2186 85.36 25.6346 85.792 25.6346 86.304C25.6346 86.816 25.2186 87.232 24.7066 87.232ZM38.9236 76V77.344H36.7956V81.68C36.7956 82.912 37.4996 82.816 38.9236 82.752V84C36.4916 84.32 35.4036 83.664 35.4036 81.68V77.344H33.8196V76H35.4036V74.176L36.7956 73.76V76H38.9236ZM46.1385 80.24V76H47.5305V84H46.1385V82.848C45.5785 83.76 44.7145 84.208 43.5465 84.208C41.6745 84.208 40.4425 82.944 40.4425 80.912V76H41.8345V80.832C41.8345 82.128 42.5865 82.88 43.8185 82.88C45.2105 82.88 46.1385 82.032 46.1385 80.24ZM54.2898 74.912L53.3938 73.696L52.4818 74.912H51.0898L52.6738 72.896H54.0978L55.6818 74.912H54.2898ZM50.4178 77.008C51.2338 76.192 52.2418 75.792 53.4098 75.792C54.5778 75.792 55.5858 76.192 56.4018 77.008C57.2178 77.824 57.6337 78.816 57.6337 80C57.6337 81.184 57.2178 82.176 56.4018 82.992C55.5858 83.808 54.5778 84.208 53.4098 84.208C52.2418 84.208 51.2338 83.808 50.4178 82.992C49.6018 82.176 49.2018 81.184 49.2018 80C49.2018 78.816 49.6018 77.824 50.4178 77.008ZM53.4098 82.848C54.2098 82.848 54.8818 82.576 55.4258 82.032C55.9698 81.488 56.2418 80.816 56.2418 80C56.2418 79.184 55.9698 78.512 55.4258 77.968C54.8818 77.424 54.2098 77.152 53.4098 77.152C52.6258 77.152 51.9538 77.424 51.4098 77.968C50.8658 78.512 50.5938 79.184 50.5938 80C50.5938 80.816 50.8658 81.488 51.4098 82.032C51.9538 82.576 52.6258 82.848 53.4098 82.848ZM55.9538 73.44H55.0418C55.0418 72.784 55.0578 72.624 55.3458 72.4C55.3458 72.4 55.5698 72.272 55.5698 72.256C55.6658 72.208 55.8578 72.128 55.8578 71.888C55.8578 71.744 55.7458 71.632 55.4898 71.632C55.2178 71.632 54.9298 71.744 54.8018 72.096L53.9698 71.744C54.2578 71.04 54.8338 70.752 55.4898 70.752C56.1938 70.752 56.7698 71.104 56.7698 71.872C56.7698 72.432 56.4978 72.768 56.2098 72.912C56.0178 73.008 55.9058 73.088 55.9538 73.44ZM59.9788 75.008C59.4508 75.008 59.0348 74.592 59.0348 74.08C59.0348 73.568 59.4508 73.136 59.9788 73.136C60.4908 73.136 60.9068 73.568 60.9068 74.08C60.9068 74.592 60.4908 75.008 59.9788 75.008ZM60.6668 84H59.2747V76H60.6668V84Z" fill="#3A3A3A"/>
<mask id="path-28-inside-9_526_16007" fill="white">
<path d="M0 96H200V128H0V96Z"/>
</mask>
<path d="M0 96V95H-1V96H0ZM0 97H200V95H0V97ZM1 128V96H-1V128H1Z" fill="#3A3A3A" mask="url(#path-28-inside-9_526_16007)"/>
<path d="M16.16 113.152V104.8H17.648V116H16.448L10.688 107.632V116H9.2V104.8H10.4L16.16 113.152ZM23.8838 107.792C25.7558 107.792 26.9878 109.056 26.9878 111.088V116H25.5958V111.168C25.5958 109.872 24.8438 109.12 23.6118 109.12C22.2198 109.12 21.2918 109.968 21.2918 111.76V116H19.8997V104.8H21.2918V109.152C21.8518 108.24 22.7158 107.792 23.8838 107.792ZM33.267 104.8L34.547 106.912H33.203L31.587 104.8H33.267ZM35.555 109.376V108H36.947V116H35.555V114.624C34.867 115.68 33.859 116.208 32.531 116.208C31.411 116.208 30.451 115.808 29.667 114.992C28.883 114.176 28.483 113.168 28.483 112C28.483 110.832 28.883 109.84 29.667 109.024C30.451 108.208 31.411 107.792 32.531 107.792C33.859 107.792 34.867 108.32 35.555 109.376ZM32.707 114.864C33.523 114.864 34.195 114.592 34.739 114.048C35.283 113.488 35.555 112.816 35.555 112C35.555 111.184 35.283 110.512 34.739 109.968C34.195 109.408 33.523 109.136 32.707 109.136C31.907 109.136 31.235 109.408 30.691 109.968C30.147 110.512 29.875 111.184 29.875 112C29.875 112.816 30.147 113.488 30.691 114.048C31.235 114.592 31.907 114.864 32.707 114.864ZM44.256 110.16C44.256 110.784 44.96 111.12 45.84 111.36C47.088 111.632 48.752 112.096 48.736 113.808C48.736 114.528 48.448 115.12 47.888 115.552C47.328 115.984 46.624 116.208 45.744 116.208C44.192 116.208 43.024 115.472 42.56 114.336L43.76 113.648C44.016 114.416 44.768 114.896 45.744 114.896C46.656 114.896 47.328 114.56 47.328 113.808C47.328 113.184 46.624 112.832 45.744 112.624C44.48 112.288 42.848 111.872 42.848 110.176C42.848 109.488 43.12 108.912 43.648 108.464C44.192 108.016 44.864 107.792 45.68 107.792C46.976 107.792 48.048 108.416 48.56 109.456L47.392 110.112C47.104 109.424 46.528 109.088 45.68 109.088C44.896 109.088 44.256 109.472 44.256 110.16ZM55.6001 106.96H54.6241C54.6241 106.256 54.6401 106.096 54.9441 105.856C54.9441 105.856 55.1841 105.712 55.2001 105.696C55.2961 105.648 55.5041 105.552 55.5041 105.296C55.5041 105.136 55.3761 105.024 55.1041 105.024C54.8161 105.024 54.4961 105.136 54.3681 105.52L53.4721 105.136C53.7761 104.384 54.4001 104.08 55.1041 104.08C55.8561 104.08 56.4801 104.464 56.4801 105.28C56.4801 105.888 56.1921 106.24 55.8881 106.4C55.6801 106.496 55.5521 106.592 55.6001 106.96ZM57.0081 109.376V108H58.4001V116H57.0081V114.624C56.3201 115.68 55.3121 116.208 53.9841 116.208C52.8641 116.208 51.9041 115.808 51.1201 114.992C50.3361 114.176 49.9361 113.168 49.9361 112C49.9361 110.832 50.3361 109.84 51.1201 109.024C51.9041 108.208 52.8641 107.792 53.9841 107.792C55.3121 107.792 56.3201 108.32 57.0081 109.376ZM54.1601 114.864C54.9761 114.864 55.6481 114.592 56.1921 114.048C56.7361 113.488 57.0081 112.816 57.0081 112C57.0081 111.184 56.7361 110.512 56.1921 109.968C55.6481 109.408 54.9761 109.136 54.1601 109.136C53.3601 109.136 52.6881 109.408 52.1441 109.968C51.6001 110.512 51.3281 111.184 51.3281 112C51.3281 112.816 51.6001 113.488 52.1441 114.048C52.6881 114.592 53.3601 114.864 54.1601 114.864ZM64.4931 107.792C66.3651 107.792 67.5971 109.056 67.5971 111.088V116H66.2051V111.168C66.2051 109.872 65.4531 109.12 64.2211 109.12C62.8291 109.12 61.9011 109.968 61.9011 111.76V116H60.5091V108H61.9011V109.152C62.4611 108.24 63.3251 107.792 64.4931 107.792ZM77.4284 111.872L80.4844 116H78.8524L76.6124 112.976L74.3564 116H72.7244L75.7964 111.888L72.9004 108H74.5484L76.6124 110.784L78.6764 108H80.3084L77.4284 111.872ZM87.2948 112.24V108H88.6868V116H87.2948V114.848C86.7348 115.76 85.8708 116.208 84.7028 116.208C82.8307 116.208 81.5988 114.944 81.5988 112.912V108H82.9908V112.832C82.9908 114.128 83.7428 114.88 84.9748 114.88C86.3668 114.88 87.2948 114.032 87.2948 112.24ZM96.182 106.96L95.286 105.744L94.374 106.96H92.982L94.566 104.944H95.99L97.574 106.96H96.182ZM97.43 109.376V108H98.822V116H97.43V114.624C96.742 115.68 95.734 116.208 94.406 116.208C93.286 116.208 92.326 115.808 91.542 114.992C90.758 114.176 90.358 113.168 90.358 112C90.358 110.832 90.758 109.84 91.542 109.024C92.326 108.208 93.286 107.792 94.406 107.792C95.734 107.792 96.742 108.32 97.43 109.376ZM94.582 114.864C95.398 114.864 96.07 114.592 96.614 114.048C97.158 113.488 97.43 112.816 97.43 112C97.43 111.184 97.158 110.512 96.614 109.968C96.07 109.408 95.398 109.136 94.582 109.136C93.782 109.136 93.11 109.408 92.566 109.968C92.022 110.512 91.75 111.184 91.75 112C91.75 112.816 92.022 113.488 92.566 114.048C93.11 114.592 93.782 114.864 94.582 114.864ZM96.886 105.488L98.07 103.52H99.654L98.134 105.488H96.886ZM105.283 108V109.344H103.155V113.68C103.155 114.912 103.859 114.816 105.283 114.752V116C102.851 116.32 101.763 115.664 101.763 113.68V109.344H100.179V108H101.763V106.176L103.155 105.76V108H105.283Z" fill="#3A3A3A"/>
<mask id="path-31-inside-10_526_16007" fill="white">
<path d="M0 128H200V160H0V128Z"/>
</mask>
<path d="M0 128V127H-1V128H0ZM0 129H200V127H0V129ZM1 160V128H-1V160H1Z" fill="#3A3A3A" mask="url(#path-31-inside-10_526_16007)"/>
<path d="M8.288 136.8H16.368V138.208H13.056V148H11.584V138.208H8.288V136.8ZM21.6806 139.792C23.5526 139.792 24.7846 141.056 24.7846 143.088V148H23.3926V143.168C23.3926 141.872 22.6406 141.12 21.4086 141.12C20.0166 141.12 19.0886 141.968 19.0886 143.76V148H17.6966V136.8H19.0886V141.152C19.6486 140.24 20.5126 139.792 21.6806 139.792ZM31.4159 138.944L30.5199 137.728L29.6079 138.944H28.2159L29.7999 136.928H31.2239L32.8079 138.944H31.4159ZM34.4079 144.64H27.7039C27.9759 146.064 29.0799 146.896 30.5999 146.896C31.6559 146.896 32.4239 146.512 32.9039 145.728L34.0879 146.4C33.3039 147.6 32.1359 148.208 30.5679 148.208C29.3039 148.208 28.2639 147.808 27.4639 147.024C26.6799 146.224 26.2799 145.216 26.2799 144C26.2799 142.8 26.6639 141.792 27.4479 140.992C28.2319 140.192 29.2399 139.792 30.4719 139.792C31.6399 139.792 32.5999 140.208 33.3359 141.04C34.0879 141.856 34.4559 142.848 34.4559 144.016C34.4559 144.224 34.4399 144.432 34.4079 144.64ZM30.4719 141.104C28.9839 141.104 27.9439 142.016 27.7039 143.424H33.0479C32.8079 141.904 31.7519 141.104 30.4719 141.104ZM33.0799 137.472H32.1679C32.1679 136.816 32.1839 136.656 32.4719 136.432C32.4719 136.432 32.6959 136.304 32.6959 136.288C32.7919 136.24 32.9839 136.16 32.9839 135.92C32.9839 135.776 32.8719 135.664 32.6159 135.664C32.3439 135.664 32.0559 135.776 31.9279 136.128L31.0959 135.776C31.3839 135.072 31.9599 134.784 32.6159 134.784C33.3199 134.784 33.8959 135.136 33.8959 135.904C33.8959 136.464 33.6239 136.8 33.3359 136.944C33.1439 137.04 33.0319 137.12 33.0799 137.472ZM41.448 148H40.056V136.32H41.448V148ZM50.3236 146.992C49.5076 147.808 48.4996 148.208 47.3316 148.208C46.1636 148.208 45.1556 147.808 44.3396 146.992C43.5236 146.176 43.1236 145.184 43.1236 144C43.1236 142.816 43.5236 141.824 44.3396 141.008C45.1556 140.192 46.1636 139.792 47.3316 139.792C48.4996 139.792 49.5076 140.192 50.3236 141.008C51.1396 141.824 51.5556 142.816 51.5556 144C51.5556 145.184 51.1396 146.176 50.3236 146.992ZM47.3316 146.848C48.1316 146.848 48.8036 146.576 49.3476 146.032C49.8916 145.488 50.1636 144.816 50.1636 144C50.1636 143.184 49.8916 142.512 49.3476 141.968C48.8036 141.424 48.1316 141.152 47.3316 141.152C46.5476 141.152 45.8756 141.424 45.3316 141.968C44.7876 142.512 44.5156 143.184 44.5156 144C44.5156 144.816 44.7876 145.488 45.3316 146.032C45.8756 146.576 46.5476 146.848 47.3316 146.848ZM57.0686 151.232C56.5406 151.232 56.1246 150.816 56.1246 150.304C56.1246 149.792 56.5406 149.36 57.0686 149.36C57.5806 149.36 57.9966 149.792 57.9966 150.304C57.9966 150.816 57.5806 151.232 57.0686 151.232ZM59.8206 141.376V140H61.2126V148H59.8206V146.624C59.1326 147.68 58.1246 148.208 56.7966 148.208C55.6766 148.208 54.7166 147.808 53.9326 146.992C53.1486 146.176 52.7486 145.168 52.7486 144C52.7486 142.832 53.1486 141.84 53.9326 141.024C54.7166 140.208 55.6766 139.792 56.7966 139.792C58.1246 139.792 59.1326 140.32 59.8206 141.376ZM56.9726 146.864C57.7886 146.864 58.4606 146.592 59.0046 146.048C59.5486 145.488 59.8206 144.816 59.8206 144C59.8206 143.184 59.5486 142.512 59.0046 141.968C58.4606 141.408 57.7886 141.136 56.9726 141.136C56.1726 141.136 55.5006 141.408 54.9566 141.968C54.4126 142.512 54.1406 143.184 54.1406 144C54.1406 144.816 54.4126 145.488 54.9566 146.048C55.5006 146.592 56.1726 146.864 56.9726 146.864ZM64.0256 139.008C63.4976 139.008 63.0816 138.592 63.0816 138.08C63.0816 137.568 63.4976 137.136 64.0256 137.136C64.5376 137.136 64.9536 137.568 64.9536 138.08C64.9536 138.592 64.5376 139.008 64.0256 139.008ZM64.7136 148H63.3216V140H64.7136V148Z" fill="#3A3A3A"/>
<mask id="path-34-inside-11_526_16007" fill="white">
<path d="M0 160H200V192H0V160Z"/>
</mask>
<path d="M0 160V159H-1V160H0ZM0 192H-1V193H0V192ZM0 161H200V159H0V161ZM200 191H0V193H200V191ZM1 192V160H-1V192H1Z" fill="#3A3A3A" mask="url(#path-34-inside-11_526_16007)"/>
<path d="M16.16 177.152V168.8H17.648V180H16.448L10.688 171.632V180H9.2V168.8H10.4L16.16 177.152ZM24.4758 171.088C23.0038 171.088 22.0918 170.288 22.0918 168.928H23.3878C23.3878 169.616 23.7558 169.968 24.4758 169.968C25.1958 169.968 25.5638 169.616 25.5638 168.928H26.8598C26.8598 170.288 25.9638 171.088 24.4758 171.088ZM26.5238 173.376V172H27.9158V180H26.5238V178.624C25.8358 179.68 24.8278 180.208 23.4998 180.208C22.3798 180.208 21.4198 179.808 20.6358 178.992C19.8518 178.176 19.4518 177.168 19.4518 176C19.4518 174.832 19.8518 173.84 20.6358 173.024C21.4198 172.208 22.3798 171.792 23.4998 171.792C24.8278 171.792 25.8358 172.32 26.5238 173.376ZM23.6758 178.864C24.4918 178.864 25.1638 178.592 25.7078 178.048C26.2518 177.488 26.5238 176.816 26.5238 176C26.5238 175.184 26.2518 174.512 25.7078 173.968C25.1638 173.408 24.4918 173.136 23.6758 173.136C22.8758 173.136 22.2038 173.408 21.6598 173.968C21.1158 174.512 20.8438 175.184 20.8438 176C20.8438 176.816 21.1158 177.488 21.6598 178.048C22.2038 178.592 22.8758 178.864 23.6758 178.864ZM38.6648 171.792C40.4568 171.792 41.6728 173.04 41.6728 175.024V180H40.2808V175.072C40.2808 173.84 39.5928 173.12 38.5208 173.12C37.3208 173.12 36.5528 173.904 36.5528 175.552V180H35.1608V175.072C35.1608 173.84 34.5048 173.12 33.4648 173.12C32.2968 173.12 31.4168 173.936 31.4168 175.552V180H30.0247V172H31.4168V173.072C31.9608 172.224 32.7608 171.792 33.8008 171.792C34.8728 171.792 35.6568 172.24 36.1528 173.152C36.7128 172.24 37.5448 171.792 38.6648 171.792ZM52.0189 171.792C53.1389 171.792 54.0989 172.208 54.8829 173.024C55.6669 173.84 56.0669 174.832 56.0669 176C56.0669 177.168 55.6669 178.176 54.8829 178.992C54.0989 179.808 53.1389 180.208 52.0189 180.208C50.6909 180.208 49.6829 179.68 48.9949 178.624V183.2H47.6029V172H48.9949V173.376C49.6829 172.32 50.6909 171.792 52.0189 171.792ZM51.8429 178.864C52.6429 178.864 53.3149 178.592 53.8589 178.048C54.4029 177.488 54.6749 176.816 54.6749 176C54.6749 175.184 54.4029 174.512 53.8589 173.968C53.3149 173.408 52.6429 173.136 51.8429 173.136C51.0269 173.136 50.3549 173.408 49.8109 173.968C49.2669 174.512 48.9949 175.184 48.9949 176C48.9949 176.816 49.2669 177.488 49.8109 178.048C50.3549 178.592 51.0269 178.864 51.8429 178.864ZM61.7119 171.792C63.5839 171.792 64.8159 173.056 64.8159 175.088V180H63.4239V175.168C63.4239 173.872 62.6719 173.12 61.4399 173.12C60.0479 173.12 59.1199 173.968 59.1199 175.76V180H57.7279V168.8H59.1199V173.152C59.6799 172.24 60.5439 171.792 61.7119 171.792ZM71.5431 168.8H73.2231L71.6071 170.912H70.2631L71.5431 168.8ZM73.3831 173.376V172H74.7751V180H73.3831V178.624C72.6951 179.68 71.6871 180.208 70.3591 180.208C69.2391 180.208 68.2791 179.808 67.4951 178.992C66.7111 178.176 66.3111 177.168 66.3111 176C66.3111 174.832 66.7111 173.84 67.4951 173.024C68.2791 172.208 69.2391 171.792 70.3591 171.792C71.6871 171.792 72.6951 172.32 73.3831 173.376ZM70.5351 178.864C71.3511 178.864 72.0231 178.592 72.5671 178.048C73.1111 177.488 73.3831 176.816 73.3831 176C73.3831 175.184 73.1111 174.512 72.5671 173.968C72.0231 173.408 71.3511 173.136 70.5351 173.136C69.7351 173.136 69.0631 173.408 68.5191 173.968C67.9751 174.512 67.7031 175.184 67.7031 176C67.7031 176.816 67.9751 177.488 68.5191 178.048C69.0631 178.592 69.7351 178.864 70.5351 178.864ZM81.2361 172V173.344H79.1081V177.68C79.1081 178.912 79.8121 178.816 81.2361 178.752V180C78.8041 180.32 77.7161 179.664 77.7161 177.68V173.344H76.1321V172H77.7161V170.176L79.1081 169.76V172H81.2361ZM90.915 171.792C92.787 171.792 94.019 173.056 94.019 175.088V180H92.627V175.168C92.627 173.872 91.875 173.12 90.643 173.12C89.251 173.12 88.323 173.968 88.323 175.76V180H86.931V168.8H88.323V173.152C88.883 172.24 89.747 171.792 90.915 171.792ZM100.298 168.8L101.578 170.912H100.234L98.6183 168.8H100.298ZM102.586 173.376V172H103.978V180H102.586V178.624C101.898 179.68 100.89 180.208 99.5623 180.208C98.4423 180.208 97.4823 179.808 96.6983 178.992C95.9143 178.176 95.5143 177.168 95.5143 176C95.5143 174.832 95.9143 173.84 96.6983 173.024C97.4823 172.208 98.4423 171.792 99.5623 171.792C100.89 171.792 101.898 172.32 102.586 173.376ZM99.7383 178.864C100.554 178.864 101.226 178.592 101.77 178.048C102.314 177.488 102.586 176.816 102.586 176C102.586 175.184 102.314 174.512 101.77 173.968C101.226 173.408 100.554 173.136 99.7383 173.136C98.9383 173.136 98.2663 173.408 97.7223 173.968C97.1783 174.512 96.9062 175.184 96.9062 176C96.9062 176.816 97.1783 177.488 97.7223 178.048C98.2663 178.592 98.9383 178.864 99.7383 178.864ZM110.071 171.792C111.943 171.792 113.175 173.056 113.175 175.088V180H111.783V175.168C111.783 173.872 111.031 173.12 109.799 173.12C108.407 173.12 107.479 173.968 107.479 175.76V180H106.087V172H107.479V173.152C108.039 172.24 108.903 171.792 110.071 171.792ZM119.103 171.792C120.975 171.792 122.207 173.056 122.207 175.088V180H120.815V175.168C120.815 173.872 120.063 173.12 118.831 173.12C117.439 173.12 116.511 173.968 116.511 175.76V180H115.118V168.8H116.511V173.152C117.071 172.24 117.935 171.792 119.103 171.792Z" fill="#3A3A3A"/>
</svg>
