<svg width="867" height="72" viewBox="0 0 867 72" fill="none" xmlns="http://www.w3.org/2000/svg">
<path d="M52 20.8695L812 20.8696" stroke="#E6E6E6" stroke-width="8" stroke-linecap="round" stroke-linejoin="round"/>
<path d="M52 20.8695L432 20.8695" stroke="#FF414D" stroke-width="8" stroke-linecap="round" stroke-linejoin="round"/>
<path d="M6.31875 54.8H10.7188C12.2548 54.8 13.5347 55.344 14.5428 56.416C15.5668 57.488 16.0788 58.816 16.0788 60.4C16.0788 61.968 15.5668 63.296 14.5428 64.384C13.5347 65.456 12.2548 66 10.7188 66H6.31875V61.312H5.32675V59.76H6.31875V54.8ZM8.15875 64.24H10.7188C11.7748 64.24 12.6388 63.872 13.2948 63.152C13.9668 62.432 14.3028 61.504 14.3028 60.4C14.3028 59.28 13.9668 58.368 13.2948 57.648C12.6388 56.928 11.7748 56.56 10.7188 56.56H8.15875V59.76H10.7348V61.312H8.15875V64.24ZM21.8406 56.56C21.1366 56 20.8326 56.032 20.8326 56.928H19.4086C19.4086 54.592 20.8166 54.304 22.1126 55.168C22.8006 55.728 23.1046 55.696 23.1046 54.8H24.5286C24.5286 57.136 23.1526 57.44 21.8406 56.56ZM23.9846 59.136V58H25.7126V66H23.9846V64.848C23.3286 65.76 22.4006 66.208 21.1846 66.208C20.0806 66.208 19.1526 65.808 18.3686 64.992C17.5846 64.176 17.2006 63.168 17.2006 62C17.2006 60.816 17.5846 59.824 18.3686 59.008C19.1526 58.192 20.0806 57.792 21.1846 57.792C22.4006 57.792 23.3286 58.24 23.9846 59.136ZM19.6486 63.84C20.1286 64.32 20.7366 64.56 21.4566 64.56C22.1766 64.56 22.7846 64.32 23.2646 63.84C23.7446 63.344 23.9846 62.736 23.9846 62C23.9846 61.264 23.7446 60.656 23.2646 60.176C22.7846 59.68 22.1766 59.44 21.4566 59.44C20.7366 59.44 20.1286 59.68 19.6486 60.176C19.1686 60.656 18.9286 61.264 18.9286 62C18.9286 62.736 19.1686 63.344 19.6486 63.84ZM35.8868 61.904L38.8788 66H36.8788L34.8948 63.264L32.8948 66H30.8788L33.8868 61.888L31.0388 58H33.0388L34.8788 60.528L36.7188 58H38.7348L35.8868 61.904ZM44.8233 54.8H46.9033L45.2073 56.96H43.5433L44.8233 54.8ZM46.3753 59.136V58H48.1033V66H46.3753V64.848C45.7193 65.76 44.7913 66.208 43.5753 66.208C42.4713 66.208 41.5433 65.808 40.7593 64.992C39.9753 64.176 39.5913 63.168 39.5913 62C39.5913 60.816 39.9753 59.824 40.7593 59.008C41.5433 58.192 42.4713 57.792 43.5753 57.792C44.7913 57.792 45.7193 58.24 46.3753 59.136ZM42.0393 63.84C42.5193 64.32 43.1273 64.56 43.8473 64.56C44.5673 64.56 45.1753 64.32 45.6553 63.84C46.1353 63.344 46.3753 62.736 46.3753 62C46.3753 61.264 46.1353 60.656 45.6553 60.176C45.1753 59.68 44.5673 59.44 43.8473 59.44C43.1273 59.44 42.5193 59.68 42.0393 60.176C41.5593 60.656 41.3193 61.264 41.3193 62C41.3193 62.736 41.5593 63.344 42.0393 63.84ZM53.8934 66.208C52.6934 66.208 51.6854 65.808 50.8694 64.992C50.0694 64.176 49.6694 63.184 49.6694 62C49.6694 60.8 50.0694 59.808 50.8694 59.008C51.6854 58.192 52.6934 57.792 53.8934 57.792C55.4454 57.792 56.8214 58.592 57.4614 59.856L55.9734 60.72C55.6054 59.952 54.8374 59.488 53.8774 59.488C53.1734 59.488 52.5814 59.728 52.1014 60.208C51.6374 60.688 51.3974 61.28 51.3974 62C51.3974 62.72 51.6374 63.312 52.1014 63.792C52.5814 64.272 53.1734 64.512 53.8774 64.512C54.8214 64.512 55.6214 64.032 56.0054 63.28L57.4934 64.128C56.8054 65.408 55.4454 66.208 53.8934 66.208ZM66.9973 57.792C68.8373 57.792 70.0693 59.04 70.0693 61.088V66H68.3413V61.264C68.3413 60.064 67.6533 59.408 66.5493 59.408C65.3333 59.408 64.5173 60.16 64.5173 61.712V66H62.7893V58H64.5173V59.024C65.0453 58.208 65.8613 57.792 66.9973 57.792ZM76.1379 57.792C77.9779 57.792 79.2099 59.04 79.2099 61.088V66H77.4819V61.264C77.4819 60.064 76.7939 59.408 75.6899 59.408C74.4739 59.408 73.6579 60.16 73.6579 61.712V66H71.9299V54.8H73.6579V59.024C74.1859 58.208 75.0019 57.792 76.1379 57.792ZM86.2225 57.04L85.4385 55.936L84.6545 57.04H83.0225L84.5905 54.96H86.2705L87.8545 57.04H86.2225ZM87.4065 59.136V58H89.1345V66H87.4065V64.848C86.7505 65.76 85.8225 66.208 84.6065 66.208C83.5025 66.208 82.5745 65.808 81.7905 64.992C81.0065 64.176 80.6225 63.168 80.6225 62C80.6225 60.816 81.0065 59.824 81.7905 59.008C82.5745 58.192 83.5025 57.792 84.6065 57.792C85.8225 57.792 86.7505 58.24 87.4065 59.136ZM83.0705 63.84C83.5505 64.32 84.1585 64.56 84.8785 64.56C85.5985 64.56 86.2065 64.32 86.6865 63.84C87.1665 63.344 87.4065 62.736 87.4065 62C87.4065 61.264 87.1665 60.656 86.6865 60.176C86.2065 59.68 85.5985 59.44 84.8785 59.44C84.1585 59.44 83.5505 59.68 83.0705 60.176C82.5905 60.656 82.3505 61.264 82.3505 62C82.3505 62.736 82.5905 63.344 83.0705 63.84ZM85.6145 69.2C85.1825 69.616 84.5425 69.616 84.0945 69.2C83.6785 68.752 83.6785 68.112 84.0945 67.68C84.5265 67.248 85.1985 67.248 85.6305 67.68C86.0465 68.112 86.0465 68.752 85.6145 69.2ZM95.3566 57.792C97.1966 57.792 98.4286 59.04 98.4286 61.088V66H96.7006V61.264C96.7006 60.064 96.0126 59.408 94.9086 59.408C93.6926 59.408 92.8766 60.16 92.8766 61.712V66H91.1486V58H92.8766V59.024C93.4046 58.208 94.2206 57.792 95.3566 57.792Z" fill="#FF414D"/>
<path d="M268.741 54.8H273.141C274.677 54.8 275.957 55.344 276.965 56.416C277.989 57.488 278.501 58.816 278.501 60.4C278.501 61.968 277.989 63.296 276.965 64.384C275.957 65.456 274.677 66 273.141 66H268.741V61.312H267.749V59.76H268.741V54.8ZM270.581 64.24H273.141C274.197 64.24 275.061 63.872 275.717 63.152C276.389 62.432 276.725 61.504 276.725 60.4C276.725 59.28 276.389 58.368 275.717 57.648C275.061 56.928 274.197 56.56 273.141 56.56H270.581V59.76H273.157V61.312H270.581V64.24ZM286.407 59.136V58H288.135V66H286.407V64.848C285.751 65.76 284.823 66.208 283.607 66.208C282.503 66.208 281.575 65.808 280.791 64.992C280.007 64.176 279.623 63.168 279.623 62C279.623 60.816 280.007 59.824 280.791 59.008C281.575 58.192 282.503 57.792 283.607 57.792C284.823 57.792 285.751 58.24 286.407 59.136ZM282.071 63.84C282.551 64.32 283.159 64.56 283.879 64.56C284.599 64.56 285.207 64.32 285.687 63.84C286.167 63.344 286.407 62.736 286.407 62C286.407 61.264 286.167 60.656 285.687 60.176C285.207 59.68 284.599 59.44 283.879 59.44C283.159 59.44 282.551 59.68 282.071 60.176C281.591 60.656 281.351 61.264 281.351 62C281.351 62.736 281.591 63.344 282.071 63.84ZM294.357 57.792C296.197 57.792 297.429 59.04 297.429 61.088V66H295.701V61.264C295.701 60.064 295.013 59.408 293.909 59.408C292.693 59.408 291.877 60.16 291.877 61.712V66H290.149V58H291.877V59.024C292.405 58.208 293.221 57.792 294.357 57.792ZM305.657 59.184V58H307.353V65.632C307.353 66.848 306.953 67.776 306.153 68.432C305.353 69.088 304.377 69.408 303.241 69.408C301.401 69.408 300.137 68.768 299.449 67.472L300.937 66.608C301.353 67.424 302.137 67.84 303.273 67.84C304.761 67.84 305.657 67.024 305.657 65.632V64.656C305.001 65.584 304.073 66.048 302.873 66.048C301.737 66.048 300.793 65.648 300.009 64.848C299.225 64.032 298.841 63.056 298.841 61.92C298.841 60.784 299.225 59.808 300.009 59.008C300.793 58.192 301.737 57.792 302.873 57.792C304.073 57.792 305.001 58.256 305.657 59.184ZM301.289 63.712C301.785 64.192 302.393 64.432 303.113 64.432C303.833 64.432 304.441 64.192 304.921 63.712C305.417 63.232 305.657 62.64 305.657 61.92C305.657 61.2 305.417 60.608 304.921 60.128C304.441 59.648 303.833 59.408 303.113 59.408C302.393 59.408 301.785 59.648 301.289 60.128C300.809 60.608 300.569 61.2 300.569 61.92C300.569 62.64 300.809 63.232 301.289 63.712ZM317.527 61.904L320.519 66H318.519L316.535 63.264L314.535 66H312.519L315.527 61.888L312.679 58H314.679L316.519 60.528L318.359 58H320.375L317.527 61.904ZM325.84 57.04H324.656C324.656 56.288 324.752 56.112 325.152 55.792C325.152 55.792 325.36 55.664 325.344 55.68C325.424 55.632 325.584 55.552 325.584 55.328C325.584 55.2 325.504 55.12 325.264 55.12C324.992 55.12 324.688 55.232 324.56 55.632L323.504 55.184C323.84 54.4 324.416 54.016 325.264 54.016C326.128 54.016 326.768 54.48 326.768 55.312C326.768 55.936 326.416 56.304 326.096 56.48C325.904 56.576 325.792 56.656 325.84 57.04ZM327.072 62.288V58H328.096C328.688 58 328.784 57.744 328.784 57.136V56.864H330.24V57.136C330.24 58.4 329.856 59.04 328.8 59.216V66H327.072V64.976C326.544 65.792 325.728 66.208 324.592 66.208C322.752 66.208 321.52 64.96 321.52 62.912V58H323.248V62.736C323.248 63.936 323.936 64.592 325.04 64.592C326.256 64.592 327.072 63.84 327.072 62.288ZM336.549 66H334.821V54.32H336.549V66ZM342.155 54.8H344.235L342.539 56.96H340.875L342.155 54.8ZM341.899 63.808L343.947 58H345.787L342.715 66.256C341.947 68.32 340.651 69.312 338.811 69.2V67.584C339.899 67.648 340.507 67.12 340.939 66.016L341.019 65.856L337.627 58H339.515L341.899 63.808Z" fill="#FF414D"/>
<path d="M497.163 54.8H501.531C503.051 54.8 504.315 55.344 505.323 56.432C506.331 57.504 506.843 58.832 506.843 60.4C506.843 61.968 506.331 63.296 505.323 64.384C504.315 65.456 503.051 66 501.531 66H497.163V61.184H496.155V59.904H497.163V54.8ZM498.651 64.592H501.531C502.667 64.592 503.611 64.192 504.331 63.392C505.051 62.592 505.419 61.6 505.419 60.4C505.419 59.2 505.051 58.208 504.331 57.408C503.611 56.608 502.667 56.208 501.531 56.208H498.651V59.904H501.467V61.184H498.651V64.592ZM515.133 59.376V58H516.525V66H515.133V64.624C514.445 65.68 513.437 66.208 512.109 66.208C510.989 66.208 510.029 65.808 509.245 64.992C508.461 64.176 508.061 63.168 508.061 62C508.061 60.832 508.461 59.84 509.245 59.024C510.029 58.208 510.989 57.792 512.109 57.792C513.437 57.792 514.445 58.32 515.133 59.376ZM512.285 64.864C513.101 64.864 513.773 64.592 514.317 64.048C514.861 63.488 515.133 62.816 515.133 62C515.133 61.184 514.861 60.512 514.317 59.968C513.773 59.408 513.101 59.136 512.285 59.136C511.485 59.136 510.813 59.408 510.269 59.968C509.725 60.512 509.453 61.184 509.453 62C509.453 62.816 509.725 63.488 510.269 64.048C510.813 64.592 511.485 64.864 512.285 64.864ZM522.618 57.792C524.49 57.792 525.722 59.056 525.722 61.088V66H524.33V61.168C524.33 59.872 523.578 59.12 522.346 59.12C520.954 59.12 520.026 59.968 520.026 61.76V66H518.634V58H520.026V59.152C520.586 58.24 521.45 57.792 522.618 57.792ZM534.305 59.376V58H535.681V65.664C535.681 66.848 535.281 67.76 534.481 68.416C533.681 69.072 532.721 69.408 531.601 69.408C529.809 69.408 528.465 68.72 527.809 67.456L529.025 66.768C529.457 67.664 530.337 68.112 531.633 68.112C533.297 68.112 534.305 67.184 534.305 65.664V64.528C533.601 65.6 532.593 66.128 531.297 66.128C530.161 66.128 529.185 65.728 528.401 64.912C527.617 64.096 527.217 63.12 527.217 61.952C527.217 60.784 527.617 59.808 528.401 59.008C529.185 58.192 530.161 57.792 531.297 57.792C532.609 57.792 533.617 58.32 534.305 59.376ZM534.305 61.952C534.305 61.152 534.033 60.48 533.489 59.936C532.945 59.392 532.273 59.12 531.457 59.12C530.641 59.12 529.969 59.392 529.425 59.936C528.881 60.48 528.609 61.152 528.609 61.952C528.609 62.768 528.881 63.44 529.425 63.984C529.969 64.528 530.641 64.8 531.457 64.8C532.273 64.8 532.945 64.528 533.489 63.984C534.033 63.44 534.305 62.768 534.305 61.952ZM548.43 59.376V58H549.806V65.664C549.806 66.848 549.406 67.76 548.606 68.416C547.806 69.072 546.846 69.408 545.726 69.408C543.934 69.408 542.59 68.72 541.934 67.456L543.15 66.768C543.582 67.664 544.462 68.112 545.758 68.112C547.422 68.112 548.43 67.184 548.43 65.664V64.528C547.726 65.6 546.718 66.128 545.422 66.128C544.286 66.128 543.31 65.728 542.526 64.912C541.742 64.096 541.342 63.12 541.342 61.952C541.342 60.784 541.742 59.808 542.526 59.008C543.31 58.192 544.286 57.792 545.422 57.792C546.734 57.792 547.742 58.32 548.43 59.376ZM548.43 61.952C548.43 61.152 548.158 60.48 547.614 59.936C547.07 59.392 546.398 59.12 545.582 59.12C544.766 59.12 544.094 59.392 543.55 59.936C543.006 60.48 542.734 61.152 542.734 61.952C542.734 62.768 543.006 63.44 543.55 63.984C544.094 64.528 544.766 64.8 545.582 64.8C546.398 64.8 547.07 64.528 547.614 63.984C548.158 63.44 548.43 62.768 548.43 61.952ZM552.619 57.008C552.091 57.008 551.675 56.592 551.675 56.08C551.675 55.568 552.091 55.136 552.619 55.136C553.131 55.136 553.547 55.568 553.547 56.08C553.547 56.592 553.131 57.008 552.619 57.008ZM553.307 66H551.915V58H553.307V66ZM562.055 59.376V58H563.447V66H562.055V64.624C561.367 65.68 560.359 66.208 559.031 66.208C557.911 66.208 556.951 65.808 556.167 64.992C555.383 64.176 554.983 63.168 554.983 62C554.983 60.832 555.383 59.84 556.167 59.024C556.951 58.208 557.911 57.792 559.031 57.792C560.359 57.792 561.367 58.32 562.055 59.376ZM559.207 64.864C560.023 64.864 560.695 64.592 561.239 64.048C561.783 63.488 562.055 62.816 562.055 62C562.055 61.184 561.783 60.512 561.239 59.968C560.695 59.408 560.023 59.136 559.207 59.136C558.407 59.136 557.735 59.408 557.191 59.968C556.647 60.512 556.375 61.184 556.375 62C556.375 62.816 556.647 63.488 557.191 64.048C557.735 64.592 558.407 64.864 559.207 64.864ZM572.308 64.992C571.492 65.808 570.484 66.208 569.316 66.208C568.148 66.208 567.14 65.808 566.324 64.992C565.508 64.176 565.108 63.184 565.108 62C565.108 60.816 565.508 59.824 566.324 59.008C567.14 58.192 568.148 57.792 569.316 57.792C570.484 57.792 571.492 58.192 572.308 59.008C573.124 59.824 573.54 60.816 573.54 62C573.54 63.184 573.124 64.176 572.308 64.992ZM569.316 64.848C570.116 64.848 570.788 64.576 571.332 64.032C571.876 63.488 572.148 62.816 572.148 62C572.148 61.184 571.876 60.512 571.332 59.968C570.788 59.424 570.116 59.152 569.316 59.152C568.532 59.152 567.86 59.424 567.316 59.968C566.772 60.512 566.5 61.184 566.5 62C566.5 62.816 566.772 63.488 567.316 64.032C567.86 64.576 568.532 64.848 569.316 64.848ZM583.165 57.792C585.037 57.792 586.269 59.056 586.269 61.088V66H584.877V61.168C584.877 59.872 584.125 59.12 582.893 59.12C581.501 59.12 580.573 59.968 580.573 61.76V66H579.181V54.8H580.573V59.152C581.133 58.24 581.997 57.792 583.165 57.792ZM592.548 54.8L593.828 56.912H592.484L590.868 54.8H592.548ZM594.836 59.376V58H596.228V66H594.836V64.624C594.148 65.68 593.14 66.208 591.812 66.208C590.692 66.208 589.732 65.808 588.948 64.992C588.164 64.176 587.764 63.168 587.764 62C587.764 60.832 588.164 59.84 588.948 59.024C589.732 58.208 590.692 57.792 591.812 57.792C593.14 57.792 594.148 58.32 594.836 59.376ZM591.988 64.864C592.804 64.864 593.476 64.592 594.02 64.048C594.564 63.488 594.836 62.816 594.836 62C594.836 61.184 594.564 60.512 594.02 59.968C593.476 59.408 592.804 59.136 591.988 59.136C591.188 59.136 590.516 59.408 589.972 59.968C589.428 60.512 589.156 61.184 589.156 62C589.156 62.816 589.428 63.488 589.972 64.048C590.516 64.592 591.188 64.864 591.988 64.864ZM602.321 57.792C604.193 57.792 605.425 59.056 605.425 61.088V66H604.033V61.168C604.033 59.872 603.281 59.12 602.049 59.12C600.657 59.12 599.729 59.968 599.729 61.76V66H598.337V58H599.729V59.152C600.289 58.24 601.153 57.792 602.321 57.792ZM614.009 59.376V58H615.385V65.664C615.385 66.848 614.985 67.76 614.185 68.416C613.385 69.072 612.425 69.408 611.305 69.408C609.513 69.408 608.169 68.72 607.513 67.456L608.729 66.768C609.161 67.664 610.041 68.112 611.337 68.112C613.001 68.112 614.009 67.184 614.009 65.664V64.528C613.305 65.6 612.297 66.128 611.001 66.128C609.865 66.128 608.889 65.728 608.105 64.912C607.321 64.096 606.921 63.12 606.921 61.952C606.921 60.784 607.321 59.808 608.105 59.008C608.889 58.192 609.865 57.792 611.001 57.792C612.313 57.792 613.321 58.32 614.009 59.376ZM614.009 61.952C614.009 61.152 613.737 60.48 613.193 59.936C612.649 59.392 611.977 59.12 611.161 59.12C610.345 59.12 609.673 59.392 609.129 59.936C608.585 60.48 608.312 61.152 608.312 61.952C608.312 62.768 608.585 63.44 609.129 63.984C609.673 64.528 610.345 64.8 611.161 64.8C611.977 64.8 612.649 64.528 613.193 63.984C613.737 63.44 614.009 62.768 614.009 61.952Z" fill="#3A3A3A"/>
<path d="M777.206 59.552V54.8H778.678V66H777.206V60.96H771.766V66H770.278V54.8H771.766V59.552H777.206ZM787.683 64.992C786.867 65.808 785.859 66.208 784.691 66.208C783.523 66.208 782.515 65.808 781.699 64.992C780.883 64.176 780.483 63.184 780.483 62C780.483 60.816 780.883 59.824 781.699 59.008C782.515 58.192 783.523 57.792 784.691 57.792C785.859 57.792 786.867 58.192 787.683 59.008C788.499 59.824 788.915 60.816 788.915 62C788.915 63.184 788.499 64.176 787.683 64.992ZM784.691 64.848C785.491 64.848 786.163 64.576 786.707 64.032C787.251 63.488 787.523 62.816 787.523 62C787.523 61.184 787.251 60.512 786.707 59.968C786.163 59.424 785.491 59.152 784.691 59.152C783.907 59.152 783.235 59.424 782.691 59.968C782.147 60.512 781.875 61.184 781.875 62C781.875 62.816 782.147 63.488 782.691 64.032C783.235 64.576 783.907 64.848 784.691 64.848ZM794.892 54.8L796.172 56.912H794.828L793.212 54.8H794.892ZM797.18 59.376V58H798.572V66H797.18V64.624C796.492 65.68 795.484 66.208 794.156 66.208C793.036 66.208 792.076 65.808 791.292 64.992C790.508 64.176 790.108 63.168 790.108 62C790.108 60.832 790.508 59.84 791.292 59.024C792.076 58.208 793.036 57.792 794.156 57.792C795.484 57.792 796.492 58.32 797.18 59.376ZM794.332 64.864C795.148 64.864 795.82 64.592 796.364 64.048C796.908 63.488 797.18 62.816 797.18 62C797.18 61.184 796.908 60.512 796.364 59.968C795.82 59.408 795.148 59.136 794.332 59.136C793.532 59.136 792.86 59.408 792.316 59.968C791.772 60.512 791.5 61.184 791.5 62C791.5 62.816 791.772 63.488 792.316 64.048C792.86 64.592 793.532 64.864 794.332 64.864ZM804.665 57.792C806.537 57.792 807.769 59.056 807.769 61.088V66H806.377V61.168C806.377 59.872 805.625 59.12 804.393 59.12C803.001 59.12 802.073 59.968 802.073 61.76V66H800.681V58H802.073V59.152C802.633 58.24 803.497 57.792 804.665 57.792ZM818.064 58V59.344H815.936V63.68C815.936 64.912 816.64 64.816 818.064 64.752V66C815.632 66.32 814.544 65.664 814.544 63.68V59.344H812.96V58H814.544V56.176L815.936 55.76V58H818.064ZM823.743 57.792C825.615 57.792 826.847 59.056 826.847 61.088V66H825.455V61.168C825.455 59.872 824.703 59.12 823.471 59.12C822.079 59.12 821.151 59.968 821.151 61.76V66H819.759V54.8H821.151V59.152C821.711 58.24 822.575 57.792 823.743 57.792ZM833.126 54.8L834.406 56.912H833.062L831.446 54.8H833.126ZM835.414 59.376V58H836.806V66H835.414V64.624C834.726 65.68 833.718 66.208 832.39 66.208C831.27 66.208 830.31 65.808 829.526 64.992C828.742 64.176 828.342 63.168 828.342 62C828.342 60.832 828.742 59.84 829.526 59.024C830.31 58.208 831.27 57.792 832.39 57.792C833.718 57.792 834.726 58.32 835.414 59.376ZM832.566 64.864C833.382 64.864 834.054 64.592 834.598 64.048C835.142 63.488 835.414 62.816 835.414 62C835.414 61.184 835.142 60.512 834.598 59.968C834.054 59.408 833.382 59.136 832.566 59.136C831.766 59.136 831.094 59.408 830.55 59.968C830.006 60.512 829.734 61.184 829.734 62C829.734 62.816 830.006 63.488 830.55 64.048C831.094 64.592 831.766 64.864 832.566 64.864ZM842.899 57.792C844.771 57.792 846.003 59.056 846.003 61.088V66H844.611V61.168C844.611 59.872 843.859 59.12 842.627 59.12C841.235 59.12 840.307 59.968 840.307 61.76V66H838.915V58H840.307V59.152C840.867 58.24 841.731 57.792 842.899 57.792ZM851.931 57.792C853.803 57.792 855.035 59.056 855.035 61.088V66H853.643V61.168C853.643 59.872 852.891 59.12 851.659 59.12C850.267 59.12 849.339 59.968 849.339 61.76V66H847.947V54.8H849.339V59.152C849.899 58.24 850.763 57.792 851.931 57.792Z" fill="#3A3A3A"/>
<circle cx="52" cy="20.8695" r="20" fill="#FF414D"/>
<path d="M58.6673 16.7029L49.5007 25.8695L45.334 21.7029" stroke="white" stroke-width="2" stroke-linecap="round" stroke-linejoin="round"/>
<circle cx="305.334" cy="20.8695" r="20" fill="#FF414D"/>
<path d="M304.402 23.4935C303.65 24.5495 302.578 25.0775 301.218 25.0775C299.858 25.0775 298.786 24.5495 298.034 23.4935C297.282 22.4375 296.898 21.0295 296.898 19.2695C296.898 17.5095 297.282 16.1015 298.034 15.0455C298.786 13.9895 299.858 13.4615 301.218 13.4615C302.578 13.4615 303.65 13.9895 304.402 15.0455C305.154 16.1015 305.538 17.5095 305.538 19.2695C305.538 21.0295 305.154 22.4375 304.402 23.4935ZM298.386 19.2695C298.386 22.0375 299.41 23.6215 301.218 23.6215C303.026 23.6215 304.066 22.0375 304.066 19.2695C304.066 16.5015 303.026 14.9015 301.218 14.9015C299.41 14.9015 298.386 16.4695 298.386 19.2695ZM313.861 24.8695H306.629V23.6535L310.581 19.6215C311.637 18.5655 312.165 17.6535 312.165 16.9015C312.165 15.6375 311.285 14.9015 310.181 14.9015C309.125 14.9015 308.357 15.3975 307.877 16.4055L306.629 15.6695C307.333 14.2135 308.645 13.4615 310.165 13.4615C311.109 13.4615 311.925 13.7655 312.613 14.3895C313.301 15.0135 313.653 15.8455 313.653 16.8855C313.653 18.0215 312.981 19.2535 311.653 20.5815L308.789 23.4295H313.861V24.8695Z" fill="white"/>
<circle cx="558.666" cy="20.8695" r="20" fill="white" stroke="#FF414D" stroke-linecap="round" stroke-linejoin="round" stroke-dasharray="6 4"/>
<path d="M557.757 23.4935C557.005 24.5495 555.933 25.0775 554.573 25.0775C553.213 25.0775 552.141 24.5495 551.389 23.4935C550.637 22.4375 550.253 21.0295 550.253 19.2695C550.253 17.5095 550.637 16.1015 551.389 15.0455C552.141 13.9895 553.213 13.4615 554.573 13.4615C555.933 13.4615 557.005 13.9895 557.757 15.0455C558.509 16.1015 558.893 17.5095 558.893 19.2695C558.893 21.0295 558.509 22.4375 557.757 23.4935ZM551.741 19.2695C551.741 22.0375 552.765 23.6215 554.573 23.6215C556.381 23.6215 557.421 22.0375 557.421 19.2695C557.421 16.5015 556.381 14.9015 554.573 14.9015C552.765 14.9015 551.741 16.4695 551.741 19.2695ZM566.724 14.9815L564.292 18.2615C566.004 18.5815 567.204 19.7815 567.204 21.5575C567.204 22.6455 566.836 23.5095 566.084 24.1335C565.332 24.7575 564.436 25.0775 563.364 25.0775C561.652 25.0775 560.244 24.2775 559.684 22.8055L560.932 22.0695C561.268 23.1095 562.068 23.6215 563.364 23.6215C564.756 23.6215 565.716 22.8535 565.716 21.5575C565.716 20.2615 564.756 19.4775 563.364 19.4775H562.98L562.388 18.5655L564.98 15.0615H560.004V13.6695H566.724V14.9815Z" fill="#FF414D"/>
<circle cx="812" cy="20.8695" r="20" fill="white" stroke="#FF414D" stroke-linecap="round" stroke-linejoin="round" stroke-dasharray="6 4"/>
<path d="M810.544 23.4935C809.792 24.5495 808.72 25.0775 807.36 25.0775C806 25.0775 804.928 24.5495 804.176 23.4935C803.424 22.4375 803.04 21.0295 803.04 19.2695C803.04 17.5095 803.424 16.1015 804.176 15.0455C804.928 13.9895 806 13.4615 807.36 13.4615C808.72 13.4615 809.792 13.9895 810.544 15.0455C811.296 16.1015 811.68 17.5095 811.68 19.2695C811.68 21.0295 811.296 22.4375 810.544 23.4935ZM804.528 19.2695C804.528 22.0375 805.552 23.6215 807.36 23.6215C809.168 23.6215 810.208 22.0375 810.208 19.2695C810.208 16.5015 809.168 14.9015 807.36 14.9015C805.552 14.9015 804.528 16.4695 804.528 19.2695ZM819.982 21.3495H821.342V22.7415H819.982V24.8695H818.494V22.7415H812.782V21.3495L816.798 13.6695H818.398L814.382 21.3495H818.494V18.1815H819.982V21.3495Z" fill="#FF414D"/>
</svg>
