<svg width="507" height="136" viewBox="0 0 507 136" fill="none" xmlns="http://www.w3.org/2000/svg">
<path d="M12 2L15.09 8.26L22 9.27L17 14.14L18.18 21.02L12 17.77L5.82 21.02L7 14.14L2 9.27L8.91 8.26L12 2Z" fill="#FFDD55"/>
<path d="M36 2L39.09 8.26L46 9.27L41 14.14L42.18 21.02L36 17.77L29.82 21.02L31 14.14L26 9.27L32.91 8.26L36 2Z" fill="#FFDD55"/>
<path d="M60 2L63.09 8.26L70 9.27L65 14.14L66.18 21.02L60 17.77L53.82 21.02L55 14.14L50 9.27L56.91 8.26L60 2Z" fill="#FFDD55"/>
<path d="M84 2L87.09 8.26L94 9.27L89 14.14L90.18 21.02L84 17.77L77.82 21.02L79 14.14L74 9.27L80.91 8.26L84 2Z" fill="#FFDD55"/>
<path d="M108 2L111.09 8.26L118 9.27L113 14.14L114.18 21.02L108 17.77L101.82 21.02L103 14.14L98 9.27L104.91 8.26L108 2Z" fill="#FFDD55"/>
<path d="M12 30L15.09 36.26L22 37.27L17 42.14L18.18 49.02L12 45.77L5.82 49.02L7 42.14L2 37.27L8.91 36.26L12 30Z" fill="#FFDD55"/>
<path d="M36 30L39.09 36.26L46 37.27L41 42.14L42.18 49.02L36 45.77L29.82 49.02L31 42.14L26 37.27L32.91 36.26L36 30Z" fill="#FFDD55"/>
<path d="M60 30L63.09 36.26L70 37.27L65 42.14L66.18 49.02L60 45.77L53.82 49.02L55 42.14L50 37.27L56.91 36.26L60 30Z" fill="#FFDD55"/>
<path d="M84 30L87.09 36.26L94 37.27L89 42.14L90.18 49.02L84 45.77L77.82 49.02L79 42.14L74 37.27L80.91 36.26L84 30Z" fill="#FFDD55"/>
<path d="M108 30L111.09 36.26L118 37.27L113 42.14L114.18 49.02L108 45.77L101.82 49.02L103 42.14L98 37.27L104.91 36.26L108 30Z" stroke="#FFDD55" stroke-linecap="round" stroke-linejoin="round"/>
<path d="M12 58L15.09 64.26L22 65.27L17 70.14L18.18 77.02L12 73.77L5.82 77.02L7 70.14L2 65.27L8.91 64.26L12 58Z" fill="#FFDD55"/>
<path d="M36 58L39.09 64.26L46 65.27L41 70.14L42.18 77.02L36 73.77L29.82 77.02L31 70.14L26 65.27L32.91 64.26L36 58Z" fill="#FFDD55"/>
<path d="M60 58L63.09 64.26L70 65.27L65 70.14L66.18 77.02L60 73.77L53.82 77.02L55 70.14L50 65.27L56.91 64.26L60 58Z" fill="#FFDD55"/>
<path d="M84 58L87.09 64.26L94 65.27L89 70.14L90.18 77.02L84 73.77L77.82 77.02L79 70.14L74 65.27L80.91 64.26L84 58Z" stroke="#FFDD55" stroke-linecap="round" stroke-linejoin="round"/>
<path d="M108 58L111.09 64.26L118 65.27L113 70.14L114.18 77.02L108 73.77L101.82 77.02L103 70.14L98 65.27L104.91 64.26L108 58Z" stroke="#FFDD55" stroke-linecap="round" stroke-linejoin="round"/>
<path d="M12 86L15.09 92.26L22 93.27L17 98.14L18.18 105.02L12 101.77L5.82 105.02L7 98.14L2 93.27L8.91 92.26L12 86Z" fill="#FFDD55"/>
<path d="M36 86L39.09 92.26L46 93.27L41 98.14L42.18 105.02L36 101.77L29.82 105.02L31 98.14L26 93.27L32.91 92.26L36 86Z" fill="#FFDD55"/>
<path d="M60 86L63.09 92.26L70 93.27L65 98.14L66.18 105.02L60 101.77L53.82 105.02L55 98.14L50 93.27L56.91 92.26L60 86Z" stroke="#FFDD55" stroke-linecap="round" stroke-linejoin="round"/>
<path d="M84 86L87.09 92.26L94 93.27L89 98.14L90.18 105.02L84 101.77L77.82 105.02L79 98.14L74 93.27L80.91 92.26L84 86Z" stroke="#FFDD55" stroke-linecap="round" stroke-linejoin="round"/>
<path d="M108 86L111.09 92.26L118 93.27L113 98.14L114.18 105.02L108 101.77L101.82 105.02L103 98.14L98 93.27L104.91 92.26L108 86Z" stroke="#FFDD55" stroke-linecap="round" stroke-linejoin="round"/>
<path d="M12 114L15.09 120.26L22 121.27L17 126.14L18.18 133.02L12 129.77L5.82 133.02L7 126.14L2 121.27L8.91 120.26L12 114Z" fill="#FFDD55"/>
<path d="M36 114L39.09 120.26L46 121.27L41 126.14L42.18 133.02L36 129.77L29.82 133.02L31 126.14L26 121.27L32.91 120.26L36 114Z" stroke="#FFDD55" stroke-linecap="round" stroke-linejoin="round"/>
<path d="M60 114L63.09 120.26L70 121.27L65 126.14L66.18 133.02L60 129.77L53.82 133.02L55 126.14L50 121.27L56.91 120.26L60 114Z" stroke="#FFDD55" stroke-linecap="round" stroke-linejoin="round"/>
<path d="M84 114L87.09 120.26L94 121.27L89 126.14L90.18 133.02L84 129.77L77.82 133.02L79 126.14L74 121.27L80.91 120.26L84 114Z" stroke="#FFDD55" stroke-linecap="round" stroke-linejoin="round"/>
<path d="M108 114L111.09 120.26L118 121.27L113 126.14L114.18 133.02L108 129.77L101.82 133.02L103 126.14L98 121.27L104.91 120.26L108 114Z" stroke="#FFDD55" stroke-linecap="round" stroke-linejoin="round"/>
<rect x="144.5" y="4.5" width="233" height="15" rx="3.5" fill="white" stroke="#D9D9D9"/>
<rect x="144" y="4" width="175.5" height="16" rx="4" fill="#FFDD55"/>
<rect x="144.5" y="32.5" width="233" height="15" rx="3.5" fill="white" stroke="#D9D9D9"/>
<rect x="144.5" y="60.5" width="233" height="15" rx="3.5" fill="white" stroke="#D9D9D9"/>
<rect x="144.5" y="88.5" width="233" height="15" rx="3.5" fill="white" stroke="#D9D9D9"/>
<rect x="144.5" y="116.5" width="233" height="15" rx="3.5" fill="white" stroke="#D9D9D9"/>
<rect x="144" y="32" width="48" height="16" rx="4" fill="#FFDD55"/>
<rect x="144" y="60" width="17" height="16" rx="4" fill="#FFDD55"/>
<path d="M450.528 10.208C451.616 10.768 452.272 11.728 452.272 12.928C452.272 13.952 451.92 14.752 451.2 15.344C450.48 15.92 449.568 16.208 448.432 16.208C447.312 16.208 446.4 15.92 445.68 15.344C444.96 14.752 444.608 13.952 444.608 12.928C444.608 11.728 445.264 10.768 446.352 10.208C445.44 9.632 444.976 8.816 444.976 7.76C444.976 6.752 445.312 5.968 445.984 5.424C446.672 4.864 447.488 4.592 448.432 4.592C449.392 4.592 450.208 4.864 450.88 5.424C451.568 5.968 451.904 6.752 451.904 7.76C451.904 8.816 451.44 9.632 450.528 10.208ZM448.432 6.016C447.296 6.016 446.448 6.624 446.448 7.792C446.448 8.928 447.328 9.584 448.432 9.584C449.536 9.584 450.416 8.928 450.416 7.792C450.416 6.624 449.584 6.016 448.432 6.016ZM448.432 14.784C449.856 14.784 450.8 14.096 450.8 12.832C450.8 11.6 449.856 10.896 448.432 10.896C447.024 10.896 446.08 11.6 446.08 12.832C446.08 14.096 447.024 14.784 448.432 14.784ZM460.16 6.112L457.728 9.392C459.44 9.712 460.64 10.912 460.64 12.688C460.64 13.776 460.272 14.64 459.52 15.264C458.768 15.888 457.872 16.208 456.8 16.208C455.088 16.208 453.68 15.408 453.12 13.936L454.368 13.2C454.704 14.24 455.504 14.752 456.8 14.752C458.192 14.752 459.152 13.984 459.152 12.688C459.152 11.392 458.192 10.608 456.8 10.608H456.416L455.824 9.696L458.416 6.192H453.44V4.8H460.16V6.112ZM464.158 9.552C463.438 9.552 462.83 9.312 462.35 8.832C461.87 8.352 461.63 7.76 461.63 7.072C461.63 6.384 461.87 5.808 462.35 5.328C462.846 4.832 463.438 4.592 464.158 4.592C464.878 4.592 465.486 4.832 465.966 5.312C466.446 5.792 466.686 6.384 466.686 7.072C466.686 7.76 466.446 8.352 465.966 8.832C465.502 9.312 464.894 9.552 464.158 9.552ZM462.878 7.072C462.878 7.824 463.406 8.384 464.158 8.384C464.91 8.384 465.438 7.792 465.438 7.072C465.438 6.352 464.91 5.776 464.158 5.776C463.406 5.776 462.878 6.352 462.878 7.072ZM463.15 14.864L462.382 14.416L469.822 6.096L470.606 6.528L463.15 14.864ZM470.798 15.472C470.318 15.952 469.71 16.192 468.99 16.192C468.27 16.192 467.662 15.952 467.182 15.472C466.702 14.992 466.462 14.4 466.462 13.712C466.462 13.024 466.702 12.432 467.182 11.952C467.662 11.472 468.27 11.232 468.99 11.232C469.71 11.232 470.318 11.472 470.798 11.952C471.278 12.432 471.518 13.024 471.518 13.712C471.518 14.4 471.278 14.992 470.798 15.472ZM468.062 14.64C468.302 14.88 468.622 15.008 468.99 15.008C469.358 15.008 469.662 14.88 469.902 14.64C470.398 14.128 470.398 13.296 469.902 12.8C469.662 12.544 469.358 12.416 468.99 12.416C468.622 12.416 468.302 12.544 468.062 12.8C467.598 13.296 467.598 14.128 468.062 14.64Z" fill="#3A3A3A"/>
<path d="M483.08 17.6H481.688C479.336 12.912 479.336 7.888 481.688 3.2H483.08C480.728 7.888 480.728 12.912 483.08 17.6ZM486.172 9.168H487.804C488.86 9.168 489.756 9.488 490.476 10.112C491.212 10.736 491.58 11.584 491.58 12.688C491.58 13.776 491.212 14.64 490.46 15.264C489.708 15.888 488.812 16.208 487.74 16.208C486.028 16.208 484.572 15.36 484.044 13.808L485.308 13.088C485.612 14.176 486.508 14.752 487.74 14.752C489.148 14.752 490.108 13.984 490.108 12.688C490.108 11.392 489.132 10.608 487.772 10.608H484.604L485.02 4.8H491.148V6.192H486.364L486.172 9.168ZM500.255 14.624C499.503 15.68 498.431 16.208 497.071 16.208C495.711 16.208 494.639 15.68 493.887 14.624C493.135 13.568 492.751 12.16 492.751 10.4C492.751 8.64 493.135 7.232 493.887 6.176C494.639 5.12 495.711 4.592 497.071 4.592C498.431 4.592 499.503 5.12 500.255 6.176C501.007 7.232 501.391 8.64 501.391 10.4C501.391 12.16 501.007 13.568 500.255 14.624ZM494.239 10.4C494.239 13.168 495.263 14.752 497.071 14.752C498.879 14.752 499.919 13.168 499.919 10.4C499.919 7.632 498.879 6.032 497.071 6.032C495.263 6.032 494.239 7.6 494.239 10.4ZM503.901 17.6H502.509C504.861 12.912 504.861 7.888 502.509 3.2H503.901C506.253 7.888 506.253 12.912 503.901 17.6Z" fill="#3A3A3A"/>
<path d="M483.08 45.6H481.688C479.336 40.912 479.336 35.888 481.688 31.2H483.08C480.728 35.888 480.728 40.912 483.08 45.6ZM490.012 38.208C491.1 38.768 491.756 39.728 491.756 40.928C491.756 41.952 491.404 42.752 490.684 43.344C489.964 43.92 489.052 44.208 487.916 44.208C486.796 44.208 485.884 43.92 485.164 43.344C484.444 42.752 484.092 41.952 484.092 40.928C484.092 39.728 484.748 38.768 485.836 38.208C484.924 37.632 484.46 36.816 484.46 35.76C484.46 34.752 484.796 33.968 485.468 33.424C486.156 32.864 486.972 32.592 487.916 32.592C488.876 32.592 489.692 32.864 490.364 33.424C491.052 33.968 491.388 34.752 491.388 35.76C491.388 36.816 490.924 37.632 490.012 38.208ZM487.916 34.016C486.78 34.016 485.932 34.624 485.932 35.792C485.932 36.928 486.812 37.584 487.916 37.584C489.02 37.584 489.9 36.928 489.9 35.792C489.9 34.624 489.068 34.016 487.916 34.016ZM487.916 42.784C489.34 42.784 490.284 42.096 490.284 40.832C490.284 39.6 489.34 38.896 487.916 38.896C486.508 38.896 485.564 39.6 485.564 40.832C485.564 42.096 486.508 42.784 487.916 42.784ZM494.151 45.6H492.759C495.111 40.912 495.111 35.888 492.759 31.2H494.151C496.503 35.888 496.503 40.912 494.151 45.6Z" fill="#3A3A3A"/>
<path d="M483.08 73.6H481.688C479.336 68.912 479.336 63.888 481.688 59.2H483.08C480.728 63.888 480.728 68.912 483.08 73.6ZM491.292 72H484.06V70.784L488.012 66.752C489.068 65.696 489.596 64.784 489.596 64.032C489.596 62.768 488.716 62.032 487.612 62.032C486.556 62.032 485.788 62.528 485.308 63.536L484.06 62.8C484.764 61.344 486.076 60.592 487.596 60.592C488.54 60.592 489.356 60.896 490.044 61.52C490.732 62.144 491.084 62.976 491.084 64.016C491.084 65.152 490.412 66.384 489.084 67.712L486.22 70.56H491.292V72ZM493.714 73.6H492.322C494.674 68.912 494.674 63.888 492.322 59.2H493.714C496.066 63.888 496.066 68.912 493.714 73.6Z" fill="#3A3A3A"/>
<path d="M483.08 101.6H481.688C479.336 96.912 479.336 91.888 481.688 87.2H483.08C480.728 91.888 480.728 96.912 483.08 101.6ZM491.708 98.624C490.956 99.68 489.884 100.208 488.524 100.208C487.164 100.208 486.092 99.68 485.34 98.624C484.588 97.568 484.204 96.16 484.204 94.4C484.204 92.64 484.588 91.232 485.34 90.176C486.092 89.12 487.164 88.592 488.524 88.592C489.884 88.592 490.956 89.12 491.708 90.176C492.46 91.232 492.844 92.64 492.844 94.4C492.844 96.16 492.46 97.568 491.708 98.624ZM485.692 94.4C485.692 97.168 486.716 98.752 488.524 98.752C490.332 98.752 491.372 97.168 491.372 94.4C491.372 91.632 490.332 90.032 488.524 90.032C486.716 90.032 485.692 91.6 485.692 94.4ZM495.355 101.6H493.963C496.315 96.912 496.315 91.888 493.963 87.2H495.355C497.707 91.888 497.707 96.912 495.355 101.6Z" fill="#3A3A3A"/>
<path d="M483.08 129.6H481.688C479.336 124.912 479.336 119.888 481.688 115.2H483.08C480.728 119.888 480.728 124.912 483.08 129.6ZM491.708 126.624C490.956 127.68 489.884 128.208 488.524 128.208C487.164 128.208 486.092 127.68 485.34 126.624C484.588 125.568 484.204 124.16 484.204 122.4C484.204 120.64 484.588 119.232 485.34 118.176C486.092 117.12 487.164 116.592 488.524 116.592C489.884 116.592 490.956 117.12 491.708 118.176C492.46 119.232 492.844 120.64 492.844 122.4C492.844 124.16 492.46 125.568 491.708 126.624ZM485.692 122.4C485.692 125.168 486.716 126.752 488.524 126.752C490.332 126.752 491.372 125.168 491.372 122.4C491.372 119.632 490.332 118.032 488.524 118.032C486.716 118.032 485.692 119.6 485.692 122.4ZM495.355 129.6H493.963C496.315 124.912 496.315 119.888 493.963 115.2H495.355C497.707 119.888 497.707 124.912 495.355 129.6Z" fill="#3A3A3A"/>
<path d="M444.224 33.824L447.168 32.8H448.448V44H446.976V34.4L444.592 35.104L444.224 33.824ZM457.191 34.112L454.759 37.392C456.471 37.712 457.671 38.912 457.671 40.688C457.671 41.776 457.303 42.64 456.551 43.264C455.799 43.888 454.903 44.208 453.831 44.208C452.119 44.208 450.711 43.408 450.151 41.936L451.399 41.2C451.735 42.24 452.535 42.752 453.831 42.752C455.223 42.752 456.183 41.984 456.183 40.688C456.183 39.392 455.223 38.608 453.831 38.608H453.447L452.855 37.696L455.447 34.192H450.471V32.8H457.191V34.112ZM461.189 37.552C460.469 37.552 459.861 37.312 459.381 36.832C458.901 36.352 458.661 35.76 458.661 35.072C458.661 34.384 458.901 33.808 459.381 33.328C459.877 32.832 460.469 32.592 461.189 32.592C461.909 32.592 462.517 32.832 462.997 33.312C463.477 33.792 463.717 34.384 463.717 35.072C463.717 35.76 463.477 36.352 462.997 36.832C462.533 37.312 461.925 37.552 461.189 37.552ZM459.909 35.072C459.909 35.824 460.437 36.384 461.189 36.384C461.941 36.384 462.469 35.792 462.469 35.072C462.469 34.352 461.941 33.776 461.189 33.776C460.437 33.776 459.909 34.352 459.909 35.072ZM460.181 42.864L459.413 42.416L466.853 34.096L467.637 34.528L460.181 42.864ZM467.829 43.472C467.349 43.952 466.741 44.192 466.021 44.192C465.301 44.192 464.693 43.952 464.213 43.472C463.733 42.992 463.493 42.4 463.493 41.712C463.493 41.024 463.733 40.432 464.213 39.952C464.693 39.472 465.301 39.232 466.021 39.232C466.741 39.232 467.349 39.472 467.829 39.952C468.309 40.432 468.549 41.024 468.549 41.712C468.549 42.4 468.309 42.992 467.829 43.472ZM465.093 42.64C465.333 42.88 465.653 43.008 466.021 43.008C466.389 43.008 466.693 42.88 466.933 42.64C467.429 42.128 467.429 41.296 466.933 40.8C466.693 40.544 466.389 40.416 466.021 40.416C465.653 40.416 465.333 40.544 465.093 40.8C464.629 41.296 464.629 42.128 465.093 42.64Z" fill="#3A3A3A"/>
<path d="M451.584 68.48H452.944V69.872H451.584V72H450.096V69.872H444.384V68.48L448.4 60.8H450L445.984 68.48H450.096V65.312H451.584V68.48ZM455.892 65.552C455.172 65.552 454.564 65.312 454.084 64.832C453.604 64.352 453.364 63.76 453.364 63.072C453.364 62.384 453.604 61.808 454.084 61.328C454.58 60.832 455.172 60.592 455.892 60.592C456.612 60.592 457.22 60.832 457.7 61.312C458.18 61.792 458.42 62.384 458.42 63.072C458.42 63.76 458.18 64.352 457.7 64.832C457.236 65.312 456.628 65.552 455.892 65.552ZM454.612 63.072C454.612 63.824 455.14 64.384 455.892 64.384C456.644 64.384 457.172 63.792 457.172 63.072C457.172 62.352 456.644 61.776 455.892 61.776C455.14 61.776 454.612 62.352 454.612 63.072ZM454.884 70.864L454.116 70.416L461.556 62.096L462.34 62.528L454.884 70.864ZM462.532 71.472C462.052 71.952 461.444 72.192 460.724 72.192C460.004 72.192 459.396 71.952 458.916 71.472C458.436 70.992 458.196 70.4 458.196 69.712C458.196 69.024 458.436 68.432 458.916 67.952C459.396 67.472 460.004 67.232 460.724 67.232C461.444 67.232 462.052 67.472 462.532 67.952C463.012 68.432 463.252 69.024 463.252 69.712C463.252 70.4 463.012 70.992 462.532 71.472ZM459.796 70.64C460.036 70.88 460.356 71.008 460.724 71.008C461.092 71.008 461.396 70.88 461.636 70.64C462.132 70.128 462.132 69.296 461.636 68.8C461.396 68.544 461.092 68.416 460.724 68.416C460.356 68.416 460.036 68.544 459.796 68.8C459.332 69.296 459.332 70.128 459.796 70.64Z" fill="#3A3A3A"/>
<path d="M452.224 98.624C451.472 99.68 450.4 100.208 449.04 100.208C447.68 100.208 446.608 99.68 445.856 98.624C445.104 97.568 444.72 96.16 444.72 94.4C444.72 92.64 445.104 91.232 445.856 90.176C446.608 89.12 447.68 88.592 449.04 88.592C450.4 88.592 451.472 89.12 452.224 90.176C452.976 91.232 453.36 92.64 453.36 94.4C453.36 96.16 452.976 97.568 452.224 98.624ZM446.208 94.4C446.208 97.168 447.232 98.752 449.04 98.752C450.848 98.752 451.888 97.168 451.888 94.4C451.888 91.632 450.848 90.032 449.04 90.032C447.232 90.032 446.208 91.6 446.208 94.4ZM457.174 93.552C456.454 93.552 455.846 93.312 455.366 92.832C454.886 92.352 454.646 91.76 454.646 91.072C454.646 90.384 454.886 89.808 455.366 89.328C455.862 88.832 456.454 88.592 457.174 88.592C457.894 88.592 458.502 88.832 458.982 89.312C459.462 89.792 459.702 90.384 459.702 91.072C459.702 91.76 459.462 92.352 458.982 92.832C458.518 93.312 457.91 93.552 457.174 93.552ZM455.894 91.072C455.894 91.824 456.422 92.384 457.174 92.384C457.926 92.384 458.454 91.792 458.454 91.072C458.454 90.352 457.926 89.776 457.174 89.776C456.422 89.776 455.894 90.352 455.894 91.072ZM456.166 98.864L455.398 98.416L462.838 90.096L463.622 90.528L456.166 98.864ZM463.814 99.472C463.334 99.952 462.726 100.192 462.006 100.192C461.286 100.192 460.678 99.952 460.198 99.472C459.718 98.992 459.478 98.4 459.478 97.712C459.478 97.024 459.718 96.432 460.198 95.952C460.678 95.472 461.286 95.232 462.006 95.232C462.726 95.232 463.334 95.472 463.814 95.952C464.294 96.432 464.534 97.024 464.534 97.712C464.534 98.4 464.294 98.992 463.814 99.472ZM461.078 98.64C461.318 98.88 461.638 99.008 462.006 99.008C462.374 99.008 462.678 98.88 462.918 98.64C463.414 98.128 463.414 97.296 462.918 96.8C462.678 96.544 462.374 96.416 462.006 96.416C461.638 96.416 461.318 96.544 461.078 96.8C460.614 97.296 460.614 98.128 461.078 98.64Z" fill="#3A3A3A"/>
<path d="M452.224 126.624C451.472 127.68 450.4 128.208 449.04 128.208C447.68 128.208 446.608 127.68 445.856 126.624C445.104 125.568 444.72 124.16 444.72 122.4C444.72 120.64 445.104 119.232 445.856 118.176C446.608 117.12 447.68 116.592 449.04 116.592C450.4 116.592 451.472 117.12 452.224 118.176C452.976 119.232 453.36 120.64 453.36 122.4C453.36 124.16 452.976 125.568 452.224 126.624ZM446.208 122.4C446.208 125.168 447.232 126.752 449.04 126.752C450.848 126.752 451.888 125.168 451.888 122.4C451.888 119.632 450.848 118.032 449.04 118.032C447.232 118.032 446.208 119.6 446.208 122.4ZM457.174 121.552C456.454 121.552 455.846 121.312 455.366 120.832C454.886 120.352 454.646 119.76 454.646 119.072C454.646 118.384 454.886 117.808 455.366 117.328C455.862 116.832 456.454 116.592 457.174 116.592C457.894 116.592 458.502 116.832 458.982 117.312C459.462 117.792 459.702 118.384 459.702 119.072C459.702 119.76 459.462 120.352 458.982 120.832C458.518 121.312 457.91 121.552 457.174 121.552ZM455.894 119.072C455.894 119.824 456.422 120.384 457.174 120.384C457.926 120.384 458.454 119.792 458.454 119.072C458.454 118.352 457.926 117.776 457.174 117.776C456.422 117.776 455.894 118.352 455.894 119.072ZM456.166 126.864L455.398 126.416L462.838 118.096L463.622 118.528L456.166 126.864ZM463.814 127.472C463.334 127.952 462.726 128.192 462.006 128.192C461.286 128.192 460.678 127.952 460.198 127.472C459.718 126.992 459.478 126.4 459.478 125.712C459.478 125.024 459.718 124.432 460.198 123.952C460.678 123.472 461.286 123.232 462.006 123.232C462.726 123.232 463.334 123.472 463.814 123.952C464.294 124.432 464.534 125.024 464.534 125.712C464.534 126.4 464.294 126.992 463.814 127.472ZM461.078 126.64C461.318 126.88 461.638 127.008 462.006 127.008C462.374 127.008 462.678 126.88 462.918 126.64C463.414 126.128 463.414 125.296 462.918 124.8C462.678 124.544 462.374 124.416 462.006 124.416C461.638 124.416 461.318 124.544 461.078 124.8C460.614 125.296 460.614 126.128 461.078 126.64Z" fill="#3A3A3A"/>
</svg>
