<svg width="1320" height="96" viewBox="0 0 1320 96" fill="none" xmlns="http://www.w3.org/2000/svg">
<path d="M113.624 20.976H122.048V22.272C122.048 24.672 121.28 26.616 119.744 28.104C118.208 29.592 116.216 30.336 113.792 30.336C111.2 30.336 109.04 29.496 107.336 27.816C105.632 26.112 104.792 24.048 104.792 21.624C104.792 19.176 105.632 17.112 107.312 15.408C109.016 13.704 111.104 12.864 113.6 12.864C116.744 12.864 119.48 14.4 120.92 16.776L118.088 18.408C117.296 17.04 115.568 16.08 113.576 16.08C111.968 16.08 110.648 16.608 109.616 17.664C108.584 18.696 108.08 20.016 108.08 21.624C108.08 23.208 108.608 24.528 109.64 25.56C110.696 26.592 112.088 27.096 113.816 27.096C116.384 27.096 118.112 25.896 118.712 23.904H113.624V20.976ZM125.796 16.944C124.764 16.944 123.9 16.104 123.9 15.096C123.9 14.088 124.764 13.224 125.796 13.224C126.852 13.224 127.716 14.088 127.716 15.096C127.716 16.104 126.852 16.944 125.796 16.944ZM127.356 30H124.26V18H127.356V30ZM139.309 19.416V18H142.405V30H139.309V28.584C138.373 29.76 137.077 30.336 135.397 30.336C133.789 30.336 132.421 29.736 131.269 28.512C130.141 27.288 129.565 25.776 129.565 24C129.565 22.224 130.141 20.736 131.269 19.512C132.421 18.288 133.789 17.664 135.397 17.664C137.077 17.664 138.373 18.24 139.309 19.416ZM133.597 26.448C134.221 27.072 135.013 27.384 135.973 27.384C136.933 27.384 137.725 27.072 138.349 26.448C138.997 25.8 139.309 24.984 139.309 24C139.309 23.016 138.997 22.2 138.349 21.576C137.725 20.928 136.933 20.616 135.973 20.616C135.013 20.616 134.221 20.928 133.597 21.576C132.973 22.2 132.661 23.016 132.661 24C132.661 24.984 132.973 25.8 133.597 26.448ZM155.437 28.512C154.213 29.736 152.701 30.336 150.925 30.336C149.149 30.336 147.637 29.736 146.413 28.512C145.189 27.288 144.589 25.776 144.589 24C144.589 22.224 145.189 20.736 146.413 19.512C147.637 18.288 149.149 17.664 150.925 17.664C152.701 17.664 154.213 18.288 155.437 19.512C156.661 20.736 157.285 22.224 157.285 24C157.285 25.776 156.661 27.288 155.437 28.512ZM148.597 26.376C149.221 27 149.989 27.312 150.925 27.312C151.861 27.312 152.629 27 153.253 26.376C153.877 25.752 154.189 24.96 154.189 24C154.189 23.04 153.877 22.248 153.253 21.624C152.629 21 151.861 20.688 150.925 20.688C149.989 20.688 149.221 21 148.597 21.624C147.997 22.248 147.685 23.04 147.685 24C147.685 24.96 147.997 25.752 148.597 26.376ZM172.135 17.664C173.455 17.664 174.535 18.096 175.375 18.984C176.239 19.872 176.671 21.072 176.671 22.632V30H173.575V23.016C173.575 21.408 172.639 20.544 171.199 20.544C169.591 20.544 168.559 21.528 168.559 23.52V30H165.463V13.2H168.559V19.344C169.303 18.216 170.503 17.664 172.135 17.664ZM186.202 13.2L188.122 16.488H185.146L182.482 13.2H186.202ZM188.434 19.416V18H191.53V30H188.434V28.584C187.498 29.76 186.202 30.336 184.522 30.336C182.914 30.336 181.546 29.736 180.394 28.512C179.266 27.288 178.69 25.776 178.69 24C178.69 22.224 179.266 20.736 180.394 19.512C181.546 18.288 182.914 17.664 184.522 17.664C186.202 17.664 187.498 18.24 188.434 19.416ZM182.722 26.448C183.346 27.072 184.138 27.384 185.098 27.384C186.058 27.384 186.85 27.072 187.474 26.448C188.122 25.8 188.434 24.984 188.434 24C188.434 23.016 188.122 22.2 187.474 21.576C186.85 20.928 186.058 20.616 185.098 20.616C184.138 20.616 183.346 20.928 182.722 21.576C182.098 22.2 181.786 23.016 181.786 24C181.786 24.984 182.098 25.8 182.722 26.448ZM201.01 17.664C202.33 17.664 203.41 18.096 204.25 18.984C205.114 19.872 205.546 21.072 205.546 22.632V30H202.45V23.016C202.45 21.408 201.514 20.544 200.074 20.544C198.466 20.544 197.434 21.528 197.434 23.52V30H194.338V18H197.434V19.344C198.178 18.216 199.378 17.664 201.01 17.664ZM217.381 19.488V18H220.405V29.424C220.405 31.272 219.781 32.688 218.557 33.672C217.333 34.656 215.869 35.136 214.141 35.136C211.549 35.136 209.509 34.128 208.453 32.208L211.093 30.696C211.693 31.824 212.749 32.376 214.237 32.376C216.181 32.376 217.381 31.32 217.381 29.424V28.128C216.469 29.352 215.197 29.952 213.541 29.952C211.837 29.952 210.421 29.352 209.269 28.176C208.141 26.976 207.565 25.512 207.565 23.808C207.565 22.104 208.141 20.664 209.293 19.464C210.445 18.264 211.861 17.664 213.541 17.664C215.197 17.664 216.469 18.264 217.381 19.488ZM217.381 23.808C217.381 22.872 217.069 22.08 216.421 21.48C215.797 20.856 215.005 20.544 214.021 20.544C213.037 20.544 212.245 20.856 211.597 21.48C210.973 22.08 210.661 22.872 210.661 23.808C210.661 25.728 212.077 27.096 214.021 27.096C215.965 27.096 217.381 25.728 217.381 23.808ZM236.077 18V20.976H233.365V25.968C233.365 27.264 234.301 27.288 236.077 27.192V30C231.829 30.48 230.269 29.256 230.269 25.968V20.976H228.181V18H230.269V15.576L233.365 14.64V18H236.077ZM248.671 28.512C247.447 29.736 245.935 30.336 244.159 30.336C242.383 30.336 240.871 29.736 239.647 28.512C238.423 27.288 237.823 25.776 237.823 24C237.823 22.224 238.423 20.736 239.647 19.512C240.871 18.288 242.383 17.664 244.159 17.664C245.935 17.664 247.447 18.288 248.671 19.512C249.895 20.736 250.519 22.224 250.519 24C250.519 25.776 249.895 27.288 248.671 28.512ZM241.831 26.376C242.455 27 243.223 27.312 244.159 27.312C245.095 27.312 245.863 27 246.487 26.376C247.111 25.752 247.423 24.96 247.423 24C247.423 23.04 247.111 22.248 246.487 21.624C245.863 21 245.095 20.688 244.159 20.688C243.223 20.688 242.455 21 241.831 21.624C241.231 22.248 240.919 23.04 240.919 24C240.919 24.96 241.231 25.752 241.831 26.376ZM259.585 13.2L261.505 16.488H258.529L255.865 13.2H259.585ZM261.817 19.416V18H264.913V30H261.817V28.584C260.881 29.76 259.585 30.336 257.905 30.336C256.297 30.336 254.929 29.736 253.777 28.512C252.649 27.288 252.073 25.776 252.073 24C252.073 22.224 252.649 20.736 253.777 19.512C254.929 18.288 256.297 17.664 257.905 17.664C259.585 17.664 260.881 18.24 261.817 19.416ZM256.105 26.448C256.729 27.072 257.521 27.384 258.481 27.384C259.441 27.384 260.233 27.072 260.857 26.448C261.505 25.8 261.817 24.984 261.817 24C261.817 23.016 261.505 22.2 260.857 21.576C260.233 20.928 259.441 20.616 258.481 20.616C257.521 20.616 256.729 20.928 256.105 21.576C255.481 22.2 255.169 23.016 255.169 24C255.169 24.984 255.481 25.8 256.105 26.448ZM274.393 17.664C275.713 17.664 276.793 18.096 277.633 18.984C278.497 19.872 278.929 21.072 278.929 22.632V30H275.833V23.016C275.833 21.408 274.897 20.544 273.457 20.544C271.849 20.544 270.817 21.528 270.817 23.52V30H267.721V18H270.817V19.344C271.561 18.216 272.761 17.664 274.393 17.664ZM296.668 19.416V18H299.764V34.8H296.668V28.584C295.756 29.76 294.46 30.336 292.78 30.336C291.172 30.336 289.78 29.736 288.628 28.512C287.5 27.288 286.924 25.776 286.924 24C286.924 22.224 287.5 20.736 288.628 19.512C289.78 18.288 291.172 17.664 292.78 17.664C294.46 17.664 295.756 18.24 296.668 19.416ZM290.956 26.448C291.604 27.072 292.396 27.384 293.356 27.384C294.316 27.384 295.108 27.072 295.732 26.448C296.356 25.8 296.668 24.984 296.668 24C296.668 23.016 296.356 22.2 295.732 21.576C295.108 20.928 294.316 20.616 293.356 20.616C292.396 20.616 291.604 20.928 290.956 21.576C290.332 22.2 290.02 23.016 290.02 24C290.02 24.984 290.332 25.8 290.956 26.448ZM310.516 24.48V18H313.612V30H310.516V28.656C309.772 29.784 308.572 30.336 306.94 30.336C305.62 30.336 304.54 29.904 303.676 29.016C302.836 28.128 302.404 26.928 302.404 25.368V18H305.5V24.984C305.5 26.592 306.436 27.456 307.876 27.456C309.484 27.456 310.516 26.472 310.516 24.48ZM323.143 16.488L322.183 15.024L321.199 16.488H318.343L320.695 13.248H323.623L325.999 16.488H323.143ZM317.647 19.512C318.871 18.288 320.383 17.664 322.159 17.664C323.935 17.664 325.447 18.288 326.671 19.512C327.895 20.736 328.519 22.224 328.519 24C328.519 25.776 327.895 27.288 326.671 28.512C325.447 29.736 323.935 30.336 322.159 30.336C320.383 30.336 318.871 29.736 317.647 28.512C316.423 27.288 315.823 25.776 315.823 24C315.823 22.224 316.423 20.736 317.647 19.512ZM319.831 26.376C320.455 27 321.223 27.312 322.159 27.312C323.095 27.312 323.863 27 324.487 26.376C325.111 25.752 325.423 24.96 325.423 24C325.423 23.04 325.111 22.248 324.487 21.624C323.863 21 323.095 20.688 322.159 20.688C321.223 20.688 320.455 21 319.831 21.624C319.231 22.248 318.919 23.04 318.919 24C318.919 24.96 319.231 25.752 319.831 26.376ZM325.015 14.088L326.815 11.04H330.271L327.799 14.088H325.015ZM336.409 30.336C334.609 30.336 333.097 29.736 331.873 28.512C330.673 27.288 330.073 25.8 330.073 24C330.073 22.2 330.673 20.712 331.873 19.488C333.097 18.264 334.609 17.664 336.409 17.664C338.737 17.664 340.801 18.864 341.785 20.76L339.121 22.32C338.641 21.336 337.609 20.712 336.385 20.712C334.537 20.712 333.169 22.08 333.169 24C333.169 24.936 333.481 25.728 334.081 26.352C334.681 26.952 335.449 27.264 336.385 27.264C337.633 27.264 338.665 26.664 339.145 25.68L341.833 27.216C340.777 29.112 338.737 30.336 336.409 30.336Z" fill="#353245"/>
<path d="M112.128 52.552V47.8H113.6V59H112.128V53.96H106.688V59H105.2V47.8H106.688V52.552H112.128ZM120.493 49.912L119.597 48.696L118.685 49.912H117.293L118.877 47.896H120.301L121.885 49.912H120.493ZM116.621 52.008C117.437 51.192 118.445 50.792 119.613 50.792C120.781 50.792 121.789 51.192 122.605 52.008C123.421 52.824 123.837 53.816 123.837 55C123.837 56.184 123.421 57.176 122.605 57.992C121.789 58.808 120.781 59.208 119.613 59.208C118.445 59.208 117.437 58.808 116.621 57.992C115.805 57.176 115.405 56.184 115.405 55C115.405 53.816 115.805 52.824 116.621 52.008ZM119.613 57.848C120.413 57.848 121.085 57.576 121.629 57.032C122.173 56.488 122.445 55.816 122.445 55C122.445 54.184 122.173 53.512 121.629 52.968C121.085 52.424 120.413 52.152 119.613 52.152C118.829 52.152 118.157 52.424 117.613 52.968C117.069 53.512 116.797 54.184 116.797 55C116.797 55.816 117.069 56.488 117.613 57.032C118.157 57.576 118.829 57.848 119.613 57.848ZM118.461 47.464H117.373C117.373 45.464 118.557 45.208 119.661 45.992C120.397 46.584 120.733 46.6 120.733 45.656H121.821C121.821 47.624 120.653 47.896 119.533 47.112C118.813 46.52 118.461 46.504 118.461 47.464ZM133.83 51V52.344H131.702V56.68C131.702 57.912 132.406 57.816 133.83 57.752V59C131.398 59.32 130.31 58.664 130.31 56.68V52.344H128.726V51H130.31V49.176L131.702 48.76V51H133.83ZM136.917 51V52.344C137.381 51.352 138.213 50.856 139.413 50.856V52.312C138.725 52.28 138.149 52.456 137.653 52.856C137.157 53.256 136.917 53.88 136.917 54.76V59H135.525V51H136.917ZM144.535 62.232C144.007 62.232 143.591 61.816 143.591 61.304C143.591 60.792 144.007 60.36 144.535 60.36C145.047 60.36 145.463 60.792 145.463 61.304C145.463 61.816 145.047 62.232 144.535 62.232ZM147.527 57.992C146.711 58.808 145.703 59.208 144.535 59.208C143.367 59.208 142.359 58.808 141.543 57.992C140.727 57.176 140.327 56.184 140.327 55C140.327 53.816 140.727 52.824 141.543 52.008C142.359 51.192 143.367 50.792 144.535 50.792C145.015 50.792 145.479 50.856 145.911 51H146.455C147.159 51 147.271 50.712 147.271 50.008V49.816H148.503V50.008C148.503 51.048 148.231 51.688 147.463 51.944C147.479 51.976 147.495 51.992 147.527 52.008C148.343 52.824 148.759 53.816 148.759 55C148.759 56.184 148.343 57.176 147.527 57.992ZM144.535 57.848C145.335 57.848 146.007 57.576 146.551 57.032C147.095 56.488 147.367 55.816 147.367 55C147.367 54.184 147.095 53.512 146.551 52.968C146.007 52.424 145.335 52.152 144.535 52.152C143.751 52.152 143.079 52.424 142.535 52.968C141.991 53.512 141.719 54.184 141.719 55C141.719 55.816 141.991 56.488 142.535 57.032C143.079 57.576 143.751 57.848 144.535 57.848ZM161.04 52.376V51H162.416V58.664C162.416 59.848 162.016 60.76 161.216 61.416C160.416 62.072 159.456 62.408 158.336 62.408C156.544 62.408 155.2 61.72 154.544 60.456L155.76 59.768C156.192 60.664 157.072 61.112 158.368 61.112C160.032 61.112 161.04 60.184 161.04 58.664V57.528C160.336 58.6 159.328 59.128 158.032 59.128C156.896 59.128 155.92 58.728 155.136 57.912C154.352 57.096 153.952 56.12 153.952 54.952C153.952 53.784 154.352 52.808 155.136 52.008C155.92 51.192 156.896 50.792 158.032 50.792C159.344 50.792 160.352 51.32 161.04 52.376ZM161.04 54.952C161.04 54.152 160.768 53.48 160.224 52.936C159.68 52.392 159.008 52.12 158.192 52.12C157.376 52.12 156.704 52.392 156.16 52.936C155.616 53.48 155.344 54.152 155.344 54.952C155.344 55.768 155.616 56.44 156.16 56.984C156.704 57.528 157.376 57.8 158.192 57.8C159.008 57.8 159.68 57.528 160.224 56.984C160.768 56.44 161.04 55.768 161.04 54.952ZM165.229 50.008C164.701 50.008 164.285 49.592 164.285 49.08C164.285 48.568 164.701 48.136 165.229 48.136C165.741 48.136 166.157 48.568 166.157 49.08C166.157 49.592 165.741 50.008 165.229 50.008ZM165.917 59H164.525V51H165.917V59ZM174.664 52.376V51H176.056V59H174.664V57.624C173.976 58.68 172.968 59.208 171.64 59.208C170.52 59.208 169.56 58.808 168.776 57.992C167.992 57.176 167.592 56.168 167.592 55C167.592 53.832 167.992 52.84 168.776 52.024C169.56 51.208 170.52 50.792 171.64 50.792C172.968 50.792 173.976 51.32 174.664 52.376ZM171.816 57.864C172.632 57.864 173.304 57.592 173.848 57.048C174.392 56.488 174.664 55.816 174.664 55C174.664 54.184 174.392 53.512 173.848 52.968C173.304 52.408 172.632 52.136 171.816 52.136C171.016 52.136 170.344 52.408 169.8 52.968C169.256 53.512 168.984 54.184 168.984 55C168.984 55.816 169.256 56.488 169.8 57.048C170.344 57.592 171.016 57.864 171.816 57.864ZM184.917 57.992C184.101 58.808 183.093 59.208 181.925 59.208C180.757 59.208 179.749 58.808 178.933 57.992C178.117 57.176 177.717 56.184 177.717 55C177.717 53.816 178.117 52.824 178.933 52.008C179.749 51.192 180.757 50.792 181.925 50.792C183.093 50.792 184.101 51.192 184.917 52.008C185.733 52.824 186.149 53.816 186.149 55C186.149 56.184 185.733 57.176 184.917 57.992ZM181.925 57.848C182.725 57.848 183.397 57.576 183.941 57.032C184.485 56.488 184.757 55.816 184.757 55C184.757 54.184 184.485 53.512 183.941 52.968C183.397 52.424 182.725 52.152 181.925 52.152C181.141 52.152 180.469 52.424 179.925 52.968C179.381 53.512 179.109 54.184 179.109 55C179.109 55.816 179.381 56.488 179.925 57.032C180.469 57.576 181.141 57.848 181.925 57.848ZM195.774 50.792C197.646 50.792 198.878 52.056 198.878 54.088V59H197.486V54.168C197.486 52.872 196.734 52.12 195.502 52.12C194.11 52.12 193.182 52.968 193.182 54.76V59H191.79V47.8H193.182V52.152C193.742 51.24 194.606 50.792 195.774 50.792ZM205.158 47.8L206.438 49.912H205.094L203.478 47.8H205.158ZM207.446 52.376V51H208.838V59H207.446V57.624C206.758 58.68 205.75 59.208 204.422 59.208C203.302 59.208 202.342 58.808 201.558 57.992C200.774 57.176 200.374 56.168 200.374 55C200.374 53.832 200.774 52.84 201.558 52.024C202.342 51.208 203.302 50.792 204.422 50.792C205.75 50.792 206.758 51.32 207.446 52.376ZM204.598 57.864C205.414 57.864 206.086 57.592 206.63 57.048C207.174 56.488 207.446 55.816 207.446 55C207.446 54.184 207.174 53.512 206.63 52.968C206.086 52.408 205.414 52.136 204.598 52.136C203.798 52.136 203.126 52.408 202.582 52.968C202.038 53.512 201.766 54.184 201.766 55C201.766 55.816 202.038 56.488 202.582 57.048C203.126 57.592 203.798 57.864 204.598 57.864ZM214.931 50.792C216.803 50.792 218.035 52.056 218.035 54.088V59H216.643V54.168C216.643 52.872 215.891 52.12 214.659 52.12C213.267 52.12 212.339 52.968 212.339 54.76V59H210.947V51H212.339V52.152C212.899 51.24 213.763 50.792 214.931 50.792ZM226.618 52.376V51H227.994V58.664C227.994 59.848 227.594 60.76 226.794 61.416C225.994 62.072 225.034 62.408 223.914 62.408C222.122 62.408 220.778 61.72 220.122 60.456L221.338 59.768C221.77 60.664 222.65 61.112 223.946 61.112C225.61 61.112 226.618 60.184 226.618 58.664V57.528C225.914 58.6 224.906 59.128 223.61 59.128C222.474 59.128 221.498 58.728 220.714 57.912C219.93 57.096 219.53 56.12 219.53 54.952C219.53 53.784 219.93 52.808 220.714 52.008C221.498 51.192 222.474 50.792 223.61 50.792C224.922 50.792 225.93 51.32 226.618 52.376ZM226.618 54.952C226.618 54.152 226.346 53.48 225.802 52.936C225.258 52.392 224.586 52.12 223.77 52.12C222.954 52.12 222.282 52.392 221.738 52.936C221.194 53.48 220.922 54.152 220.922 54.952C220.922 55.768 221.194 56.44 221.738 56.984C222.282 57.528 222.954 57.8 223.77 57.8C224.586 57.8 225.258 57.528 225.802 56.984C226.346 56.44 226.618 55.768 226.618 54.952ZM238.455 51V52.344H236.327V56.68C236.327 57.912 237.031 57.816 238.455 57.752V59C236.023 59.32 234.935 58.664 234.935 56.68V52.344H233.351V51H234.935V49.176L236.327 48.76V51H238.455ZM244.022 62.232C243.494 62.232 243.078 61.816 243.078 61.304C243.078 60.792 243.494 60.36 244.022 60.36C244.534 60.36 244.95 60.792 244.95 61.304C244.95 61.816 244.534 62.232 244.022 62.232ZM246.774 52.376V51H248.166V59H246.774V57.624C246.086 58.68 245.078 59.208 243.75 59.208C242.63 59.208 241.67 58.808 240.886 57.992C240.102 57.176 239.702 56.168 239.702 55C239.702 53.832 240.102 52.84 240.886 52.024C241.67 51.208 242.63 50.792 243.75 50.792C245.078 50.792 246.086 51.32 246.774 52.376ZM243.926 57.864C244.742 57.864 245.414 57.592 245.958 57.048C246.502 56.488 246.774 55.816 246.774 55C246.774 54.184 246.502 53.512 245.958 52.968C245.414 52.408 244.742 52.136 243.926 52.136C243.126 52.136 242.454 52.408 241.91 52.968C241.366 53.512 241.094 54.184 241.094 55C241.094 55.816 241.366 56.488 241.91 57.048C242.454 57.592 243.126 57.864 243.926 57.864ZM250.979 50.008C250.451 50.008 250.035 49.592 250.035 49.08C250.035 48.568 250.451 48.136 250.979 48.136C251.491 48.136 251.907 48.568 251.907 49.08C251.907 49.592 251.491 50.008 250.979 50.008ZM251.667 59H250.275V51H251.667V59ZM261.038 51.672C262.158 51.672 263.086 52.024 263.806 52.728C264.526 53.416 264.894 54.328 264.894 55.432C264.894 56.536 264.526 57.448 263.806 58.152C263.086 58.856 262.158 59.208 261.038 59.208C259.902 59.208 258.974 58.856 258.254 58.152C257.534 57.448 257.182 56.536 257.182 55.432C257.182 54.568 257.406 53.816 257.854 53.192L261.454 47.8H263.15L260.51 51.704C260.75 51.688 260.926 51.672 261.038 51.672ZM261.038 53.096C259.614 53.096 258.654 54.024 258.654 55.432C258.654 56.84 259.63 57.784 261.038 57.784C262.446 57.784 263.422 56.84 263.422 55.432C263.422 54.024 262.446 53.096 261.038 53.096ZM272.754 49.112L270.322 52.392C272.034 52.712 273.234 53.912 273.234 55.688C273.234 56.776 272.866 57.64 272.114 58.264C271.362 58.888 270.466 59.208 269.394 59.208C267.682 59.208 266.274 58.408 265.714 56.936L266.962 56.2C267.298 57.24 268.098 57.752 269.394 57.752C270.786 57.752 271.746 56.984 271.746 55.688C271.746 54.392 270.786 53.608 269.394 53.608H269.01L268.418 52.696L271.01 49.192H266.034V47.8H272.754V49.112ZM283.236 51V52.344H281.108V56.68C281.108 57.912 281.812 57.816 283.236 57.752V59C280.804 59.32 279.716 58.664 279.716 56.68V52.344H278.132V51H279.716V49.176L281.108 48.76V51H283.236ZM286.323 59H284.931V51H286.323V59ZM286.131 49.96H285.155C285.155 49.256 285.171 49.096 285.475 48.856C285.475 48.856 285.715 48.712 285.731 48.696C285.827 48.648 286.035 48.552 286.035 48.296C286.035 48.136 285.907 48.024 285.635 48.024C285.347 48.024 285.027 48.136 284.899 48.52L284.003 48.136C284.307 47.384 284.931 47.08 285.635 47.08C286.387 47.08 287.011 47.464 287.011 48.28C287.011 48.888 286.723 49.24 286.419 49.4C286.211 49.496 286.083 49.592 286.131 49.96ZM292.431 50.792C294.303 50.792 295.535 52.056 295.535 54.088V59H294.143V54.168C294.143 52.872 293.391 52.12 292.159 52.12C290.767 52.12 289.839 52.968 289.839 54.76V59H288.447V51H289.839V52.152C290.399 51.24 291.263 50.792 292.431 50.792ZM301.462 50.792C303.334 50.792 304.566 52.056 304.566 54.088V59H303.174V54.168C303.174 52.872 302.422 52.12 301.19 52.12C299.798 52.12 298.87 52.968 298.87 54.76V59H297.478V47.8H298.87V52.152C299.43 51.24 300.294 50.792 301.462 50.792ZM314.861 51V52.344H312.733V56.68C312.733 57.912 313.437 57.816 314.861 57.752V59C312.429 59.32 311.341 58.664 311.341 56.68V52.344H309.757V51H311.341V49.176L312.733 48.76V51H314.861ZM320.54 50.792C322.412 50.792 323.644 52.056 323.644 54.088V59H322.252V54.168C322.252 52.872 321.5 52.12 320.268 52.12C318.876 52.12 317.948 52.968 317.948 54.76V59H316.556V47.8H317.948V52.152C318.508 51.24 319.372 50.792 320.54 50.792ZM329.923 47.8L331.203 49.912H329.859L328.243 47.8H329.923ZM332.211 52.376V51H333.603V59H332.211V57.624C331.523 58.68 330.515 59.208 329.187 59.208C328.067 59.208 327.107 58.808 326.323 57.992C325.539 57.176 325.139 56.168 325.139 55C325.139 53.832 325.539 52.84 326.323 52.024C327.107 51.208 328.067 50.792 329.187 50.792C330.515 50.792 331.523 51.32 332.211 52.376ZM329.363 57.864C330.179 57.864 330.851 57.592 331.395 57.048C331.939 56.488 332.211 55.816 332.211 55C332.211 54.184 331.939 53.512 331.395 52.968C330.851 52.408 330.179 52.136 329.363 52.136C328.563 52.136 327.891 52.408 327.347 52.968C326.803 53.512 326.531 54.184 326.531 55C326.531 55.816 326.803 56.488 327.347 57.048C327.891 57.592 328.563 57.864 329.363 57.864ZM339.696 50.792C341.568 50.792 342.8 52.056 342.8 54.088V59H341.408V54.168C341.408 52.872 340.656 52.12 339.424 52.12C338.032 52.12 337.104 52.968 337.104 54.76V59H335.712V51H337.104V52.152C337.664 51.24 338.528 50.792 339.696 50.792ZM348.728 50.792C350.6 50.792 351.832 52.056 351.832 54.088V59H350.44V54.168C350.44 52.872 349.688 52.12 348.456 52.12C347.064 52.12 346.136 52.968 346.136 54.76V59H344.743V47.8H346.136V52.152C346.696 51.24 347.56 50.792 348.728 50.792ZM109.408 75V76.344H107.28V80.68C107.28 81.912 107.984 81.816 109.408 81.752V83C106.976 83.32 105.888 82.664 105.888 80.68V76.344H104.304V75H105.888V73.176L107.28 72.76V75H109.408ZM112.495 75V76.344C112.959 75.352 113.791 74.856 114.991 74.856V76.312C114.303 76.28 113.727 76.456 113.231 76.856C112.735 77.256 112.495 77.88 112.495 78.76V83H111.103V75H112.495ZM121.121 73.944L120.145 72.648L119.169 73.944H117.681L119.377 71.784H120.913L122.609 73.944H121.121ZM124.033 79.64H117.329C117.601 81.064 118.705 81.896 120.225 81.896C121.281 81.896 122.049 81.512 122.529 80.728L123.713 81.4C122.929 82.6 121.761 83.208 120.193 83.208C118.929 83.208 117.889 82.808 117.089 82.024C116.305 81.224 115.905 80.216 115.905 79C115.905 77.8 116.289 76.792 117.073 75.992C117.857 75.192 118.865 74.792 120.097 74.792C121.265 74.792 122.225 75.208 122.961 76.04C123.713 76.856 124.081 77.848 124.081 79.016C124.081 79.224 124.065 79.432 124.033 79.64ZM120.097 76.104C118.609 76.104 117.569 77.016 117.329 78.424H122.673C122.433 76.904 121.377 76.104 120.097 76.104ZM129.665 74.792C131.537 74.792 132.769 76.056 132.769 78.088V83H131.377V78.168C131.377 76.872 130.625 76.12 129.393 76.12C128.001 76.12 127.073 76.968 127.073 78.76V83H125.681V75H127.073V76.152C127.633 75.24 128.497 74.792 129.665 74.792ZM143.064 75V76.344H140.936V80.68C140.936 81.912 141.64 81.816 143.064 81.752V83C140.632 83.32 139.544 82.664 139.544 80.68V76.344H137.96V75H139.544V73.176L140.936 72.76V75H143.064ZM151.511 81.992C150.695 82.808 149.687 83.208 148.519 83.208C147.351 83.208 146.343 82.808 145.527 81.992C144.711 81.176 144.311 80.184 144.311 79C144.311 77.816 144.711 76.824 145.527 76.008C146.343 75.192 147.351 74.792 148.519 74.792C149.687 74.792 150.695 75.192 151.511 76.008C152.327 76.824 152.743 77.816 152.743 79C152.743 80.184 152.327 81.176 151.511 81.992ZM148.519 81.848C149.319 81.848 149.991 81.576 150.535 81.032C151.079 80.488 151.351 79.816 151.351 79C151.351 78.184 151.079 77.512 150.535 76.968C149.991 76.424 149.319 76.152 148.519 76.152C147.735 76.152 147.063 76.424 146.519 76.968C145.975 77.512 145.703 78.184 145.703 79C145.703 79.816 145.975 80.488 146.519 81.032C147.063 81.576 147.735 81.848 148.519 81.848ZM158.72 71.8L160 73.912H158.656L157.04 71.8H158.72ZM161.008 76.376V75H162.4V83H161.008V81.624C160.32 82.68 159.312 83.208 157.984 83.208C156.864 83.208 155.904 82.808 155.12 81.992C154.336 81.176 153.936 80.168 153.936 79C153.936 77.832 154.336 76.84 155.12 76.024C155.904 75.208 156.864 74.792 157.984 74.792C159.312 74.792 160.32 75.32 161.008 76.376ZM158.16 81.864C158.976 81.864 159.648 81.592 160.192 81.048C160.736 80.488 161.008 79.816 161.008 79C161.008 78.184 160.736 77.512 160.192 76.968C159.648 76.408 158.976 76.136 158.16 76.136C157.36 76.136 156.688 76.408 156.144 76.968C155.6 77.512 155.328 78.184 155.328 79C155.328 79.816 155.6 80.488 156.144 81.048C156.688 81.592 157.36 81.864 158.16 81.864ZM168.493 74.792C170.365 74.792 171.597 76.056 171.597 78.088V83H170.205V78.168C170.205 76.872 169.453 76.12 168.221 76.12C166.829 76.12 165.901 76.968 165.901 78.76V83H164.509V75H165.901V76.152C166.461 75.24 167.325 74.792 168.493 74.792ZM184.164 76.376V75H185.556V86.2H184.164V81.624C183.476 82.68 182.468 83.208 181.14 83.208C180.02 83.208 179.06 82.808 178.276 81.992C177.492 81.176 177.092 80.168 177.092 79C177.092 77.832 177.492 76.84 178.276 76.024C179.06 75.208 180.02 74.792 181.14 74.792C182.468 74.792 183.476 75.32 184.164 76.376ZM181.316 81.864C182.132 81.864 182.804 81.592 183.348 81.048C183.892 80.488 184.164 79.816 184.164 79C184.164 78.184 183.892 77.512 183.348 76.968C182.804 76.408 182.132 76.136 181.316 76.136C180.516 76.136 179.844 76.408 179.3 76.968C178.756 77.512 178.484 78.184 178.484 79C178.484 79.816 178.756 80.488 179.3 81.048C179.844 81.592 180.516 81.864 181.316 81.864ZM193.185 79.24V75H194.577V83H193.185V81.848C192.625 82.76 191.761 83.208 190.593 83.208C188.721 83.208 187.489 81.944 187.489 79.912V75H188.881V79.832C188.881 81.128 189.633 81.88 190.865 81.88C192.257 81.88 193.185 81.032 193.185 79.24ZM201.337 73.912L200.441 72.696L199.529 73.912H198.137L199.721 71.896H201.145L202.729 73.912H201.337ZM197.465 76.008C198.281 75.192 199.289 74.792 200.457 74.792C201.625 74.792 202.633 75.192 203.449 76.008C204.265 76.824 204.681 77.816 204.681 79C204.681 80.184 204.265 81.176 203.449 81.992C202.633 82.808 201.625 83.208 200.457 83.208C199.289 83.208 198.281 82.808 197.465 81.992C196.649 81.176 196.249 80.184 196.249 79C196.249 77.816 196.649 76.824 197.465 76.008ZM200.457 81.848C201.257 81.848 201.929 81.576 202.473 81.032C203.017 80.488 203.289 79.816 203.289 79C203.289 78.184 203.017 77.512 202.473 76.968C201.929 76.424 201.257 76.152 200.457 76.152C199.673 76.152 199.001 76.424 198.457 76.968C197.913 77.512 197.641 78.184 197.641 79C197.641 79.816 197.913 80.488 198.457 81.032C199.001 81.576 199.673 81.848 200.457 81.848ZM202.041 72.44L203.225 70.472H204.809L203.289 72.44H202.041ZM210.082 83.208C208.882 83.208 207.874 82.808 207.074 82.008C206.274 81.192 205.874 80.2 205.874 79C205.874 77.8 206.274 76.808 207.074 76.008C207.874 75.192 208.882 74.792 210.082 74.792C211.666 74.792 212.994 75.608 213.618 76.888L212.45 77.56C212.05 76.712 211.154 76.152 210.082 76.152C209.282 76.152 208.61 76.424 208.066 76.968C207.538 77.512 207.266 78.184 207.266 79C207.266 79.8 207.538 80.472 208.066 81.016C208.61 81.56 209.282 81.832 210.082 81.832C211.154 81.832 212.05 81.288 212.498 80.44L213.682 81.128C212.994 82.392 211.634 83.208 210.082 83.208Z" fill="#353245"/>
<path d="M20.0002 74.6666C17.2224 74.6666 14.8613 73.6944 12.9168 71.7499C10.9724 69.8055 10.0002 67.4444 10.0002 64.6666H3.3335V27.9999C3.3335 26.1666 3.98683 24.5977 5.2935 23.2933C6.60016 21.9888 8.16905 21.3355 10.0002 21.3333H56.6668V34.6666H66.6668L76.6668 47.9999V64.6666H70.0002C70.0002 67.4444 69.0279 69.8055 67.0835 71.7499C65.1391 73.6944 62.7779 74.6666 60.0002 74.6666C57.2224 74.6666 54.8613 73.6944 52.9168 71.7499C50.9724 69.8055 50.0002 67.4444 50.0002 64.6666H30.0002C30.0002 67.4444 29.0279 69.8055 27.0835 71.7499C25.1391 73.6944 22.7779 74.6666 20.0002 74.6666ZM20.0002 67.9999C20.9446 67.9999 21.7368 67.6799 22.3768 67.0399C23.0168 66.3999 23.3357 65.6088 23.3335 64.6666C23.3335 63.7221 23.0135 62.931 22.3735 62.2933C21.7335 61.6555 20.9424 61.3355 20.0002 61.3333C19.0557 61.3333 18.2646 61.6533 17.6268 62.2933C16.9891 62.9333 16.6691 63.7244 16.6668 64.6666C16.6668 65.611 16.9868 66.4033 17.6268 67.0433C18.2668 67.6833 19.0579 68.0021 20.0002 67.9999ZM60.0002 67.9999C60.9446 67.9999 61.7368 67.6799 62.3768 67.0399C63.0168 66.3999 63.3357 65.6088 63.3335 64.6666C63.3335 63.7221 63.0135 62.931 62.3735 62.2933C61.7335 61.6555 60.9424 61.3355 60.0002 61.3333C59.0557 61.3333 58.2646 61.6533 57.6268 62.2933C56.9891 62.9333 56.6691 63.7244 56.6668 64.6666C56.6668 65.611 56.9868 66.4033 57.6268 67.0433C58.2668 67.6833 59.0579 68.0021 60.0002 67.9999ZM56.6668 51.3333H70.8335L63.3335 41.3333H56.6668V51.3333Z" fill="#353245"/>
<path d="M552.312 13.2H564.672V16.368H560.136V30H556.824V16.368H552.312V13.2ZM573.049 17.664C574.369 17.664 575.449 18.096 576.289 18.984C577.153 19.872 577.585 21.072 577.585 22.632V30H574.489V23.016C574.489 21.408 573.553 20.544 572.113 20.544C570.505 20.544 569.473 21.528 569.473 23.52V30H566.377V13.2H569.473V19.344C570.217 18.216 571.417 17.664 573.049 17.664ZM589.349 19.416V18H592.445V30H589.349V28.584C588.413 29.76 587.117 30.336 585.437 30.336C583.829 30.336 582.461 29.736 581.309 28.512C580.181 27.288 579.604 25.776 579.604 24C579.604 22.224 580.181 20.736 581.309 19.512C582.461 18.288 583.829 17.664 585.437 17.664C587.117 17.664 588.413 18.24 589.349 19.416ZM583.637 26.448C584.261 27.072 585.053 27.384 586.013 27.384C586.973 27.384 587.765 27.072 588.389 26.448C589.037 25.8 589.349 24.984 589.349 24C589.349 23.016 589.037 22.2 588.389 21.576C587.765 20.928 586.973 20.616 586.013 20.616C585.053 20.616 584.261 20.928 583.637 21.576C583.013 22.2 582.701 23.016 582.701 24C582.701 24.984 583.013 25.8 583.637 26.448ZM601.924 17.664C603.244 17.664 604.324 18.096 605.164 18.984C606.028 19.872 606.46 21.072 606.46 22.632V30H603.364V23.016C603.364 21.408 602.428 20.544 600.988 20.544C599.38 20.544 598.348 21.528 598.348 23.52V30H595.252V18H598.348V19.344C599.092 18.216 600.292 17.664 601.924 17.664ZM615.776 17.664C617.096 17.664 618.176 18.096 619.016 18.984C619.88 19.872 620.312 21.072 620.312 22.632V30H617.216V23.016C617.216 21.408 616.28 20.544 614.84 20.544C613.232 20.544 612.2 21.528 612.2 23.52V30H609.104V13.2H612.2V19.344C612.944 18.216 614.144 17.664 615.776 17.664ZM635.819 18V20.976H633.107V25.968C633.107 27.264 634.043 27.288 635.819 27.192V30C631.571 30.48 630.011 29.256 630.011 25.968V20.976H627.923V18H630.011V15.576L633.107 14.64V18H635.819ZM648.413 28.512C647.189 29.736 645.677 30.336 643.901 30.336C642.125 30.336 640.613 29.736 639.389 28.512C638.165 27.288 637.565 25.776 637.565 24C637.565 22.224 638.165 20.736 639.389 19.512C640.613 18.288 642.125 17.664 643.901 17.664C645.677 17.664 647.189 18.288 648.413 19.512C649.637 20.736 650.261 22.224 650.261 24C650.261 25.776 649.637 27.288 648.413 28.512ZM641.573 26.376C642.197 27 642.965 27.312 643.901 27.312C644.837 27.312 645.605 27 646.229 26.376C646.853 25.752 647.165 24.96 647.165 24C647.165 23.04 646.853 22.248 646.229 21.624C645.605 21 644.837 20.688 643.901 20.688C642.965 20.688 642.197 21 641.573 21.624C640.973 22.248 640.661 23.04 640.661 24C640.661 24.96 640.973 25.752 641.573 26.376ZM659.375 13.2H663.095L660.431 16.488H657.455L659.375 13.2ZM661.559 19.416V18H664.655V30H661.559V28.584C660.623 29.76 659.327 30.336 657.647 30.336C656.039 30.336 654.671 29.736 653.519 28.512C652.391 27.288 651.815 25.776 651.815 24C651.815 22.224 652.391 20.736 653.519 19.512C654.671 18.288 656.039 17.664 657.647 17.664C659.327 17.664 660.623 18.24 661.559 19.416ZM655.847 26.448C656.471 27.072 657.263 27.384 658.223 27.384C659.183 27.384 659.975 27.072 660.599 26.448C661.247 25.8 661.559 24.984 661.559 24C661.559 23.016 661.247 22.2 660.599 21.576C659.975 20.928 659.183 20.616 658.223 20.616C657.263 20.616 656.471 20.928 655.847 21.576C655.223 22.2 654.911 23.016 654.911 24C654.911 24.984 655.223 25.8 655.847 26.448ZM674.135 17.664C675.455 17.664 676.535 18.096 677.375 18.984C678.239 19.872 678.671 21.072 678.671 22.632V30H675.575V23.016C675.575 21.408 674.639 20.544 673.199 20.544C671.591 20.544 670.559 21.528 670.559 23.52V30H667.463V18H670.559V19.344C671.303 18.216 672.503 17.664 674.135 17.664ZM696.41 19.416V13.2H699.506V30H696.41V28.584C695.498 29.76 694.202 30.336 692.522 30.336C690.914 30.336 689.522 29.736 688.37 28.512C687.242 27.288 686.666 25.776 686.666 24C686.666 22.224 687.242 20.736 688.37 19.512C689.522 18.288 690.914 17.664 692.522 17.664C694.202 17.664 695.498 18.24 696.41 19.416ZM690.698 26.448C691.346 27.072 692.138 27.384 693.098 27.384C694.058 27.384 694.85 27.072 695.474 26.448C696.098 25.8 696.41 24.984 696.41 24C696.41 23.016 696.098 22.2 695.474 21.576C694.85 20.928 694.058 20.616 693.098 20.616C692.138 20.616 691.346 20.928 690.698 21.576C690.074 22.2 689.762 23.016 689.762 24C689.762 24.984 690.074 25.8 690.698 26.448ZM709.082 16.584L708.122 15.12L707.138 16.584H704.282L706.634 13.344H709.562L711.938 16.584H709.082ZM714.002 25.272H704.954C705.362 26.784 706.49 27.528 708.338 27.528C709.514 27.528 710.426 27.12 711.026 26.328L713.522 27.768C712.346 29.472 710.594 30.336 708.29 30.336C706.298 30.336 704.714 29.736 703.514 28.536C702.314 27.336 701.714 25.824 701.714 24C701.714 22.2 702.314 20.688 703.49 19.488C704.666 18.264 706.202 17.664 708.05 17.664C709.802 17.664 711.266 18.264 712.394 19.488C713.546 20.712 714.122 22.2 714.122 24C714.122 24.408 714.074 24.816 714.002 25.272ZM704.906 22.872H711.026C710.666 21.24 709.466 20.448 708.05 20.448C706.394 20.448 705.266 21.336 704.906 22.872ZM706.85 12.744H704.594C704.594 9.36 706.658 8.904 708.53 10.104C709.37 10.704 709.658 10.656 709.658 9.6H711.914C711.914 13.056 709.826 13.392 707.978 12.216C707.162 11.616 706.85 11.688 706.85 12.744ZM731.379 19.416V13.2H734.475V30H731.379V28.584C730.467 29.76 729.171 30.336 727.491 30.336C725.883 30.336 724.491 29.736 723.339 28.512C722.211 27.288 721.635 25.776 721.635 24C721.635 22.224 722.211 20.736 723.339 19.512C724.491 18.288 725.883 17.664 727.491 17.664C729.171 17.664 730.467 18.24 731.379 19.416ZM725.667 26.448C726.315 27.072 727.107 27.384 728.067 27.384C729.027 27.384 729.819 27.072 730.443 26.448C731.067 25.8 731.379 24.984 731.379 24C731.379 23.016 731.067 22.2 730.443 21.576C729.819 20.928 729.027 20.616 728.067 20.616C727.107 20.616 726.315 20.928 725.667 21.576C725.043 22.2 724.731 23.016 724.731 24C724.731 24.984 725.043 25.8 725.667 26.448ZM744.195 13.2L746.115 16.488H743.139L740.475 13.2H744.195ZM746.427 19.416V18H749.523V30H746.427V28.584C745.491 29.76 744.195 30.336 742.515 30.336C740.907 30.336 739.539 29.736 738.387 28.512C737.259 27.288 736.683 25.776 736.683 24C736.683 22.224 737.259 20.736 738.387 19.512C739.539 18.288 740.907 17.664 742.515 17.664C744.195 17.664 745.491 18.24 746.427 19.416ZM740.715 26.448C741.339 27.072 742.131 27.384 743.091 27.384C744.051 27.384 744.843 27.072 745.467 26.448C746.115 25.8 746.427 24.984 746.427 24C746.427 23.016 746.115 22.2 745.467 21.576C744.843 20.928 744.051 20.616 743.091 20.616C742.131 20.616 741.339 20.928 740.715 21.576C740.091 22.2 739.779 23.016 739.779 24C739.779 24.984 740.091 25.8 740.715 26.448ZM759.002 17.664C760.322 17.664 761.402 18.096 762.242 18.984C763.106 19.872 763.538 21.072 763.538 22.632V30H760.442V23.016C760.442 21.408 759.506 20.544 758.066 20.544C756.458 20.544 755.426 21.528 755.426 23.52V30H752.33V18H755.426V19.344C756.17 18.216 757.37 17.664 759.002 17.664ZM775.374 19.488V18H778.398V29.424C778.398 31.272 777.774 32.688 776.55 33.672C775.326 34.656 773.862 35.136 772.134 35.136C769.542 35.136 767.502 34.128 766.446 32.208L769.086 30.696C769.686 31.824 770.742 32.376 772.23 32.376C774.174 32.376 775.374 31.32 775.374 29.424V28.128C774.462 29.352 773.19 29.952 771.534 29.952C769.83 29.952 768.414 29.352 767.262 28.176C766.134 26.976 765.558 25.512 765.558 23.808C765.558 22.104 766.134 20.664 767.286 19.464C768.438 18.264 769.854 17.664 771.534 17.664C773.19 17.664 774.462 18.264 775.374 19.488ZM775.374 23.808C775.374 22.872 775.062 22.08 774.414 21.48C773.79 20.856 772.998 20.544 772.014 20.544C771.03 20.544 770.238 20.856 769.59 21.48C768.966 22.08 768.654 22.872 768.654 23.808C768.654 25.728 770.07 27.096 772.014 27.096C773.958 27.096 775.374 25.728 775.374 23.808Z" fill="#3A3A3A"/>
<path d="M557.808 59H556.128L552.128 47.8H553.728L556.976 57.144L560.208 47.8H561.824L557.808 59ZM565.048 49.864L566.328 47.752H568.008L566.392 49.864H565.048ZM568.792 57.992C567.976 58.808 566.968 59.208 565.8 59.208C564.632 59.208 563.624 58.808 562.808 57.992C561.992 57.176 561.592 56.184 561.592 55C561.592 53.816 561.992 52.824 562.808 52.008C563.624 51.192 564.632 50.792 565.8 50.792C566.28 50.792 566.744 50.856 567.176 51H567.72C568.424 51 568.536 50.712 568.536 50.008V49.816H569.768V50.008C569.768 51.048 569.496 51.688 568.728 51.944C568.744 51.976 568.76 51.992 568.792 52.008C569.608 52.824 570.024 53.816 570.024 55C570.024 56.184 569.608 57.176 568.792 57.992ZM565.8 57.848C566.6 57.848 567.272 57.576 567.816 57.032C568.36 56.488 568.632 55.816 568.632 55C568.632 54.184 568.36 53.512 567.816 52.968C567.272 52.424 566.6 52.152 565.8 52.152C565.016 52.152 564.344 52.424 563.8 52.968C563.256 53.512 562.984 54.184 562.984 55C562.984 55.816 563.256 56.488 563.8 57.032C564.344 57.576 565.016 57.848 565.8 57.848ZM572.369 50.008C571.841 50.008 571.425 49.592 571.425 49.08C571.425 48.568 571.841 48.136 572.369 48.136C572.881 48.136 573.297 48.568 573.297 49.08C573.297 49.592 572.881 50.008 572.369 50.008ZM573.057 59H571.665V51H573.057V59ZM583.165 50.792C585.037 50.792 586.269 52.056 586.269 54.088V59H584.877V54.168C584.877 52.872 584.125 52.12 582.893 52.12C581.501 52.12 580.573 52.968 580.573 54.76V59H579.181V51H580.573V52.152C581.133 51.24 581.997 50.792 583.165 50.792ZM592.196 50.792C594.068 50.792 595.3 52.056 595.3 54.088V59H593.908V54.168C593.908 52.872 593.156 52.12 591.924 52.12C590.532 52.12 589.604 52.968 589.604 54.76V59H588.212V47.8H589.604V52.152C590.164 51.24 591.028 50.792 592.196 50.792ZM597.948 50.008C597.42 50.008 597.004 49.592 597.004 49.08C597.004 48.568 597.42 48.136 597.948 48.136C598.46 48.136 598.876 48.568 598.876 49.08C598.876 49.592 598.46 50.008 597.948 50.008ZM598.636 59H597.243V51H598.636V59ZM605.447 49.944L604.551 48.728L603.639 49.944H602.247L603.831 47.928H605.255L606.839 49.944H605.447ZM608.439 55.64H601.735C602.007 57.064 603.111 57.896 604.631 57.896C605.687 57.896 606.455 57.512 606.935 56.728L608.119 57.4C607.335 58.6 606.167 59.208 604.599 59.208C603.335 59.208 602.295 58.808 601.495 58.024C600.711 57.224 600.311 56.216 600.311 55C600.311 53.8 600.695 52.792 601.479 51.992C602.263 51.192 603.271 50.792 604.503 50.792C605.671 50.792 606.631 51.208 607.367 52.04C608.119 52.856 608.487 53.848 608.487 55.016C608.487 55.224 608.471 55.432 608.439 55.64ZM604.503 52.104C603.015 52.104 601.975 53.016 601.735 54.424H607.079C606.839 52.904 605.783 52.104 604.503 52.104ZM607.687 48.472H606.423L604.935 46.504H606.487L607.687 48.472ZM615.607 55.24V51H616.999V59H615.607V57.848C615.047 58.76 614.183 59.208 613.015 59.208C611.143 59.208 609.911 57.944 609.911 55.912V51H611.303V55.832C611.303 57.128 612.055 57.88 613.287 57.88C614.679 57.88 615.607 57.032 615.607 55.24ZM624.511 59H623.118V47.32H624.511V59ZM629.642 62.232C629.114 62.232 628.698 61.816 628.698 61.304C628.698 60.792 629.114 60.36 629.642 60.36C630.154 60.36 630.57 60.792 630.57 61.304C630.57 61.816 630.154 62.232 629.642 62.232ZM633.61 50.008V49.816H634.842V50.008C634.842 51.16 634.522 51.816 633.546 52.008V59H632.154V57.848C631.594 58.76 630.73 59.208 629.562 59.208C627.69 59.208 626.458 57.944 626.458 55.912V51H627.85V55.832C627.85 57.128 628.602 57.88 629.834 57.88C631.226 57.88 632.154 57.032 632.154 55.24V51H632.794C633.498 51 633.61 50.712 633.61 50.008ZM642.289 52.376V51H643.681V59H642.289V57.624C641.601 58.68 640.593 59.208 639.265 59.208C638.145 59.208 637.185 58.808 636.401 57.992C635.617 57.176 635.217 56.168 635.217 55C635.217 53.832 635.617 52.84 636.401 52.024C637.185 51.208 638.145 50.792 639.265 50.792C640.593 50.792 641.601 51.32 642.289 52.376ZM639.441 57.864C640.257 57.864 640.929 57.592 641.473 57.048C642.017 56.488 642.289 55.816 642.289 55C642.289 54.184 642.017 53.512 641.473 52.968C640.929 52.408 640.257 52.136 639.441 52.136C638.641 52.136 637.969 52.408 637.425 52.968C636.881 53.512 636.609 54.184 636.609 55C636.609 55.816 636.881 56.488 637.425 57.048C637.969 57.592 638.641 57.864 639.441 57.864ZM653.55 59.208C652.35 59.208 651.342 58.808 650.542 58.008C649.742 57.192 649.342 56.2 649.342 55C649.342 53.8 649.742 52.808 650.542 52.008C651.342 51.192 652.35 50.792 653.55 50.792C655.134 50.792 656.462 51.608 657.086 52.888L655.918 53.56C655.518 52.712 654.622 52.152 653.55 52.152C652.75 52.152 652.078 52.424 651.534 52.968C651.006 53.512 650.734 54.184 650.734 55C650.734 55.8 651.006 56.472 651.534 57.016C652.078 57.56 652.75 57.832 653.55 57.832C654.622 57.832 655.518 57.288 655.966 56.44L657.15 57.128C656.462 58.392 655.102 59.208 653.55 59.208ZM662.524 50.792C664.396 50.792 665.628 52.056 665.628 54.088V59H664.236V54.168C664.236 52.872 663.484 52.12 662.252 52.12C660.86 52.12 659.932 52.968 659.932 54.76V59H658.54V47.8H659.932V52.152C660.492 51.24 661.356 50.792 662.524 50.792ZM671.332 62.232C670.804 62.232 670.388 61.816 670.388 61.304C670.388 60.792 670.804 60.36 671.332 60.36C671.844 60.36 672.26 60.792 672.26 61.304C672.26 61.816 671.844 62.232 671.332 62.232ZM674.324 57.992C673.508 58.808 672.5 59.208 671.332 59.208C670.164 59.208 669.156 58.808 668.34 57.992C667.524 57.176 667.124 56.184 667.124 55C667.124 53.816 667.524 52.824 668.34 52.008C669.156 51.192 670.164 50.792 671.332 50.792C672.5 50.792 673.508 51.192 674.324 52.008C675.14 52.824 675.556 53.816 675.556 55C675.556 56.184 675.14 57.176 674.324 57.992ZM671.332 57.848C672.132 57.848 672.804 57.576 673.348 57.032C673.892 56.488 674.164 55.816 674.164 55C674.164 54.184 673.892 53.512 673.348 52.968C672.804 52.424 672.132 52.152 671.332 52.152C670.548 52.152 669.876 52.424 669.332 52.968C668.788 53.512 668.516 54.184 668.516 55C668.516 55.816 668.788 56.488 669.332 57.032C669.876 57.576 670.548 57.848 671.332 57.848ZM681.181 50.792C683.053 50.792 684.285 52.056 684.285 54.088V59H682.893V54.168C682.893 52.872 682.141 52.12 680.909 52.12C679.517 52.12 678.589 52.968 678.589 54.76V59H677.197V51H678.589V52.152C679.149 51.24 680.013 50.792 681.181 50.792ZM694.644 50.792C695.764 50.792 696.724 51.208 697.508 52.024C698.292 52.84 698.692 53.832 698.692 55C698.692 56.168 698.292 57.176 697.508 57.992C696.724 58.808 695.764 59.208 694.644 59.208C693.316 59.208 692.308 58.68 691.62 57.624V62.2H690.228V51H691.62V52.376C692.308 51.32 693.316 50.792 694.644 50.792ZM694.468 57.864C695.268 57.864 695.94 57.592 696.484 57.048C697.028 56.488 697.3 55.816 697.3 55C697.3 54.184 697.028 53.512 696.484 52.968C695.94 52.408 695.268 52.136 694.468 52.136C693.652 52.136 692.98 52.408 692.436 52.968C691.892 53.512 691.62 54.184 691.62 55C691.62 55.816 691.892 56.488 692.436 57.048C692.98 57.592 693.652 57.864 694.468 57.864ZM704.337 50.792C706.209 50.792 707.441 52.056 707.441 54.088V59H706.049V54.168C706.049 52.872 705.297 52.12 704.065 52.12C702.673 52.12 701.745 52.968 701.745 54.76V59H700.353V47.8H701.745V52.152C702.305 51.24 703.169 50.792 704.337 50.792ZM716.36 50.008V49.816H717.592V50.008C717.592 51.16 717.272 51.816 716.296 52.008V59H714.904V57.848C714.344 58.76 713.48 59.208 712.312 59.208C710.44 59.208 709.208 57.944 709.208 55.912V51H710.6V55.832C710.6 57.128 711.352 57.88 712.584 57.88C713.976 57.88 714.904 57.032 714.904 55.24V51H715.544C716.248 51 716.36 50.712 716.36 50.008ZM725.167 57.992C724.351 58.808 723.343 59.208 722.175 59.208C721.007 59.208 719.999 58.808 719.183 57.992C718.367 57.176 717.967 56.184 717.967 55C717.967 53.816 718.367 52.824 719.183 52.008C719.999 51.192 721.007 50.792 722.175 50.792C722.655 50.792 723.119 50.856 723.551 51H724.095C724.799 51 724.911 50.712 724.911 50.008V49.816H726.143V50.008C726.143 51.048 725.871 51.688 725.103 51.944C725.119 51.976 725.135 51.992 725.167 52.008C725.983 52.824 726.399 53.816 726.399 55C726.399 56.184 725.983 57.176 725.167 57.992ZM722.175 57.848C722.975 57.848 723.647 57.576 724.191 57.032C724.735 56.488 725.007 55.816 725.007 55C725.007 54.184 724.735 53.512 724.191 52.968C723.647 52.424 722.975 52.152 722.175 52.152C721.391 52.152 720.719 52.424 720.175 52.968C719.631 53.512 719.359 54.184 719.359 55C719.359 55.816 719.631 56.488 720.175 57.032C720.719 57.576 721.391 57.848 722.175 57.848ZM732.024 50.792C733.896 50.792 735.128 52.056 735.128 54.088V59H733.736V54.168C733.736 52.872 732.984 52.12 731.752 52.12C730.36 52.12 729.432 52.968 729.432 54.76V59H728.04V51H729.432V52.152C729.992 51.24 730.856 50.792 732.024 50.792ZM743.712 52.376V51H745.088V58.664C745.088 59.848 744.688 60.76 743.888 61.416C743.088 62.072 742.128 62.408 741.008 62.408C739.216 62.408 737.872 61.72 737.216 60.456L738.432 59.768C738.864 60.664 739.744 61.112 741.04 61.112C742.704 61.112 743.712 60.184 743.712 58.664V57.528C743.008 58.6 742 59.128 740.704 59.128C739.568 59.128 738.592 58.728 737.808 57.912C737.024 57.096 736.624 56.12 736.624 54.952C736.624 53.784 737.024 52.808 737.808 52.008C738.592 51.192 739.568 50.792 740.704 50.792C742.016 50.792 743.024 51.32 743.712 52.376ZM743.712 54.952C743.712 54.152 743.44 53.48 742.896 52.936C742.352 52.392 741.68 52.12 740.864 52.12C740.048 52.12 739.376 52.392 738.832 52.936C738.288 53.48 738.016 54.152 738.016 54.952C738.016 55.768 738.288 56.44 738.832 56.984C739.376 57.528 740.048 57.8 740.864 57.8C741.68 57.8 742.352 57.528 742.896 56.984C743.44 56.44 743.712 55.768 743.712 54.952ZM755.549 51V52.344H753.421V56.68C753.421 57.912 754.125 57.816 755.549 57.752V59C753.117 59.32 752.029 58.664 752.029 56.68V52.344H750.445V51H752.029V49.176L753.421 48.76V51H755.549ZM761.228 50.792C763.1 50.792 764.332 52.056 764.332 54.088V59H762.94V54.168C762.94 52.872 762.188 52.12 760.956 52.12C759.564 52.12 758.636 52.968 758.636 54.76V59H757.243V47.8H758.636V52.152C759.196 51.24 760.06 50.792 761.228 50.792ZM770.355 47.8H772.035L770.419 49.912H769.075L770.355 47.8ZM773.251 50.008V49.816H774.483V50.008C774.483 51.16 774.163 51.816 773.187 52.008V59H771.795V57.848C771.235 58.76 770.371 59.208 769.203 59.208C767.331 59.208 766.099 57.944 766.099 55.912V51H767.491V55.832C767.491 57.128 768.243 57.88 769.475 57.88C770.867 57.88 771.795 57.032 771.795 55.24V51H772.435C773.139 51 773.251 50.712 773.251 50.008ZM779.066 59.208C777.866 59.208 776.858 58.808 776.058 58.008C775.258 57.192 774.858 56.2 774.858 55C774.858 53.8 775.258 52.808 776.058 52.008C776.858 51.192 777.866 50.792 779.066 50.792C780.65 50.792 781.978 51.608 782.602 52.888L781.434 53.56C781.034 52.712 780.138 52.152 779.066 52.152C778.266 52.152 777.594 52.424 777.05 52.968C776.522 53.512 776.25 54.184 776.25 55C776.25 55.8 776.522 56.472 777.05 57.016C777.594 57.56 778.266 57.832 779.066 57.832C780.138 57.832 781.034 57.288 781.482 56.44L782.666 57.128C781.978 58.392 780.618 59.208 779.066 59.208ZM557.408 75V76.344H555.28V80.68C555.28 81.912 555.984 81.816 557.408 81.752V83C554.976 83.32 553.888 82.664 553.888 80.68V76.344H552.304V75H553.888V73.176L555.28 72.76V75H557.408ZM563.087 74.792C564.959 74.792 566.191 76.056 566.191 78.088V83H564.799V78.168C564.799 76.872 564.047 76.12 562.815 76.12C561.423 76.12 560.495 76.968 560.495 78.76V83H559.103V71.8H560.495V76.152C561.055 75.24 561.919 74.792 563.087 74.792ZM574.758 76.376V75H576.15V83H574.758V81.624C574.07 82.68 573.062 83.208 571.734 83.208C570.614 83.208 569.654 82.808 568.87 81.992C568.086 81.176 567.686 80.168 567.686 79C567.686 77.832 568.086 76.84 568.87 76.024C569.654 75.208 570.614 74.792 571.734 74.792C573.062 74.792 574.07 75.32 574.758 76.376ZM571.91 81.864C572.726 81.864 573.398 81.592 573.942 81.048C574.486 80.488 574.758 79.816 574.758 79C574.758 78.184 574.486 77.512 573.942 76.968C573.398 76.408 572.726 76.136 571.91 76.136C571.11 76.136 570.438 76.408 569.894 76.968C569.35 77.512 569.078 78.184 569.078 79C569.078 79.816 569.35 80.488 569.894 81.048C570.438 81.592 571.11 81.864 571.91 81.864ZM582.243 74.792C584.115 74.792 585.347 76.056 585.347 78.088V83H583.955V78.168C583.955 76.872 583.203 76.12 581.971 76.12C580.579 76.12 579.651 76.968 579.651 78.76V83H578.259V75H579.651V76.152C580.211 75.24 581.075 74.792 582.243 74.792ZM591.274 74.792C593.146 74.792 594.378 76.056 594.378 78.088V83H592.986V78.168C592.986 76.872 592.234 76.12 591.002 76.12C589.61 76.12 588.682 76.968 588.682 78.76V83H587.29V71.8H588.682V76.152C589.242 75.24 590.106 74.792 591.274 74.792ZM604.674 75V76.344H602.546V80.68C602.546 81.912 603.25 81.816 604.674 81.752V83C602.242 83.32 601.154 82.664 601.154 80.68V76.344H599.57V75H601.154V73.176L602.546 72.76V75H604.674ZM613.121 81.992C612.305 82.808 611.297 83.208 610.129 83.208C608.961 83.208 607.953 82.808 607.137 81.992C606.321 81.176 605.921 80.184 605.921 79C605.921 77.816 606.321 76.824 607.137 76.008C607.953 75.192 608.961 74.792 610.129 74.792C611.297 74.792 612.305 75.192 613.121 76.008C613.937 76.824 614.352 77.816 614.352 79C614.352 80.184 613.937 81.176 613.121 81.992ZM610.129 81.848C610.929 81.848 611.601 81.576 612.145 81.032C612.689 80.488 612.961 79.816 612.961 79C612.961 78.184 612.689 77.512 612.145 76.968C611.601 76.424 610.929 76.152 610.129 76.152C609.345 76.152 608.673 76.424 608.129 76.968C607.585 77.512 607.312 78.184 607.312 79C607.312 79.816 607.585 80.488 608.129 81.032C608.673 81.576 609.345 81.848 610.129 81.848ZM620.778 71.8H622.458L620.842 73.912H619.498L620.778 71.8ZM622.618 76.376V75H624.01V83H622.618V81.624C621.93 82.68 620.922 83.208 619.594 83.208C618.474 83.208 617.514 82.808 616.73 81.992C615.946 81.176 615.546 80.168 615.546 79C615.546 77.832 615.946 76.84 616.73 76.024C617.514 75.208 618.474 74.792 619.594 74.792C620.922 74.792 621.93 75.32 622.618 76.376ZM619.77 81.864C620.586 81.864 621.258 81.592 621.802 81.048C622.346 80.488 622.618 79.816 622.618 79C622.618 78.184 622.346 77.512 621.802 76.968C621.258 76.408 620.586 76.136 619.77 76.136C618.97 76.136 618.298 76.408 617.754 76.968C617.21 77.512 616.938 78.184 616.938 79C616.938 79.816 617.21 80.488 617.754 81.048C618.298 81.592 618.97 81.864 619.77 81.864ZM630.103 74.792C631.975 74.792 633.207 76.056 633.207 78.088V83H631.815V78.168C631.815 76.872 631.063 76.12 629.831 76.12C628.439 76.12 627.511 76.968 627.511 78.76V83H626.118V75H627.511V76.152C628.071 75.24 628.935 74.792 630.103 74.792ZM641.966 78.872L645.918 83H644.19L640.542 79.208V83H639.15V71.8H640.542V78.536L643.998 75H645.79L641.966 78.872ZM651.196 74.792C653.068 74.792 654.3 76.056 654.3 78.088V83H652.908V78.168C652.908 76.872 652.156 76.12 650.924 76.12C649.532 76.12 648.604 76.968 648.604 78.76V83H647.212V71.8H648.604V76.152C649.164 75.24 650.028 74.792 651.196 74.792ZM661.028 71.8H662.708L661.092 73.912H659.748L661.028 71.8ZM662.868 76.376V75H664.26V83H662.868V81.624C662.18 82.68 661.172 83.208 659.844 83.208C658.724 83.208 657.764 82.808 656.98 81.992C656.196 81.176 655.796 80.168 655.796 79C655.796 77.832 656.196 76.84 656.98 76.024C657.764 75.208 658.724 74.792 659.844 74.792C661.172 74.792 662.18 75.32 662.868 76.376ZM660.02 81.864C660.836 81.864 661.508 81.592 662.052 81.048C662.596 80.488 662.868 79.816 662.868 79C662.868 78.184 662.596 77.512 662.052 76.968C661.508 76.408 660.836 76.136 660.02 76.136C659.22 76.136 658.548 76.408 658.004 76.968C657.46 77.512 657.188 78.184 657.188 79C657.188 79.816 657.46 80.488 658.004 81.048C658.548 81.592 659.22 81.864 660.02 81.864ZM670.129 83.208C668.929 83.208 667.921 82.808 667.121 82.008C666.321 81.192 665.921 80.2 665.921 79C665.921 77.8 666.321 76.808 667.121 76.008C667.921 75.192 668.929 74.792 670.129 74.792C671.713 74.792 673.041 75.608 673.665 76.888L672.497 77.56C672.097 76.712 671.201 76.152 670.129 76.152C669.329 76.152 668.657 76.424 668.113 76.968C667.585 77.512 667.312 78.184 667.312 79C667.312 79.8 667.585 80.472 668.113 81.016C668.657 81.56 669.329 81.832 670.129 81.832C671.201 81.832 672.097 81.288 672.545 80.44L673.729 81.128C673.041 82.392 671.681 83.208 670.129 83.208ZM683.103 74.792C684.975 74.792 686.207 76.056 686.207 78.088V83H684.815V78.168C684.815 76.872 684.063 76.12 682.831 76.12C681.439 76.12 680.511 76.968 680.511 78.76V83H679.118V75H680.511V76.152C681.071 75.24 681.935 74.792 683.103 74.792ZM692.134 74.792C694.006 74.792 695.238 76.056 695.238 78.088V83H693.846V78.168C693.846 76.872 693.094 76.12 691.862 76.12C690.47 76.12 689.542 76.968 689.542 78.76V83H688.15V71.8H689.542V76.152C690.102 75.24 690.966 74.792 692.134 74.792ZM703.805 76.376V75H705.197V83H703.805V81.624C703.117 82.68 702.109 83.208 700.781 83.208C699.661 83.208 698.701 82.808 697.917 81.992C697.133 81.176 696.733 80.168 696.733 79C696.733 77.832 697.133 76.84 697.917 76.024C698.701 75.208 699.661 74.792 700.781 74.792C702.109 74.792 703.117 75.32 703.805 76.376ZM700.957 81.864C701.773 81.864 702.445 81.592 702.989 81.048C703.533 80.488 703.805 79.816 703.805 79C703.805 78.184 703.533 77.512 702.989 76.968C702.445 76.408 701.773 76.136 700.957 76.136C700.157 76.136 699.485 76.408 698.941 76.968C698.397 77.512 698.125 78.184 698.125 79C698.125 79.816 698.397 80.488 698.941 81.048C699.485 81.592 700.157 81.864 700.957 81.864ZM712.826 79.24V75H714.218V83H712.826V81.848C712.266 82.76 711.402 83.208 710.234 83.208C708.362 83.208 707.13 81.944 707.13 79.912V75H708.522V79.832C708.522 81.128 709.274 81.88 710.506 81.88C711.898 81.88 712.826 81.032 712.826 79.24Z" fill="#3A3A3A"/>
<path d="M464.25 20.5C461.266 20.5 458.405 21.6853 456.295 23.795C454.185 25.9048 453 28.7663 453 31.75V35.5H523V31.75C523 28.7663 521.815 25.9048 519.705 23.795C517.595 21.6853 514.734 20.5 511.75 20.5H464.25ZM453 64.25V40.5H523V64.25C523 67.2337 521.815 70.0952 519.705 72.2049C517.595 74.3147 514.734 75.5 511.75 75.5H464.25C461.266 75.5 458.405 74.3147 456.295 72.2049C454.185 70.0952 453 67.2337 453 64.25ZM500.5 55.5C499.837 55.5 499.201 55.7634 498.732 56.2322C498.263 56.7011 498 57.337 498 58C498 58.663 498.263 59.2989 498.732 59.7678C499.201 60.2366 499.837 60.5 500.5 60.5H508C508.663 60.5 509.299 60.2366 509.768 59.7678C510.237 59.2989 510.5 58.663 510.5 58C510.5 57.337 510.237 56.7011 509.768 56.2322C509.299 55.7634 508.663 55.5 508 55.5H500.5Z" fill="#353245"/>
<path d="M1001.31 13.2H1013.67V16.368H1009.14V30H1005.82V16.368H1001.31V13.2ZM1022.05 17.664C1023.37 17.664 1024.45 18.096 1025.29 18.984C1026.15 19.872 1026.58 21.072 1026.58 22.632V30H1023.49V23.016C1023.49 21.408 1022.55 20.544 1021.11 20.544C1019.5 20.544 1018.47 21.528 1018.47 23.52V30H1015.38V13.2H1018.47V19.344C1019.22 18.216 1020.42 17.664 1022.05 17.664ZM1036.04 16.584L1035.01 15.024L1033.96 16.584H1030.88L1033.43 13.104H1036.57L1039.12 16.584H1036.04ZM1040.89 25.272H1031.84C1032.25 26.784 1033.38 27.528 1035.23 27.528C1036.4 27.528 1037.32 27.12 1037.92 26.328L1040.41 27.768C1039.24 29.472 1037.48 30.336 1035.18 30.336C1033.19 30.336 1031.6 29.736 1030.4 28.536C1029.2 27.336 1028.6 25.824 1028.6 24C1028.6 22.2 1029.2 20.688 1030.38 19.488C1031.56 18.264 1033.09 17.664 1034.94 17.664C1036.69 17.664 1038.16 18.264 1039.28 19.488C1040.44 20.712 1041.01 22.2 1041.01 24C1041.01 24.408 1040.96 24.816 1040.89 25.272ZM1031.8 22.872H1037.92C1037.56 21.24 1036.36 20.448 1034.94 20.448C1033.28 20.448 1032.16 21.336 1031.8 22.872ZM1056.45 17.664C1059.21 17.664 1060.98 19.608 1060.98 22.608V30H1057.89V22.824C1057.89 21.384 1057.14 20.544 1055.87 20.544C1054.45 20.544 1053.64 21.504 1053.64 23.256V30H1050.54V22.824C1050.54 21.384 1049.8 20.544 1048.53 20.544C1047.16 20.544 1046.27 21.504 1046.27 23.256V30H1043.17V18H1046.27V19.272C1046.99 18.192 1048.09 17.664 1049.61 17.664C1051.07 17.664 1052.17 18.24 1052.87 19.392C1053.66 18.24 1054.86 17.664 1056.45 17.664ZM1077.53 24.48V18H1079.6C1080.39 17.976 1080.51 17.568 1080.51 16.704V16.296H1083V16.704C1083 18.816 1082.4 19.824 1080.63 20.088V30H1077.53V28.656C1076.79 29.784 1075.59 30.336 1073.96 30.336C1072.64 30.336 1071.56 29.904 1070.69 29.016C1069.85 28.128 1069.42 26.928 1069.42 25.368V18H1072.52V24.984C1072.52 26.592 1073.45 27.456 1074.89 27.456C1076.5 27.456 1077.53 26.472 1077.53 24.48ZM1091.38 24.48V18H1094.48V30H1091.38V28.656C1090.64 29.784 1089.44 30.336 1087.81 30.336C1086.49 30.336 1085.41 29.904 1084.54 29.016C1083.7 28.128 1083.27 26.928 1083.27 25.368V18H1086.37V24.984C1086.37 26.592 1087.3 27.456 1088.74 27.456C1090.35 27.456 1091.38 26.472 1091.38 24.48ZM1115.53 14.688H1117.02V16.704H1115.53V30H1112.43V28.584C1111.5 29.76 1110.2 30.336 1108.52 30.336C1106.91 30.336 1105.55 29.736 1104.39 28.512C1103.27 27.288 1102.69 25.776 1102.69 24C1102.69 22.224 1103.27 20.736 1104.39 19.512C1105.55 18.288 1106.91 17.664 1108.52 17.664C1110.2 17.664 1111.5 18.24 1112.43 19.416V16.704H1108.81V14.688H1112.43V13.2H1115.53V14.688ZM1106.72 26.448C1107.35 27.072 1108.14 27.384 1109.1 27.384C1110.06 27.384 1110.85 27.072 1111.47 26.448C1112.12 25.8 1112.43 24.984 1112.43 24C1112.43 23.016 1112.12 22.2 1111.47 21.576C1110.85 20.928 1110.06 20.616 1109.1 20.616C1108.14 20.616 1107.35 20.928 1106.72 21.576C1106.1 22.2 1105.79 23.016 1105.79 24C1105.79 24.984 1106.1 25.8 1106.72 26.448ZM1125.22 15.984C1124.29 15.336 1123.95 15.408 1123.95 16.56H1121.45C1121.45 12.792 1123.76 12.312 1125.82 13.656C1126.76 14.304 1127.07 14.232 1127.07 13.08H1129.59C1129.59 16.92 1127.26 17.28 1125.22 15.984ZM1127.62 19.416V18H1130.72V30H1127.62V28.584C1126.69 29.76 1125.39 30.336 1123.71 30.336C1122.1 30.336 1120.73 29.736 1119.58 28.512C1118.45 27.288 1117.88 25.776 1117.88 24C1117.88 22.224 1118.45 20.736 1119.58 19.512C1120.73 18.288 1122.1 17.664 1123.71 17.664C1125.39 17.664 1126.69 18.24 1127.62 19.416ZM1121.91 26.448C1122.53 27.072 1123.33 27.384 1124.29 27.384C1125.25 27.384 1126.04 27.072 1126.66 26.448C1127.31 25.8 1127.62 24.984 1127.62 24C1127.62 23.016 1127.31 22.2 1126.66 21.576C1126.04 20.928 1125.25 20.616 1124.29 20.616C1123.33 20.616 1122.53 20.928 1121.91 21.576C1121.29 22.2 1120.97 23.016 1120.97 24C1120.97 24.984 1121.29 25.8 1121.91 26.448ZM1135.06 16.944C1134.03 16.944 1133.17 16.104 1133.17 15.096C1133.17 14.088 1134.03 13.224 1135.06 13.224C1136.12 13.224 1136.98 14.088 1136.98 15.096C1136.98 16.104 1136.12 16.944 1135.06 16.944ZM1136.62 30H1133.53V18H1136.62V30ZM1144.3 14.76L1148.72 13.2H1151.6V30H1148.29V16.704L1145.12 17.592L1144.3 14.76ZM1160.88 30.336C1158.79 30.336 1157.14 29.544 1155.94 27.96C1154.76 26.352 1154.16 24.24 1154.16 21.6C1154.16 18.96 1154.76 16.848 1155.94 15.264C1157.14 13.656 1158.79 12.864 1160.88 12.864C1162.99 12.864 1164.65 13.656 1165.82 15.264C1167 16.848 1167.6 18.96 1167.6 21.6C1167.6 24.24 1167 26.352 1165.82 27.96C1164.65 29.544 1162.99 30.336 1160.88 30.336ZM1164.31 21.6C1164.31 18.024 1163.11 16.08 1160.88 16.08C1158.65 16.08 1157.47 18.024 1157.47 21.6C1157.47 25.176 1158.65 27.096 1160.88 27.096C1163.11 27.096 1164.31 25.152 1164.31 21.6ZM1175.98 19.656C1175.22 20.4 1174.26 20.784 1173.1 20.784C1171.95 20.784 1170.99 20.4 1170.2 19.632C1169.43 18.864 1169.05 17.928 1169.05 16.824C1169.05 15.72 1169.43 14.784 1170.2 14.016C1170.99 13.248 1171.95 12.864 1173.1 12.864C1174.26 12.864 1175.22 13.248 1175.98 14.016C1176.75 14.76 1177.14 15.696 1177.14 16.824C1177.14 17.952 1176.75 18.888 1175.98 19.656ZM1172.19 28.296L1170.75 27.456L1181.7 15.288L1183.16 16.104L1172.19 28.296ZM1172 17.928C1172.58 18.504 1173.58 18.504 1174.16 17.928C1174.74 17.328 1174.74 16.32 1174.16 15.744C1173.58 15.168 1172.58 15.168 1172 15.744C1171.45 16.32 1171.45 17.328 1172 17.928ZM1184.1 29.136C1183.33 29.904 1182.37 30.288 1181.22 30.288C1180.06 30.288 1179.1 29.904 1178.34 29.136C1177.57 28.368 1177.18 27.432 1177.18 26.328C1177.18 25.224 1177.57 24.288 1178.34 23.52C1179.1 22.752 1180.06 22.368 1181.22 22.368C1182.37 22.368 1183.33 22.752 1184.1 23.52C1184.86 24.288 1185.25 25.224 1185.25 26.328C1185.25 27.432 1184.86 28.368 1184.1 29.136ZM1182.7 26.328C1182.7 25.464 1182.08 24.792 1181.22 24.792C1180.35 24.792 1179.73 25.464 1179.73 26.328C1179.73 27.192 1180.35 27.864 1181.22 27.864C1182.08 27.864 1182.7 27.168 1182.7 26.328Z" fill="#3A3A3A"/>
<path d="M1009.16 56.152V47.8H1010.65V59H1009.45L1003.69 50.632V59H1002.2V47.8H1003.4L1009.16 56.152ZM1016.88 50.792C1018.76 50.792 1019.99 52.056 1019.99 54.088V59H1018.6V54.168C1018.6 52.872 1017.84 52.12 1016.61 52.12C1015.22 52.12 1014.29 52.968 1014.29 54.76V59H1012.9V47.8H1014.29V52.152C1014.85 51.24 1015.72 50.792 1016.88 50.792ZM1027.31 49.96L1026.41 48.744L1025.5 49.96H1024.11L1025.69 47.944H1027.12L1028.7 49.96H1027.31ZM1028.56 52.376V51H1029.95V59H1028.56V57.624C1027.87 58.68 1026.86 59.208 1025.53 59.208C1024.41 59.208 1023.45 58.808 1022.67 57.992C1021.88 57.176 1021.48 56.168 1021.48 55C1021.48 53.832 1021.88 52.84 1022.67 52.024C1023.45 51.208 1024.41 50.792 1025.53 50.792C1026.86 50.792 1027.87 51.32 1028.56 52.376ZM1025.71 57.864C1026.52 57.864 1027.2 57.592 1027.74 57.048C1028.28 56.488 1028.56 55.816 1028.56 55C1028.56 54.184 1028.28 53.512 1027.74 52.968C1027.2 52.408 1026.52 52.136 1025.71 52.136C1024.91 52.136 1024.24 52.408 1023.69 52.968C1023.15 53.512 1022.88 54.184 1022.88 55C1022.88 55.816 1023.15 56.488 1023.69 57.048C1024.24 57.592 1024.91 57.864 1025.71 57.864ZM1025.8 62.232C1025.28 62.232 1024.86 61.816 1024.86 61.304C1024.86 60.792 1025.28 60.36 1025.8 60.36C1026.32 60.36 1026.73 60.792 1026.73 61.304C1026.73 61.816 1026.32 62.232 1025.8 62.232ZM1036.04 50.792C1037.91 50.792 1039.14 52.056 1039.14 54.088V59H1037.75V54.168C1037.75 52.872 1037 52.12 1035.77 52.12C1034.38 52.12 1033.45 52.968 1033.45 54.76V59H1032.06V51H1033.45V52.152C1034.01 51.24 1034.87 50.792 1036.04 50.792ZM1049.07 50.792C1050.94 50.792 1052.18 52.056 1052.18 54.088V59H1050.78V54.168C1050.78 52.872 1050.03 52.12 1048.8 52.12C1047.41 52.12 1046.48 52.968 1046.48 54.76V59H1045.09V51H1046.48V52.152C1047.04 51.24 1047.9 50.792 1049.07 50.792ZM1060.76 52.376V51H1062.13V58.664C1062.13 59.848 1061.73 60.76 1060.93 61.416C1060.13 62.072 1059.17 62.408 1058.05 62.408C1056.26 62.408 1054.92 61.72 1054.26 60.456L1055.48 59.768C1055.91 60.664 1056.79 61.112 1058.09 61.112C1059.75 61.112 1060.76 60.184 1060.76 58.664V57.528C1060.05 58.6 1059.05 59.128 1057.75 59.128C1056.61 59.128 1055.64 58.728 1054.85 57.912C1054.07 57.096 1053.67 56.12 1053.67 54.952C1053.67 53.784 1054.07 52.808 1054.85 52.008C1055.64 51.192 1056.61 50.792 1057.75 50.792C1059.06 50.792 1060.07 51.32 1060.76 52.376ZM1060.76 54.952C1060.76 54.152 1060.49 53.48 1059.94 52.936C1059.4 52.392 1058.73 52.12 1057.91 52.12C1057.09 52.12 1056.42 52.392 1055.88 52.936C1055.33 53.48 1055.06 54.152 1055.06 54.952C1055.06 55.768 1055.33 56.44 1055.88 56.984C1056.42 57.528 1057.09 57.8 1057.91 57.8C1058.73 57.8 1059.4 57.528 1059.94 56.984C1060.49 56.44 1060.76 55.768 1060.76 54.952ZM1070.87 52.376V51H1072.26V59H1070.87V57.624C1070.18 58.68 1069.17 59.208 1067.84 59.208C1066.72 59.208 1065.76 58.808 1064.98 57.992C1064.2 57.176 1063.8 56.168 1063.8 55C1063.8 53.832 1064.2 52.84 1064.98 52.024C1065.76 51.208 1066.72 50.792 1067.84 50.792C1069.17 50.792 1070.18 51.32 1070.87 52.376ZM1068.02 57.864C1068.84 57.864 1069.51 57.592 1070.05 57.048C1070.6 56.488 1070.87 55.816 1070.87 55C1070.87 54.184 1070.6 53.512 1070.05 52.968C1069.51 52.408 1068.84 52.136 1068.02 52.136C1067.22 52.136 1066.55 52.408 1066 52.968C1065.46 53.512 1065.19 54.184 1065.19 55C1065.19 55.816 1065.46 56.488 1066 57.048C1066.55 57.592 1067.22 57.864 1068.02 57.864ZM1077.65 57.272L1079.95 51H1081.44L1078.18 59.496C1077.49 61.304 1076.22 62.312 1074.62 62.2V60.904C1075.6 60.984 1076.32 60.44 1076.78 59.272L1076.93 58.968L1073.44 51H1074.93L1077.65 57.272ZM1093.58 50.008V49.816H1094.81V50.008C1094.81 51.16 1094.49 51.816 1093.51 52.008V59H1092.12V57.848C1091.56 58.76 1090.7 59.208 1089.53 59.208C1087.66 59.208 1086.43 57.944 1086.43 55.912V51H1087.82V55.832C1087.82 57.128 1088.57 57.88 1089.8 57.88C1091.19 57.88 1092.12 57.032 1092.12 55.24V51H1092.76C1093.47 51 1093.58 50.712 1093.58 50.008ZM1101.15 55.24V51H1102.55V59H1101.15V57.848C1100.59 58.76 1099.73 59.208 1098.56 59.208C1096.69 59.208 1095.46 57.944 1095.46 55.912V51H1096.85V55.832C1096.85 57.128 1097.6 57.88 1098.83 57.88C1100.23 57.88 1101.15 57.032 1101.15 55.24ZM1116.68 48.872H1117.75V49.896H1116.68V59H1115.29V57.624C1114.6 58.68 1113.59 59.208 1112.27 59.208C1111.15 59.208 1110.19 58.808 1109.4 57.992C1108.62 57.176 1108.22 56.168 1108.22 55C1108.22 53.832 1108.62 52.84 1109.4 52.024C1110.19 51.208 1111.15 50.792 1112.27 50.792C1113.59 50.792 1114.6 51.32 1115.29 52.376V49.896H1112.52V48.872H1115.29V47.8H1116.68V48.872ZM1112.44 57.864C1113.26 57.864 1113.93 57.592 1114.47 57.048C1115.02 56.488 1115.29 55.816 1115.29 55C1115.29 54.184 1115.02 53.512 1114.47 52.968C1113.93 52.408 1113.26 52.136 1112.44 52.136C1111.64 52.136 1110.97 52.408 1110.43 52.968C1109.88 53.512 1109.61 54.184 1109.61 55C1109.61 55.816 1109.88 56.488 1110.43 57.048C1110.97 57.592 1111.64 57.864 1112.44 57.864ZM1123.24 49.448C1122.47 48.808 1122.08 48.792 1122.08 49.832H1120.92C1120.92 47.688 1122.2 47.4 1123.38 48.248C1124.16 48.888 1124.53 48.904 1124.53 47.88H1125.7C1125.7 50.008 1124.45 50.296 1123.24 49.448ZM1125.56 52.376V51H1126.95V59H1125.56V57.624C1124.87 58.68 1123.86 59.208 1122.53 59.208C1121.41 59.208 1120.45 58.808 1119.67 57.992C1118.88 57.176 1118.48 56.168 1118.48 55C1118.48 53.832 1118.88 52.84 1119.67 52.024C1120.45 51.208 1121.41 50.792 1122.53 50.792C1123.86 50.792 1124.87 51.32 1125.56 52.376ZM1122.71 57.864C1123.52 57.864 1124.2 57.592 1124.74 57.048C1125.28 56.488 1125.56 55.816 1125.56 55C1125.56 54.184 1125.28 53.512 1124.74 52.968C1124.2 52.408 1123.52 52.136 1122.71 52.136C1121.91 52.136 1121.24 52.408 1120.69 52.968C1120.15 53.512 1119.88 54.184 1119.88 55C1119.88 55.816 1120.15 56.488 1120.69 57.048C1121.24 57.592 1121.91 57.864 1122.71 57.864ZM1129.76 50.008C1129.23 50.008 1128.82 49.592 1128.82 49.08C1128.82 48.568 1129.23 48.136 1129.76 48.136C1130.27 48.136 1130.69 48.568 1130.69 49.08C1130.69 49.592 1130.27 50.008 1129.76 50.008ZM1130.45 59H1129.06V51H1130.45V59ZM1135.74 48.824L1138.68 47.8H1139.96V59H1138.49V49.4L1136.11 50.104L1135.74 48.824ZM1149.44 57.624C1148.69 58.68 1147.62 59.208 1146.26 59.208C1144.9 59.208 1143.83 58.68 1143.07 57.624C1142.32 56.568 1141.94 55.16 1141.94 53.4C1141.94 51.64 1142.32 50.232 1143.07 49.176C1143.83 48.12 1144.9 47.592 1146.26 47.592C1147.62 47.592 1148.69 48.12 1149.44 49.176C1150.19 50.232 1150.58 51.64 1150.58 53.4C1150.58 55.16 1150.19 56.568 1149.44 57.624ZM1143.43 53.4C1143.43 56.168 1144.45 57.752 1146.26 57.752C1148.07 57.752 1149.11 56.168 1149.11 53.4C1149.11 50.632 1148.07 49.032 1146.26 49.032C1144.45 49.032 1143.43 50.6 1143.43 53.4ZM1154.39 52.552C1153.67 52.552 1153.06 52.312 1152.58 51.832C1152.1 51.352 1151.86 50.76 1151.86 50.072C1151.86 49.384 1152.1 48.808 1152.58 48.328C1153.08 47.832 1153.67 47.592 1154.39 47.592C1155.11 47.592 1155.72 47.832 1156.2 48.312C1156.68 48.792 1156.92 49.384 1156.92 50.072C1156.92 50.76 1156.68 51.352 1156.2 51.832C1155.74 52.312 1155.13 52.552 1154.39 52.552ZM1153.11 50.072C1153.11 50.824 1153.64 51.384 1154.39 51.384C1155.14 51.384 1155.67 50.792 1155.67 50.072C1155.67 49.352 1155.14 48.776 1154.39 48.776C1153.64 48.776 1153.11 49.352 1153.11 50.072ZM1153.38 57.864L1152.62 57.416L1160.06 49.096L1160.84 49.528L1153.38 57.864ZM1161.03 58.472C1160.55 58.952 1159.94 59.192 1159.22 59.192C1158.5 59.192 1157.9 58.952 1157.42 58.472C1156.94 57.992 1156.7 57.4 1156.7 56.712C1156.7 56.024 1156.94 55.432 1157.42 54.952C1157.9 54.472 1158.5 54.232 1159.22 54.232C1159.94 54.232 1160.55 54.472 1161.03 54.952C1161.51 55.432 1161.75 56.024 1161.75 56.712C1161.75 57.4 1161.51 57.992 1161.03 58.472ZM1158.3 57.64C1158.54 57.88 1158.86 58.008 1159.22 58.008C1159.59 58.008 1159.9 57.88 1160.14 57.64C1160.63 57.128 1160.63 56.296 1160.14 55.8C1159.9 55.544 1159.59 55.416 1159.22 55.416C1158.86 55.416 1158.54 55.544 1158.3 55.8C1157.83 56.296 1157.83 57.128 1158.3 57.64ZM1174.31 52.376V47.8H1175.7V59H1174.31V57.624C1173.62 58.68 1172.61 59.208 1171.28 59.208C1170.16 59.208 1169.2 58.808 1168.42 57.992C1167.63 57.176 1167.23 56.168 1167.23 55C1167.23 53.832 1167.63 52.84 1168.42 52.024C1169.2 51.208 1170.16 50.792 1171.28 50.792C1172.61 50.792 1173.62 51.32 1174.31 52.376ZM1171.46 57.864C1172.27 57.864 1172.95 57.592 1173.49 57.048C1174.03 56.488 1174.31 55.816 1174.31 55C1174.31 54.184 1174.03 53.512 1173.49 52.968C1172.95 52.408 1172.27 52.136 1171.46 52.136C1170.66 52.136 1169.99 52.408 1169.44 52.968C1168.9 53.512 1168.62 54.184 1168.62 55C1168.62 55.816 1168.9 56.488 1169.44 57.048C1169.99 57.592 1170.66 57.864 1171.46 57.864ZM1182.14 47.8L1183.42 49.912H1182.08L1180.46 47.8H1182.14ZM1184.43 52.376V51H1185.82V59H1184.43V57.624C1183.74 58.68 1182.73 59.208 1181.41 59.208C1180.29 59.208 1179.33 58.808 1178.54 57.992C1177.76 57.176 1177.36 56.168 1177.36 55C1177.36 53.832 1177.76 52.84 1178.54 52.024C1179.33 51.208 1180.29 50.792 1181.41 50.792C1182.73 50.792 1183.74 51.32 1184.43 52.376ZM1181.58 57.864C1182.4 57.864 1183.07 57.592 1183.61 57.048C1184.16 56.488 1184.43 55.816 1184.43 55C1184.43 54.184 1184.16 53.512 1183.61 52.968C1183.07 52.408 1182.4 52.136 1181.58 52.136C1180.78 52.136 1180.11 52.408 1179.57 52.968C1179.02 53.512 1178.75 54.184 1178.75 55C1178.75 55.816 1179.02 56.488 1179.57 57.048C1180.11 57.592 1180.78 57.864 1181.58 57.864ZM1191.92 50.792C1193.79 50.792 1195.02 52.056 1195.02 54.088V59H1193.63V54.168C1193.63 52.872 1192.88 52.12 1191.64 52.12C1190.25 52.12 1189.32 52.968 1189.32 54.76V59H1187.93V51H1189.32V52.152C1189.88 51.24 1190.75 50.792 1191.92 50.792ZM1200.95 50.792C1202.82 50.792 1204.05 52.056 1204.05 54.088V59H1202.66V54.168C1202.66 52.872 1201.91 52.12 1200.67 52.12C1199.28 52.12 1198.35 52.968 1198.35 54.76V59H1196.96V47.8H1198.35V52.152C1198.91 51.24 1199.78 50.792 1200.95 50.792ZM1213.75 59.208C1212.55 59.208 1211.55 58.808 1210.75 58.008C1209.95 57.192 1209.55 56.2 1209.55 55C1209.55 53.8 1209.95 52.808 1210.75 52.008C1211.55 51.192 1212.55 50.792 1213.75 50.792C1215.34 50.792 1216.67 51.608 1217.29 52.888L1216.12 53.56C1215.72 52.712 1214.83 52.152 1213.75 52.152C1212.95 52.152 1212.28 52.424 1211.74 52.968C1211.21 53.512 1210.94 54.184 1210.94 55C1210.94 55.8 1211.21 56.472 1211.74 57.016C1212.28 57.56 1212.95 57.832 1213.75 57.832C1214.83 57.832 1215.72 57.288 1216.17 56.44L1217.35 57.128C1216.67 58.392 1215.31 59.208 1213.75 59.208ZM1222.73 50.792C1224.6 50.792 1225.83 52.056 1225.83 54.088V59H1224.44V54.168C1224.44 52.872 1223.69 52.12 1222.46 52.12C1221.06 52.12 1220.14 52.968 1220.14 54.76V59H1218.74V47.8H1220.14V52.152C1220.7 51.24 1221.56 50.792 1222.73 50.792ZM1234.53 57.992C1233.71 58.808 1232.7 59.208 1231.53 59.208C1230.37 59.208 1229.36 58.808 1228.54 57.992C1227.73 57.176 1227.33 56.184 1227.33 55C1227.33 53.816 1227.73 52.824 1228.54 52.008C1229.36 51.192 1230.37 50.792 1231.53 50.792C1232.7 50.792 1233.71 51.192 1234.53 52.008C1235.34 52.824 1235.76 53.816 1235.76 55C1235.76 56.184 1235.34 57.176 1234.53 57.992ZM1231.53 57.848C1232.33 57.848 1233.01 57.576 1233.55 57.032C1234.09 56.488 1234.37 55.816 1234.37 55C1234.37 54.184 1234.09 53.512 1233.55 52.968C1233.01 52.424 1232.33 52.152 1231.53 52.152C1230.75 52.152 1230.08 52.424 1229.53 52.968C1228.99 53.512 1228.72 54.184 1228.72 55C1228.72 55.816 1228.99 56.488 1229.53 57.032C1230.08 57.576 1230.75 57.848 1231.53 57.848ZM1244.22 54.872L1248.17 59H1246.44L1242.79 55.208V59H1241.4V47.8H1242.79V54.536L1246.25 51H1248.04L1244.22 54.872ZM1253.45 50.792C1255.32 50.792 1256.55 52.056 1256.55 54.088V59H1255.16V54.168C1255.16 52.872 1254.41 52.12 1253.17 52.12C1251.78 52.12 1250.85 52.968 1250.85 54.76V59H1249.46V47.8H1250.85V52.152C1251.41 51.24 1252.28 50.792 1253.45 50.792ZM1263.28 47.8H1264.96L1263.34 49.912H1262L1263.28 47.8ZM1265.12 52.376V51H1266.51V59H1265.12V57.624C1264.43 58.68 1263.42 59.208 1262.09 59.208C1260.97 59.208 1260.01 58.808 1259.23 57.992C1258.45 57.176 1258.05 56.168 1258.05 55C1258.05 53.832 1258.45 52.84 1259.23 52.024C1260.01 51.208 1260.97 50.792 1262.09 50.792C1263.42 50.792 1264.43 51.32 1265.12 52.376ZM1262.27 57.864C1263.09 57.864 1263.76 57.592 1264.3 57.048C1264.85 56.488 1265.12 55.816 1265.12 55C1265.12 54.184 1264.85 53.512 1264.3 52.968C1263.76 52.408 1263.09 52.136 1262.27 52.136C1261.47 52.136 1260.8 52.408 1260.25 52.968C1259.71 53.512 1259.44 54.184 1259.44 55C1259.44 55.816 1259.71 56.488 1260.25 57.048C1260.8 57.592 1261.47 57.864 1262.27 57.864ZM1272.38 59.208C1271.18 59.208 1270.17 58.808 1269.37 58.008C1268.57 57.192 1268.17 56.2 1268.17 55C1268.17 53.8 1268.57 52.808 1269.37 52.008C1270.17 51.192 1271.18 50.792 1272.38 50.792C1273.96 50.792 1275.29 51.608 1275.91 52.888L1274.75 53.56C1274.35 52.712 1273.45 52.152 1272.38 52.152C1271.58 52.152 1270.91 52.424 1270.36 52.968C1269.83 53.512 1269.56 54.184 1269.56 55C1269.56 55.8 1269.83 56.472 1270.36 57.016C1270.91 57.56 1271.58 57.832 1272.38 57.832C1273.45 57.832 1274.35 57.288 1274.79 56.44L1275.98 57.128C1275.29 58.392 1273.93 59.208 1272.38 59.208ZM1281.35 50.792C1283.22 50.792 1284.46 52.056 1284.46 54.088V59H1283.06V54.168C1283.06 52.872 1282.31 52.12 1281.08 52.12C1279.69 52.12 1278.76 52.968 1278.76 54.76V59H1277.37V47.8H1278.76V52.152C1279.32 51.24 1280.18 50.792 1281.35 50.792ZM1006.04 74.792C1007.91 74.792 1009.14 76.056 1009.14 78.088V83H1007.75V78.168C1007.75 76.872 1007 76.12 1005.77 76.12C1004.38 76.12 1003.45 76.968 1003.45 78.76V83H1002.06V71.8H1003.45V76.152C1004.01 75.24 1004.87 74.792 1006.04 74.792ZM1015.42 71.8L1016.7 73.912H1015.36L1013.74 71.8H1015.42ZM1017.71 76.376V75H1019.1V83H1017.71V81.624C1017.02 82.68 1016.02 83.208 1014.69 83.208C1013.57 83.208 1012.61 82.808 1011.82 81.992C1011.04 81.176 1010.64 80.168 1010.64 79C1010.64 77.832 1011.04 76.84 1011.82 76.024C1012.61 75.208 1013.57 74.792 1014.69 74.792C1016.02 74.792 1017.02 75.32 1017.71 76.376ZM1014.86 81.864C1015.68 81.864 1016.35 81.592 1016.9 81.048C1017.44 80.488 1017.71 79.816 1017.71 79C1017.71 78.184 1017.44 77.512 1016.9 76.968C1016.35 76.408 1015.68 76.136 1014.86 76.136C1014.06 76.136 1013.39 76.408 1012.85 76.968C1012.3 77.512 1012.03 78.184 1012.03 79C1012.03 79.816 1012.3 80.488 1012.85 81.048C1013.39 81.592 1014.06 81.864 1014.86 81.864ZM1025.2 74.792C1027.07 74.792 1028.3 76.056 1028.3 78.088V83H1026.91V78.168C1026.91 76.872 1026.16 76.12 1024.92 76.12C1023.53 76.12 1022.6 76.968 1022.6 78.76V83H1021.21V75H1022.6V76.152C1023.16 75.24 1024.03 74.792 1025.2 74.792ZM1036.88 76.376V75H1038.26V82.664C1038.26 83.848 1037.86 84.76 1037.06 85.416C1036.26 86.072 1035.3 86.408 1034.18 86.408C1032.39 86.408 1031.04 85.72 1030.39 84.456L1031.6 83.768C1032.04 84.664 1032.92 85.112 1034.21 85.112C1035.88 85.112 1036.88 84.184 1036.88 82.664V81.528C1036.18 82.6 1035.17 83.128 1033.88 83.128C1032.74 83.128 1031.76 82.728 1030.98 81.912C1030.2 81.096 1029.8 80.12 1029.8 78.952C1029.8 77.784 1030.2 76.808 1030.98 76.008C1031.76 75.192 1032.74 74.792 1033.88 74.792C1035.19 74.792 1036.2 75.32 1036.88 76.376ZM1036.88 78.952C1036.88 78.152 1036.61 77.48 1036.07 76.936C1035.52 76.392 1034.85 76.12 1034.04 76.12C1033.22 76.12 1032.55 76.392 1032 76.936C1031.46 77.48 1031.19 78.152 1031.19 78.952C1031.19 79.768 1031.46 80.44 1032 80.984C1032.55 81.528 1033.22 81.8 1034.04 81.8C1034.85 81.8 1035.52 81.528 1036.07 80.984C1036.61 80.44 1036.88 79.768 1036.88 78.952ZM1045.76 83H1044.37V71.32H1045.76V83ZM1053.26 73.96L1052.36 72.744L1051.45 73.96H1050.06L1051.64 71.944H1053.07L1054.65 73.96H1053.26ZM1054.51 76.376V75H1055.9V83H1054.51V81.624C1053.82 82.68 1052.81 83.208 1051.48 83.208C1050.36 83.208 1049.4 82.808 1048.62 81.992C1047.84 81.176 1047.44 80.168 1047.44 79C1047.44 77.832 1047.84 76.84 1048.62 76.024C1049.4 75.208 1050.36 74.792 1051.48 74.792C1052.81 74.792 1053.82 75.32 1054.51 76.376ZM1051.66 81.864C1052.48 81.864 1053.15 81.592 1053.69 81.048C1054.24 80.488 1054.51 79.816 1054.51 79C1054.51 78.184 1054.24 77.512 1053.69 76.968C1053.15 76.408 1052.48 76.136 1051.66 76.136C1050.86 76.136 1050.19 76.408 1049.64 76.968C1049.1 77.512 1048.83 78.184 1048.83 79C1048.83 79.816 1049.1 80.488 1049.64 81.048C1050.19 81.592 1050.86 81.864 1051.66 81.864ZM1055.5 72.488H1054.24L1052.75 70.52H1054.3L1055.5 72.488ZM1061.99 74.792C1063.87 74.792 1065.1 76.056 1065.1 78.088V83H1063.71V78.168C1063.71 76.872 1062.95 76.12 1061.72 76.12C1060.33 76.12 1059.4 76.968 1059.4 78.76V83H1058.01V75H1059.4V76.152C1059.96 75.24 1060.83 74.792 1061.99 74.792ZM1079.06 72.872H1080.13V73.896H1079.06V83H1077.66V81.624C1076.98 82.68 1075.97 83.208 1074.64 83.208C1073.52 83.208 1072.56 82.808 1071.78 81.992C1070.99 81.176 1070.59 80.168 1070.59 79C1070.59 77.832 1070.99 76.84 1071.78 76.024C1072.56 75.208 1073.52 74.792 1074.64 74.792C1075.97 74.792 1076.98 75.32 1077.66 76.376V73.896H1074.9V72.872H1077.66V71.8H1079.06V72.872ZM1074.82 81.864C1075.63 81.864 1076.3 81.592 1076.85 81.048C1077.39 80.488 1077.66 79.816 1077.66 79C1077.66 78.184 1077.39 77.512 1076.85 76.968C1076.3 76.408 1075.63 76.136 1074.82 76.136C1074.02 76.136 1073.34 76.408 1072.8 76.968C1072.26 77.512 1071.98 78.184 1071.98 79C1071.98 79.816 1072.26 80.488 1072.8 81.048C1073.34 81.592 1074.02 81.864 1074.82 81.864ZM1086.68 73.96L1085.79 72.744L1084.87 73.96H1083.48L1085.07 71.944H1086.49L1088.07 73.96H1086.68ZM1087.93 76.376V75H1089.32V83H1087.93V81.624C1087.24 82.68 1086.23 83.208 1084.91 83.208C1083.79 83.208 1082.83 82.808 1082.04 81.992C1081.26 81.176 1080.86 80.168 1080.86 79C1080.86 77.832 1081.26 76.84 1082.04 76.024C1082.83 75.208 1083.79 74.792 1084.91 74.792C1086.23 74.792 1087.24 75.32 1087.93 76.376ZM1085.08 81.864C1085.9 81.864 1086.57 81.592 1087.11 81.048C1087.66 80.488 1087.93 79.816 1087.93 79C1087.93 78.184 1087.66 77.512 1087.11 76.968C1086.57 76.408 1085.9 76.136 1085.08 76.136C1084.28 76.136 1083.61 76.408 1083.07 76.968C1082.52 77.512 1082.25 78.184 1082.25 79C1082.25 79.816 1082.52 80.488 1083.07 81.048C1083.61 81.592 1084.28 81.864 1085.08 81.864ZM1088.92 72.488H1087.66L1086.17 70.52H1087.72L1088.92 72.488ZM1096.95 79.24V75H1098.34V83H1096.95V81.848C1096.39 82.76 1095.53 83.208 1094.36 83.208C1092.49 83.208 1091.26 81.944 1091.26 79.912V75H1092.65V79.832C1092.65 81.128 1093.4 81.88 1094.63 81.88C1096.02 81.88 1096.95 81.032 1096.95 79.24ZM1112.48 72.872H1113.55V73.896H1112.48V83H1111.09V81.624C1110.4 82.68 1109.39 83.208 1108.06 83.208C1106.94 83.208 1105.98 82.808 1105.2 81.992C1104.41 81.176 1104.01 80.168 1104.01 79C1104.01 77.832 1104.41 76.84 1105.2 76.024C1105.98 75.208 1106.94 74.792 1108.06 74.792C1109.39 74.792 1110.4 75.32 1111.09 76.376V73.896H1108.32V72.872H1111.09V71.8H1112.48V72.872ZM1108.24 81.864C1109.05 81.864 1109.73 81.592 1110.27 81.048C1110.81 80.488 1111.09 79.816 1111.09 79C1111.09 78.184 1110.81 77.512 1110.27 76.968C1109.73 76.408 1109.05 76.136 1108.24 76.136C1107.44 76.136 1106.77 76.408 1106.22 76.968C1105.68 77.512 1105.41 78.184 1105.41 79C1105.41 79.816 1105.68 80.488 1106.22 81.048C1106.77 81.592 1107.44 81.864 1108.24 81.864ZM1119.3 74.088C1117.83 74.088 1116.92 73.288 1116.92 71.928H1118.22C1118.22 72.616 1118.58 72.968 1119.3 72.968C1120.02 72.968 1120.39 72.616 1120.39 71.928H1121.69C1121.69 73.288 1120.79 74.088 1119.3 74.088ZM1121.35 76.376V75H1122.74V83H1121.35V81.624C1120.66 82.68 1119.66 83.208 1118.33 83.208C1117.21 83.208 1116.25 82.808 1115.46 81.992C1114.68 81.176 1114.28 80.168 1114.28 79C1114.28 77.832 1114.68 76.84 1115.46 76.024C1116.25 75.208 1117.21 74.792 1118.33 74.792C1119.66 74.792 1120.66 75.32 1121.35 76.376ZM1118.5 81.864C1119.32 81.864 1119.99 81.592 1120.54 81.048C1121.08 80.488 1121.35 79.816 1121.35 79C1121.35 78.184 1121.08 77.512 1120.54 76.968C1119.99 76.408 1119.32 76.136 1118.5 76.136C1117.7 76.136 1117.03 76.408 1116.49 76.968C1115.94 77.512 1115.67 78.184 1115.67 79C1115.67 79.816 1115.94 80.488 1116.49 81.048C1117.03 81.592 1117.7 81.864 1118.5 81.864ZM1128.84 74.792C1130.71 74.792 1131.94 76.056 1131.94 78.088V83H1130.55V78.168C1130.55 76.872 1129.8 76.12 1128.56 76.12C1127.17 76.12 1126.24 76.968 1126.24 78.76V83H1124.85V75H1126.24V76.152C1126.8 75.24 1127.67 74.792 1128.84 74.792ZM1140.52 76.376V75H1141.9V82.664C1141.9 83.848 1141.5 84.76 1140.7 85.416C1139.9 86.072 1138.94 86.408 1137.82 86.408C1136.03 86.408 1134.68 85.72 1134.03 84.456L1135.24 83.768C1135.68 84.664 1136.56 85.112 1137.85 85.112C1139.52 85.112 1140.52 84.184 1140.52 82.664V81.528C1139.82 82.6 1138.81 83.128 1137.52 83.128C1136.38 83.128 1135.4 82.728 1134.62 81.912C1133.84 81.096 1133.44 80.12 1133.44 78.952C1133.44 77.784 1133.84 76.808 1134.62 76.008C1135.4 75.192 1136.38 74.792 1137.52 74.792C1138.83 74.792 1139.84 75.32 1140.52 76.376ZM1140.52 78.952C1140.52 78.152 1140.25 77.48 1139.71 76.936C1139.16 76.392 1138.49 76.12 1137.68 76.12C1136.86 76.12 1136.19 76.392 1135.64 76.936C1135.1 77.48 1134.83 78.152 1134.83 78.952C1134.83 79.768 1135.1 80.44 1135.64 80.984C1136.19 81.528 1136.86 81.8 1137.68 81.8C1138.49 81.8 1139.16 81.528 1139.71 80.984C1140.25 80.44 1140.52 79.768 1140.52 78.952ZM1151.99 74.792C1153.87 74.792 1155.1 76.056 1155.1 78.088V83H1153.71V78.168C1153.71 76.872 1152.95 76.12 1151.72 76.12C1150.33 76.12 1149.4 76.968 1149.4 78.76V83H1148.01V75H1149.4V76.152C1149.96 75.24 1150.83 74.792 1151.99 74.792ZM1161.02 74.792C1162.9 74.792 1164.13 76.056 1164.13 78.088V83H1162.74V78.168C1162.74 76.872 1161.98 76.12 1160.75 76.12C1159.36 76.12 1158.43 76.968 1158.43 78.76V83H1157.04V71.8H1158.43V76.152C1158.99 75.24 1159.86 74.792 1161.02 74.792ZM1171.45 73.96L1170.55 72.744L1169.64 73.96H1168.25L1169.83 71.944H1171.26L1172.84 73.96H1171.45ZM1172.7 76.376V75H1174.09V83H1172.7V81.624C1172.01 82.68 1171 83.208 1169.67 83.208C1168.55 83.208 1167.59 82.808 1166.81 81.992C1166.02 81.176 1165.62 80.168 1165.62 79C1165.62 77.832 1166.02 76.84 1166.81 76.024C1167.59 75.208 1168.55 74.792 1169.67 74.792C1171 74.792 1172.01 75.32 1172.7 76.376ZM1169.85 81.864C1170.66 81.864 1171.34 81.592 1171.88 81.048C1172.42 80.488 1172.7 79.816 1172.7 79C1172.7 78.184 1172.42 77.512 1171.88 76.968C1171.34 76.408 1170.66 76.136 1169.85 76.136C1169.05 76.136 1168.38 76.408 1167.83 76.968C1167.29 77.512 1167.02 78.184 1167.02 79C1167.02 79.816 1167.29 80.488 1167.83 81.048C1168.38 81.592 1169.05 81.864 1169.85 81.864ZM1169.94 86.232C1169.42 86.232 1169 85.816 1169 85.304C1169 84.792 1169.42 84.36 1169.94 84.36C1170.46 84.36 1170.87 84.792 1170.87 85.304C1170.87 85.816 1170.46 86.232 1169.94 86.232ZM1180.61 74.792C1181.73 74.792 1182.69 75.208 1183.48 76.024C1184.26 76.84 1184.66 77.832 1184.66 79C1184.66 80.168 1184.26 81.176 1183.48 81.992C1182.69 82.808 1181.73 83.208 1180.61 83.208C1179.28 83.208 1178.28 82.68 1177.59 81.624V86.2H1176.2V75H1177.59V76.376C1178.28 75.32 1179.28 74.792 1180.61 74.792ZM1180.44 81.864C1181.24 81.864 1181.91 81.592 1182.45 81.048C1183 80.488 1183.27 79.816 1183.27 79C1183.27 78.184 1183 77.512 1182.45 76.968C1181.91 76.408 1181.24 76.136 1180.44 76.136C1179.62 76.136 1178.95 76.408 1178.4 76.968C1177.86 77.512 1177.59 78.184 1177.59 79C1177.59 79.816 1177.86 80.488 1178.4 81.048C1178.95 81.592 1179.62 81.864 1180.44 81.864ZM1196.87 77.192C1197.89 77.688 1198.55 78.632 1198.55 79.832C1198.55 80.728 1198.23 81.48 1197.6 82.088C1196.98 82.696 1196.21 83 1195.3 83H1190.47V71.8H1194.95C1195.83 71.8 1196.56 72.088 1197.17 72.68C1197.78 73.272 1198.08 73.992 1198.08 74.856C1198.08 75.848 1197.68 76.632 1196.87 77.192ZM1194.95 73.192H1191.95V76.616H1194.95C1195.89 76.616 1196.61 75.864 1196.61 74.904C1196.61 74.44 1196.45 74.04 1196.11 73.704C1195.79 73.368 1195.41 73.192 1194.95 73.192ZM1191.95 81.608H1195.3C1196.31 81.608 1197.07 80.808 1197.07 79.784C1197.07 79.288 1196.9 78.856 1196.55 78.504C1196.21 78.152 1195.79 77.976 1195.3 77.976H1191.95V81.608ZM1205.51 77.448H1211.11V78.12C1211.11 79.576 1210.61 80.792 1209.61 81.768C1208.6 82.728 1207.27 83.208 1205.62 83.208C1203.91 83.208 1202.5 82.648 1201.38 81.528C1200.28 80.392 1199.72 79.016 1199.72 77.4C1199.72 75.784 1200.28 74.408 1201.38 73.288C1202.5 72.152 1203.91 71.592 1205.59 71.592C1206.63 71.592 1207.57 71.848 1208.44 72.344C1209.3 72.84 1209.97 73.48 1210.44 74.296L1209.16 75.048C1208.52 73.832 1207.13 73.032 1205.57 73.032C1204.29 73.032 1203.24 73.448 1202.42 74.296C1201.61 75.128 1201.19 76.168 1201.19 77.4C1201.19 78.632 1201.61 79.672 1202.42 80.504C1203.25 81.336 1204.33 81.752 1205.64 81.752C1207.88 81.752 1209.32 80.536 1209.62 78.792H1205.51V77.448ZM1219.53 73.08L1214.1 81.592H1219.65V83H1212.34V81.704L1217.75 73.208H1212.49V71.8H1219.53V73.08ZM1220.73 77.4C1220.73 75.784 1221.29 74.408 1222.41 73.288C1223.53 72.152 1224.91 71.592 1226.53 71.592C1228.14 71.592 1229.52 72.152 1230.64 73.288C1231.77 74.408 1232.33 75.784 1232.33 77.4C1232.33 79.016 1231.77 80.376 1230.64 81.512C1229.52 82.648 1228.14 83.208 1226.53 83.208C1224.91 83.208 1223.53 82.648 1222.41 81.512C1221.29 80.376 1220.73 79.016 1220.73 77.4ZM1230.85 77.4C1230.85 76.168 1230.43 75.128 1229.6 74.296C1228.78 73.448 1227.76 73.032 1226.53 73.032C1225.29 73.032 1224.27 73.448 1223.44 74.296C1222.62 75.128 1222.21 76.168 1222.21 77.4C1222.21 78.632 1222.62 79.656 1223.44 80.504C1224.27 81.336 1225.29 81.752 1226.53 81.752C1227.76 81.752 1228.78 81.336 1229.6 80.504C1230.43 79.656 1230.85 78.632 1230.85 77.4ZM1241.08 80.152V71.8H1242.57V83H1241.37L1235.61 74.632V83H1234.12V71.8H1235.32L1241.08 80.152ZM1246.45 78.04V81.592H1251.65V83H1244.97V71.8H1251.57V73.208H1246.45V76.648H1251.17V78.04H1246.45Z" fill="#3A3A3A"/>
<path fill-rule="evenodd" clip-rule="evenodd" d="M929.55 17.9933C930.488 16.9458 931.636 16.1078 932.92 15.5341C934.204 14.9605 935.594 14.6639 937 14.6639C938.406 14.6639 939.796 14.9605 941.08 15.5341C942.364 16.1078 943.512 16.9458 944.45 17.9933L946.783 20.6C947.117 20.973 947.53 21.2662 947.992 21.4577C948.454 21.6493 948.954 21.7344 949.453 21.7066L952.953 21.5133C954.357 21.4362 955.761 21.6559 957.074 22.158C958.387 22.66 959.579 23.4333 960.573 24.4272C961.567 25.4211 962.34 26.6134 962.842 27.9263C963.344 29.2392 963.564 30.6431 963.487 32.0466L963.293 35.5466C963.266 36.0456 963.351 36.5444 963.543 37.006C963.735 37.4676 964.027 37.8802 964.4 38.2133L967.01 40.5466C968.058 41.4846 968.896 42.6331 969.471 43.9171C970.045 45.2011 970.341 46.5918 970.341 47.9983C970.341 49.4048 970.045 50.7955 969.471 52.0795C968.896 53.3635 968.058 54.512 967.01 55.45L964.4 57.7833C964.027 58.1168 963.734 58.5299 963.542 58.9921C963.351 59.4543 963.266 59.9537 963.293 60.4533L963.487 63.9533C963.564 65.3568 963.344 66.7608 962.842 68.0737C962.34 69.3865 961.567 70.5788 960.573 71.5727C959.579 72.5667 958.387 73.3399 957.074 73.842C955.761 74.344 954.357 74.5637 952.953 74.4866L949.453 74.2933C948.954 74.2661 948.456 74.3514 947.994 74.5429C947.532 74.7345 947.12 75.0274 946.787 75.4L944.453 78.01C943.515 79.058 942.367 79.8965 941.083 80.4705C939.799 81.0445 938.408 81.3412 937.002 81.3412C935.595 81.3412 934.205 81.0445 932.92 80.4705C931.636 79.8965 930.488 79.058 929.55 78.01L927.217 75.4C926.883 75.0269 926.47 74.7338 926.008 74.5422C925.546 74.3506 925.046 74.2655 924.547 74.2933L921.047 74.4866C919.643 74.5637 918.239 74.344 916.926 73.842C915.613 73.3399 914.421 72.5667 913.427 71.5727C912.433 70.5788 911.66 69.3865 911.158 68.0737C910.656 66.7608 910.436 65.3568 910.513 63.9533L910.707 60.4533C910.734 59.9543 910.649 59.4555 910.457 58.9939C910.265 58.5323 909.973 58.1197 909.6 57.7866L906.993 55.4533C905.945 54.5153 905.107 53.3668 904.533 52.0828C903.959 50.7988 903.662 49.4081 903.662 48.0016C903.662 46.5951 903.959 45.2045 904.533 43.9204C905.107 42.6364 905.945 41.4879 906.993 40.55L909.6 38.2166C909.973 37.8832 910.266 37.47 910.458 37.0078C910.649 36.5456 910.734 36.0462 910.707 35.5466L910.513 32.0466C910.436 30.6431 910.656 29.2392 911.158 27.9263C911.66 26.6134 912.433 25.4211 913.427 24.4272C914.421 23.4333 915.613 22.66 916.926 22.158C918.239 21.6559 919.643 21.4362 921.047 21.5133L924.547 21.7066C925.046 21.7339 925.544 21.6486 926.006 21.457C926.468 21.2654 926.88 20.9725 927.213 20.6L929.55 17.9933ZM949.357 35.6433C949.982 36.2684 950.333 37.1161 950.333 38C950.333 38.8838 949.982 39.7315 949.357 40.3566L929.357 60.3566C928.728 60.9638 927.886 61.2998 927.012 61.2922C926.138 61.2846 925.302 60.9341 924.684 60.316C924.066 59.698 923.715 58.862 923.708 57.988C923.7 57.114 924.036 56.272 924.643 55.6433L944.643 35.6433C945.268 35.0184 946.116 34.6673 947 34.6673C947.884 34.6673 948.732 35.0184 949.357 35.6433ZM928.667 34.6666C927.341 34.6666 926.069 35.1934 925.131 36.1311C924.193 37.0688 923.667 38.3405 923.667 39.6666V39.7C923.667 41.026 924.193 42.2978 925.131 43.2355C926.069 44.1732 927.341 44.7 928.667 44.7H928.7C930.026 44.7 931.298 44.1732 932.236 43.2355C933.173 42.2978 933.7 41.026 933.7 39.7V39.6666C933.7 38.3405 933.173 37.0688 932.236 36.1311C931.298 35.1934 930.026 34.6666 928.7 34.6666H928.667ZM945.333 51.3333C944.007 51.3333 942.735 51.8601 941.798 52.7978C940.86 53.7354 940.333 55.0072 940.333 56.3333V56.3666C940.333 57.6927 940.86 58.9645 941.798 59.9022C942.735 60.8398 944.007 61.3666 945.333 61.3666H945.367C946.693 61.3666 947.965 60.8398 948.902 59.9022C949.84 58.9645 950.367 57.6927 950.367 56.3666V56.3333C950.367 55.0072 949.84 53.7354 948.902 52.7978C947.965 51.8601 946.693 51.3333 945.367 51.3333H945.333Z" fill="#353245"/>
</svg>
