<svg width="32" height="32" viewBox="0 0 32 32" fill="none" xmlns="http://www.w3.org/2000/svg">
<path d="M28.3337 15.9999H11.8603M6.04566 15.9999H3.66699M6.04566 15.9999C6.04566 15.229 6.3519 14.4897 6.897 13.9446C7.44211 13.3995 8.18143 13.0933 8.95233 13.0933C9.72322 13.0933 10.4625 13.3995 11.0076 13.9446C11.5528 14.4897 11.859 15.229 11.859 15.9999C11.859 16.7708 11.5528 17.5102 11.0076 18.0553C10.4625 18.6004 9.72322 18.9066 8.95233 18.9066C8.18143 18.9066 7.44211 18.6004 6.897 18.0553C6.3519 17.5102 6.04566 16.7708 6.04566 15.9999ZM28.3337 24.8093H20.6697M20.6697 24.8093C20.6697 25.5803 20.3627 26.3205 19.8175 26.8657C19.2722 27.411 18.5327 27.7173 17.7617 27.7173C16.9908 27.7173 16.2514 27.4097 15.7063 26.8646C15.1612 26.3195 14.855 25.5802 14.855 24.8093M20.6697 24.8093C20.6697 24.0382 20.3627 23.2994 19.8175 22.7541C19.2722 22.2089 18.5327 21.9026 17.7617 21.9026C16.9908 21.9026 16.2514 22.2088 15.7063 22.7539C15.1612 23.2991 14.855 24.0384 14.855 24.8093M14.855 24.8093H3.66699M28.3337 7.1906H24.1937M18.379 7.1906H3.66699M18.379 7.1906C18.379 6.41971 18.6852 5.68038 19.2303 5.13528C19.7754 4.59017 20.5148 4.28394 21.2857 4.28394C21.6674 4.28394 22.0453 4.35912 22.398 4.50519C22.7506 4.65127 23.0711 4.86537 23.341 5.13528C23.6109 5.40519 23.825 5.72562 23.9711 6.07827C24.1171 6.43092 24.1923 6.80889 24.1923 7.1906C24.1923 7.57231 24.1171 7.95028 23.9711 8.30294C23.825 8.65559 23.6109 8.97602 23.341 9.24593C23.0711 9.51583 22.7506 9.72994 22.398 9.87601C22.0453 10.0221 21.6674 10.0973 21.2857 10.0973C20.5148 10.0973 19.7754 9.79103 19.2303 9.24593C18.6852 8.70082 18.379 7.9615 18.379 7.1906Z" stroke="#3A3A3A" stroke-width="1.5" stroke-miterlimit="10" stroke-linecap="round"/>
</svg>
