<svg width="103" height="136" viewBox="0 0 103 136" fill="none" xmlns="http://www.w3.org/2000/svg">
<rect x="0.25" y="0.25" width="102.5" height="135.5" stroke="#D9D9D9" stroke-width="0.5"/>
<path d="M0 8C0 3.58172 3.58172 0 8 0H103V136H8C3.58172 136 0 132.418 0 128V8Z" fill="#01ED89"/>
<path fill-rule="evenodd" clip-rule="evenodd" d="M19.916 41.75C19.916 40.9764 20.2233 40.2346 20.7703 39.6876C21.3173 39.1406 22.0591 38.8333 22.8327 38.8333H54.916C55.6896 38.8333 56.4314 39.1406 56.9784 39.6876C57.5254 40.2346 57.8327 40.9764 57.8327 41.75V56.3333H69.4994C71.4145 56.3333 73.3108 56.7105 75.0802 57.4434C76.8495 58.1763 78.4571 59.2505 79.8113 60.6047C81.1655 61.9589 82.2397 63.5665 82.9726 65.3358C83.7055 67.1052 84.0827 69.0015 84.0827 70.9166V82.5833C84.083 84.4609 83.4795 86.2889 82.3614 87.7972C81.2432 89.3056 79.6697 90.4144 77.8731 90.96C77.3382 92.7246 76.2595 94.2751 74.791 95.3902C73.3225 96.5052 71.5393 97.1279 69.6959 97.1693C67.8524 97.2107 66.0431 96.6687 64.526 95.6207C63.0089 94.5726 61.8617 93.0721 61.2481 91.3333H42.7535C42.1399 93.0721 40.9927 94.5726 39.4756 95.6207C37.9586 96.6687 36.1492 97.2107 34.3058 97.1693C32.4624 97.1279 30.6791 96.5052 29.2106 95.3902C27.7421 94.2751 26.6634 92.7246 26.1285 90.96C24.3314 90.4149 22.7572 89.3063 21.6385 87.7979C20.5198 86.2895 19.9159 84.4613 19.916 82.5833V70.9166H37.416C38.1896 70.9166 38.9314 70.6094 39.4784 70.0624C40.0254 69.5154 40.3327 68.7735 40.3327 68C40.3327 67.2264 40.0254 66.4846 39.4784 65.9376C38.9314 65.3906 38.1896 65.0833 37.416 65.0833H19.916V59.25H31.5827C32.3562 59.25 33.0981 58.9427 33.6451 58.3957C34.1921 57.8487 34.4994 57.1069 34.4994 56.3333C34.4994 55.5598 34.1921 54.8179 33.6451 54.2709C33.0981 53.7239 32.3562 53.4166 31.5827 53.4166H19.916V41.75ZM57.8327 85.5H61.2481C61.8247 83.868 62.8724 82.4436 64.2586 81.4071C65.6449 80.3706 67.3074 79.7685 69.0359 79.6771C70.7643 79.5856 72.4811 80.0088 73.969 80.8932C75.4569 81.7775 76.6491 83.0834 77.3948 84.6454C77.666 84.3749 77.8811 84.0535 78.0278 83.6996C78.1745 83.3457 78.2498 82.9664 78.2494 82.5833V70.9166C78.2494 68.596 77.3275 66.3704 75.6865 64.7295C74.0456 63.0885 71.82 62.1666 69.4994 62.1666H57.8327V85.5ZM37.416 88.4166C37.416 87.6431 37.1087 86.9012 36.5617 86.3543C36.0148 85.8073 35.2729 85.5 34.4994 85.5C33.7258 85.5 32.9839 85.8073 32.437 86.3543C31.89 86.9012 31.5827 87.6431 31.5827 88.4166C31.5827 89.1902 31.89 89.9321 32.437 90.479C32.9839 91.026 33.7258 91.3333 34.4994 91.3333C35.2729 91.3333 36.0148 91.026 36.5617 90.479C37.1087 89.9321 37.416 89.1902 37.416 88.4166ZM67.4373 86.3546C67.1656 86.6248 66.9503 86.9461 66.8036 87.3001C66.6569 87.654 66.5818 88.0335 66.5827 88.4166C66.5825 89.0914 66.8164 89.7454 67.2444 90.2671C67.6723 90.7888 68.268 91.146 68.9298 91.2778C69.5916 91.4096 70.2786 91.3078 70.8738 90.9898C71.469 90.6718 71.9355 90.1573 72.1938 89.5339C72.4521 88.9105 72.4864 88.2169 72.2906 87.5711C72.0948 86.9253 71.6812 86.3674 71.1202 85.9924C70.5592 85.6174 69.8855 85.4486 69.2139 85.5146C68.5424 85.5806 67.9145 85.8775 67.4373 86.3546Z" fill="white"/>
</svg>
