<svg width="103" height="136" viewBox="0 0 103 136" fill="none" xmlns="http://www.w3.org/2000/svg">
<path d="M8 0.25H102.75V135.75H8C3.71979 135.75 0.25 132.28 0.25 128V8C0.25 3.71979 3.71979 0.25 8 0.25Z" stroke="#D9D9D9" stroke-width="0.5"/>
<path d="M0 8C0 3.58172 3.58172 0 8 0H103V136H8C3.58172 136 0 132.418 0 128V8Z" fill="#FF543E"/>
<path fill-rule="evenodd" clip-rule="evenodd" d="M44.1784 32.493C45.1632 31.3931 46.3689 30.5133 47.7168 29.9109C49.0647 29.3085 50.5245 28.9972 52.0009 28.9972C53.4772 28.9972 54.937 29.3085 56.2849 29.9109C57.6328 30.5133 58.8385 31.3931 59.8234 32.493L62.2734 35.23C62.6235 35.6217 63.0573 35.9295 63.5426 36.1307C64.0279 36.3318 64.5523 36.4212 65.0769 36.392L68.7519 36.189C70.2255 36.1081 71.6997 36.3387 73.0783 36.8659C74.4568 37.3931 75.7087 38.205 76.7523 39.2486C77.7959 40.2922 78.6078 41.5441 79.135 42.9226C79.6622 44.3012 79.8928 45.7753 79.8119 47.249L79.6089 50.924C79.5803 51.448 79.6699 51.9717 79.871 52.4564C80.0721 52.941 80.3797 53.3743 80.7709 53.724L83.5114 56.174C84.6119 57.1589 85.4922 58.3648 86.0949 59.713C86.6976 61.0612 87.0092 62.5215 87.0092 63.9983C87.0092 65.4751 86.6976 66.9353 86.0949 68.2835C85.4922 69.6317 84.6119 70.8377 83.5114 71.8225L80.7709 74.2725C80.3792 74.6226 80.0714 75.0565 79.8702 75.5418C79.6691 76.0271 79.5797 76.5515 79.6089 77.076L79.8119 80.751C79.8928 82.2247 79.6622 83.6989 79.135 85.0774C78.6078 86.4559 77.7959 87.7078 76.7523 88.7514C75.7087 89.7951 74.4568 90.6069 73.0783 91.1341C71.6997 91.6613 70.2255 91.8919 68.7519 91.811L65.0769 91.608C64.5529 91.5794 64.0292 91.669 63.5445 91.8701C63.0599 92.0713 62.6266 92.3788 62.2769 92.77L59.8269 95.5105C58.842 96.611 57.6361 97.4913 56.2879 98.094C54.9396 98.6968 53.4794 99.0083 52.0026 99.0083C50.5258 99.0083 49.0656 98.6968 47.7174 98.094C46.3692 97.4913 45.1632 96.611 44.1784 95.5105L41.7284 92.77C41.3782 92.3783 40.9444 92.0705 40.4591 91.8694C39.9738 91.6682 39.4494 91.5789 38.9249 91.608L35.2499 91.811C33.7762 91.8919 32.302 91.6613 30.9235 91.1341C29.545 90.6069 28.2931 89.7951 27.2495 88.7514C26.2058 87.7078 25.394 86.4559 24.8668 85.0774C24.3396 83.6989 24.1089 82.2247 24.1899 80.751L24.3929 77.076C24.4215 76.552 24.3319 76.0284 24.1308 75.5437C23.9296 75.059 23.6221 74.6258 23.2309 74.276L20.4939 71.826C19.3934 70.8412 18.5131 69.6352 17.9103 68.287C17.3076 66.9388 16.9961 65.4786 16.9961 64.0018C16.9961 62.525 17.3076 61.0647 17.9103 59.7165C18.5131 58.3683 19.3934 57.1624 20.4939 56.1775L23.2309 53.7275C23.6225 53.3774 23.9304 52.9436 24.1315 52.4583C24.3327 51.9729 24.422 51.4486 24.3929 50.924L24.1899 47.249C24.1089 45.7753 24.3396 44.3012 24.8668 42.9226C25.394 41.5441 26.2058 40.2922 27.2495 39.2486C28.2931 38.205 29.545 37.3931 30.9235 36.8659C32.302 36.3387 33.7762 36.1081 35.2499 36.189L38.9249 36.392C39.4488 36.4206 39.9725 36.331 40.4572 36.1299C40.9419 35.9288 41.3751 35.6212 41.7249 35.23L44.1749 32.493H44.1784ZM64.9754 51.0255C65.6315 51.6819 66.0001 52.5719 66.0001 53.5C66.0001 54.4281 65.6315 55.3182 64.9754 55.9745L43.9754 76.9745C43.3153 77.6121 42.4312 77.9648 41.5135 77.9569C40.5958 77.9489 39.7179 77.5808 39.069 76.9319C38.4201 76.283 38.052 75.4051 38.044 74.4874C38.036 73.5697 38.3888 72.6856 39.0264 72.0255L60.0264 51.0255C60.6827 50.3694 61.5728 50.0008 62.5009 50.0008C63.429 50.0008 64.319 50.3694 64.9754 51.0255ZM43.2509 50C41.8585 50 40.5231 50.5531 39.5386 51.5377C38.554 52.5223 38.0009 53.8576 38.0009 55.25V55.285C38.0009 56.6774 38.554 58.0128 39.5386 58.9973C40.5231 59.9819 41.8585 60.535 43.2509 60.535H43.2859C44.6783 60.535 46.0136 59.9819 46.9982 58.9973C47.9828 58.0128 48.5359 56.6774 48.5359 55.285V55.25C48.5359 53.8576 47.9828 52.5223 46.9982 51.5377C46.0136 50.5531 44.6783 50 43.2859 50H43.2509ZM60.7509 67.5C59.3585 67.5 58.0231 68.0531 57.0386 69.0377C56.054 70.0223 55.5009 71.3576 55.5009 72.75V72.785C55.5009 74.1774 56.054 75.5128 57.0386 76.4973C58.0231 77.4819 59.3585 78.035 60.7509 78.035H60.7859C62.1783 78.035 63.5136 77.4819 64.4982 76.4973C65.4828 75.5128 66.0359 74.1774 66.0359 72.785V72.75C66.0359 71.3576 65.4828 70.0223 64.4982 69.0377C63.5136 68.0531 62.1783 67.5 60.7859 67.5H60.7509Z" fill="white"/>
</svg>
