<svg width="32" height="32" viewBox="0 0 32 32" fill="none" xmlns="http://www.w3.org/2000/svg">
<mask id="mask0_476_7577" style="mask-type:alpha" maskUnits="userSpaceOnUse" x="0" y="0" width="32" height="32">
<rect width="32" height="32" rx="7" fill="#D9D9D9"/>
</mask>
<g mask="url(#mask0_476_7577)">
<path d="M30.2344 0H1.76561C0.790491 0 0 0.790491 0 1.76561V30.2344C0 31.2095 0.790491 32 1.76561 32H30.2344C31.2095 32 32 31.2095 32 30.2344V1.76561C32 0.790491 31.2095 0 30.2344 0Z" fill="#3D5A98"/>
<path d="M21.0864 32V19.2279H25.2137L25.8309 14.2505H21.0864V11.0735C21.0864 9.63272 21.4729 8.64897 23.4614 8.64897H26V4.19C24.7707 4.05695 23.5353 3.99369 22.2994 4.0005C18.6444 4.0005 16.1273 6.31358 16.1273 10.5803V14.2505H12V19.2279H16.1273V32H21.0864Z" fill="white"/>
</g>
</svg>
