<svg width="32" height="32" viewBox="0 0 32 32" fill="none" xmlns="http://www.w3.org/2000/svg">
<g clip-path="url(#clip0_476_7572)">
<path d="M31.2538 16.2994C31.2538 14.9884 31.1474 14.0317 30.9172 13.0396H15.9465V18.9569H24.734C24.5569 20.4274 23.6002 22.642 21.4741 24.1301L21.4443 24.3282L26.1777 27.9952L26.5057 28.0279C29.5175 25.2463 31.2538 21.1537 31.2538 16.2994Z" fill="#4285F4"/>
<path d="M15.9464 31.8901C20.2515 31.8901 23.8657 30.4727 26.5056 28.0279L21.474 24.1301C20.1276 25.0691 18.3204 25.7246 15.9464 25.7246C11.7299 25.7246 8.15113 22.9432 6.8754 19.0986L6.68841 19.1145L1.76651 22.9236L1.70215 23.1025C4.32419 28.3112 9.71009 31.8901 15.9464 31.8901Z" fill="#34A853"/>
<path d="M6.87548 19.0987C6.53887 18.1066 6.34406 17.0435 6.34406 15.9451C6.34406 14.8466 6.53887 13.7837 6.85777 12.7915L6.84885 12.5803L1.86528 8.70996L1.70223 8.78752C0.621556 10.949 0.00146484 13.3762 0.00146484 15.9451C0.00146484 18.5141 0.621556 20.9412 1.70223 23.1026L6.87548 19.0987Z" fill="#FBBC05"/>
<path d="M15.9464 6.16537C18.9405 6.16537 20.9602 7.45869 22.1118 8.53948L26.6118 4.14571C23.8481 1.57679 20.2515 0 15.9464 0C9.71009 0 4.32419 3.57875 1.70215 8.78742L6.85769 12.7915C8.15113 8.94693 11.7299 6.16537 15.9464 6.16537Z" fill="#EB4335"/>
</g>
<defs>
<clipPath id="clip0_476_7572">
<rect width="31.27" height="32" fill="white"/>
</clipPath>
</defs>
</svg>
