<svg width="390" height="112" viewBox="0 0 390 112" fill="none" xmlns="http://www.w3.org/2000/svg">
<path d="M21.1191 35.0962L358.66 35.0962" stroke="#E6E6E6" stroke-width="8" stroke-linecap="round" stroke-linejoin="round"/>
<path d="M21.1191 35.0962L189.889 35.0962" stroke="#FF414D" stroke-width="8" stroke-linecap="round" stroke-linejoin="round"/>
<path d="M23.6506 74.4396H28.0506C29.5866 74.4396 30.8666 74.9836 31.8746 76.0556C32.8986 77.1276 33.4106 78.4556 33.4106 80.0396C33.4106 81.6076 32.8986 82.9356 31.8746 84.0236C30.8666 85.0956 29.5866 85.6396 28.0506 85.6396H23.6506V80.9516H22.6586V79.3996H23.6506V74.4396ZM25.4906 83.8796H28.0506C29.1066 83.8796 29.9706 83.5116 30.6266 82.7916C31.2986 82.0716 31.6346 81.1436 31.6346 80.0396C31.6346 78.9196 31.2986 78.0076 30.6266 77.2876C29.9706 76.5676 29.1066 76.1996 28.0506 76.1996H25.4906V79.3996H28.0666V80.9516H25.4906V83.8796ZM39.1725 76.1996C38.4685 75.6396 38.1645 75.6716 38.1645 76.5676H36.7405C36.7405 74.2316 38.1485 73.9436 39.4445 74.8076C40.1325 75.3676 40.4365 75.3356 40.4365 74.4396H41.8605C41.8605 76.7756 40.4845 77.0796 39.1725 76.1996ZM41.3165 78.7756V77.6396H43.0445V85.6396H41.3165V84.4876C40.6605 85.3996 39.7325 85.8476 38.5165 85.8476C37.4125 85.8476 36.4845 85.4476 35.7005 84.6316C34.9165 83.8156 34.5325 82.8076 34.5325 81.6396C34.5325 80.4556 34.9165 79.4636 35.7005 78.6476C36.4845 77.8316 37.4125 77.4316 38.5165 77.4316C39.7325 77.4316 40.6605 77.8796 41.3165 78.7756ZM36.9805 83.4796C37.4605 83.9596 38.0685 84.1996 38.7885 84.1996C39.5085 84.1996 40.1165 83.9596 40.5965 83.4796C41.0765 82.9836 41.3165 82.3756 41.3165 81.6396C41.3165 80.9036 41.0765 80.2956 40.5965 79.8156C40.1165 79.3196 39.5085 79.0796 38.7885 79.0796C38.0685 79.0796 37.4605 79.3196 36.9805 79.8156C36.5005 80.2956 36.2605 80.9036 36.2605 81.6396C36.2605 82.3756 36.5005 82.9836 36.9805 83.4796ZM5.93738 100.544L8.92938 104.64H6.92938L4.94538 101.904L2.94538 104.64H0.929382L3.93738 100.528L1.08938 96.6396H3.08938L4.92938 99.1676L6.76938 96.6396H8.78538L5.93738 100.544ZM14.8739 93.4396H16.9539L15.2579 95.5996H13.5939L14.8739 93.4396ZM16.4259 97.7756V96.6396H18.1539V104.64H16.4259V103.488C15.7699 104.4 14.8419 104.848 13.6259 104.848C12.5219 104.848 11.5939 104.448 10.8099 103.632C10.0259 102.816 9.64188 101.808 9.64188 100.64C9.64188 99.4556 10.0259 98.4636 10.8099 97.6476C11.5939 96.8316 12.5219 96.4316 13.6259 96.4316C14.8419 96.4316 15.7699 96.8796 16.4259 97.7756ZM12.0899 102.48C12.5699 102.96 13.1779 103.2 13.8979 103.2C14.6179 103.2 15.2259 102.96 15.7059 102.48C16.1859 101.984 16.4259 101.376 16.4259 100.64C16.4259 99.9036 16.1859 99.2956 15.7059 98.8156C15.2259 98.3196 14.6179 98.0796 13.8979 98.0796C13.1779 98.0796 12.5699 98.3196 12.0899 98.8156C11.6099 99.2956 11.3699 99.9036 11.3699 100.64C11.3699 101.376 11.6099 101.984 12.0899 102.48ZM23.944 104.848C22.744 104.848 21.736 104.448 20.92 103.632C20.12 102.816 19.72 101.824 19.72 100.64C19.72 99.4396 20.12 98.4476 20.92 97.6476C21.736 96.8316 22.744 96.4316 23.944 96.4316C25.496 96.4316 26.872 97.2316 27.512 98.4956L26.024 99.3596C25.656 98.5916 24.888 98.1276 23.928 98.1276C23.224 98.1276 22.632 98.3676 22.152 98.8476C21.688 99.3276 21.448 99.9196 21.448 100.64C21.448 101.36 21.688 101.952 22.152 102.432C22.632 102.912 23.224 103.152 23.928 103.152C24.872 103.152 25.672 102.672 26.056 101.92L27.544 102.768C26.856 104.048 25.496 104.848 23.944 104.848ZM37.0479 96.4316C38.8879 96.4316 40.1199 97.6796 40.1199 99.7276V104.64H38.3919V99.9036C38.3919 98.7036 37.7039 98.0476 36.5999 98.0476C35.3839 98.0476 34.5679 98.7996 34.5679 100.352V104.64H32.8399V96.6396H34.5679V97.6636C35.0959 96.8476 35.9119 96.4316 37.0479 96.4316ZM46.1885 96.4316C48.0285 96.4316 49.2605 97.6796 49.2605 99.7276V104.64H47.5325V99.9036C47.5325 98.7036 46.8445 98.0476 45.7405 98.0476C44.5245 98.0476 43.7085 98.7996 43.7085 100.352V104.64H41.9805V93.4396H43.7085V97.6636C44.2365 96.8476 45.0525 96.4316 46.1885 96.4316ZM56.2731 95.6796L55.4891 94.5756L54.7051 95.6796H53.0731L54.6411 93.5996H56.3211L57.9051 95.6796H56.2731ZM57.4571 97.7756V96.6396H59.1851V104.64H57.4571V103.488C56.8011 104.4 55.8731 104.848 54.6571 104.848C53.5531 104.848 52.6251 104.448 51.8411 103.632C51.0571 102.816 50.6731 101.808 50.6731 100.64C50.6731 99.4556 51.0571 98.4636 51.8411 97.6476C52.6251 96.8316 53.5531 96.4316 54.6571 96.4316C55.8731 96.4316 56.8011 96.8796 57.4571 97.7756ZM53.1211 102.48C53.6011 102.96 54.2091 103.2 54.9291 103.2C55.6491 103.2 56.2571 102.96 56.7371 102.48C57.2171 101.984 57.4571 101.376 57.4571 100.64C57.4571 99.9036 57.2171 99.2956 56.7371 98.8156C56.2571 98.3196 55.6491 98.0796 54.9291 98.0796C54.2091 98.0796 53.6011 98.3196 53.1211 98.8156C52.6411 99.2956 52.4011 99.9036 52.4011 100.64C52.4011 101.376 52.6411 101.984 53.1211 102.48ZM55.6651 107.84C55.2331 108.256 54.5931 108.256 54.1451 107.84C53.7291 107.392 53.7291 106.752 54.1451 106.32C54.5771 105.888 55.2491 105.888 55.6811 106.32C56.0971 106.752 56.0971 107.392 55.6651 107.84ZM65.4073 96.4316C67.2473 96.4316 68.4793 97.6796 68.4793 99.7276V104.64H66.7513V99.9036C66.7513 98.7036 66.0633 98.0476 64.9593 98.0476C63.7433 98.0476 62.9273 98.7996 62.9273 100.352V104.64H61.1993V96.6396H62.9273V97.6636C63.4553 96.8476 64.2713 96.4316 65.4073 96.4316Z" fill="#FF414D"/>
<path d="M100.428 78.4577H104.828C106.364 78.4577 107.644 79.0017 108.652 80.0737C109.676 81.1457 110.188 82.4737 110.188 84.0577C110.188 85.6257 109.676 86.9537 108.652 88.0417C107.644 89.1137 106.364 89.6577 104.828 89.6577H100.428V84.9697H99.4357V83.4177H100.428V78.4577ZM102.268 87.8977H104.828C105.884 87.8977 106.748 87.5297 107.404 86.8097C108.076 86.0897 108.412 85.1617 108.412 84.0577C108.412 82.9377 108.076 82.0257 107.404 81.3057C106.748 80.5857 105.884 80.2177 104.828 80.2177H102.268V83.4177H104.844V84.9697H102.268V87.8977ZM118.094 82.7937V81.6577H119.822V89.6577H118.094V88.5057C117.438 89.4177 116.51 89.8657 115.294 89.8657C114.19 89.8657 113.262 89.4657 112.478 88.6497C111.694 87.8337 111.31 86.8257 111.31 85.6577C111.31 84.4737 111.694 83.4817 112.478 82.6657C113.262 81.8497 114.19 81.4497 115.294 81.4497C116.51 81.4497 117.438 81.8977 118.094 82.7937ZM113.758 87.4977C114.238 87.9777 114.846 88.2177 115.566 88.2177C116.286 88.2177 116.894 87.9777 117.374 87.4977C117.854 87.0017 118.094 86.3937 118.094 85.6577C118.094 84.9217 117.854 84.3137 117.374 83.8337C116.894 83.3377 116.286 83.0977 115.566 83.0977C114.846 83.0977 114.238 83.3377 113.758 83.8337C113.278 84.3137 113.038 84.9217 113.038 85.6577C113.038 86.3937 113.278 87.0017 113.758 87.4977ZM126.044 81.4497C127.884 81.4497 129.116 82.6977 129.116 84.7457V89.6577H127.388V84.9217C127.388 83.7217 126.7 83.0657 125.596 83.0657C124.38 83.0657 123.564 83.8177 123.564 85.3697V89.6577H121.836V81.6577H123.564V82.6817C124.092 81.8657 124.908 81.4497 126.044 81.4497ZM137.344 82.8417V81.6577H139.04V89.2897C139.04 90.5057 138.64 91.4337 137.84 92.0897C137.04 92.7457 136.064 93.0657 134.928 93.0657C133.088 93.0657 131.824 92.4257 131.136 91.1297L132.624 90.2657C133.04 91.0817 133.824 91.4977 134.96 91.4977C136.448 91.4977 137.344 90.6817 137.344 89.2897V88.3137C136.688 89.2417 135.76 89.7057 134.56 89.7057C133.424 89.7057 132.48 89.3057 131.696 88.5057C130.912 87.6897 130.528 86.7137 130.528 85.5777C130.528 84.4417 130.912 83.4657 131.696 82.6657C132.48 81.8497 133.424 81.4497 134.56 81.4497C135.76 81.4497 136.688 81.9137 137.344 82.8417ZM132.976 87.3697C133.472 87.8497 134.08 88.0897 134.8 88.0897C135.52 88.0897 136.128 87.8497 136.608 87.3697C137.104 86.8897 137.344 86.2977 137.344 85.5777C137.344 84.8577 137.104 84.2657 136.608 83.7857C136.128 83.3057 135.52 83.0657 134.8 83.0657C134.08 83.0657 133.472 83.3057 132.976 83.7857C132.496 84.2657 132.256 84.8577 132.256 85.5777C132.256 86.2977 132.496 86.8897 132.976 87.3697ZM149.214 85.5617L152.206 89.6577H150.206L148.222 86.9217L146.222 89.6577H144.206L147.214 85.5457L144.366 81.6577H146.366L148.206 84.1857L150.046 81.6577H152.062L149.214 85.5617ZM157.527 80.6977H156.343C156.343 79.9457 156.439 79.7697 156.839 79.4497C156.839 79.4497 157.047 79.3217 157.031 79.3377C157.111 79.2897 157.271 79.2097 157.271 78.9857C157.271 78.8577 157.191 78.7777 156.951 78.7777C156.679 78.7777 156.375 78.8897 156.247 79.2897L155.191 78.8417C155.527 78.0577 156.103 77.6737 156.951 77.6737C157.815 77.6737 158.455 78.1377 158.455 78.9697C158.455 79.5937 158.103 79.9617 157.783 80.1377C157.591 80.2337 157.479 80.3137 157.527 80.6977ZM158.759 85.9457V81.6577H159.783C160.375 81.6577 160.471 81.4017 160.471 80.7937V80.5217H161.927V80.7937C161.927 82.0577 161.543 82.6977 160.487 82.8737V89.6577H158.759V88.6337C158.231 89.4497 157.415 89.8657 156.279 89.8657C154.439 89.8657 153.207 88.6177 153.207 86.5697V81.6577H154.935V86.3937C154.935 87.5937 155.623 88.2497 156.727 88.2497C157.943 88.2497 158.759 87.4977 158.759 85.9457ZM168.236 89.6577H166.508V77.9777H168.236V89.6577ZM173.842 78.4577H175.922L174.226 80.6177H172.562L173.842 78.4577ZM173.586 87.4657L175.634 81.6577H177.474L174.402 89.9137C173.634 91.9777 172.338 92.9697 170.498 92.8577V91.2417C171.586 91.3057 172.194 90.7777 172.626 89.6737L172.706 89.5137L169.314 81.6577H171.202L173.586 87.4657Z" fill="#FF414D"/>
<path d="M221.901 75.4487H226.269C227.789 75.4487 229.053 75.9927 230.061 77.0807C231.069 78.1527 231.581 79.4807 231.581 81.0487C231.581 82.6167 231.069 83.9447 230.061 85.0327C229.053 86.1047 227.789 86.6487 226.269 86.6487H221.901V81.8327H220.893V80.5527H221.901V75.4487ZM223.389 85.2407H226.269C227.405 85.2407 228.349 84.8407 229.069 84.0407C229.789 83.2407 230.157 82.2487 230.157 81.0487C230.157 79.8487 229.789 78.8567 229.069 78.0567C228.349 77.2567 227.405 76.8567 226.269 76.8567H223.389V80.5527H226.205V81.8327H223.389V85.2407ZM239.871 80.0247V78.6487H241.263V86.6487H239.871V85.2727C239.183 86.3287 238.175 86.8567 236.847 86.8567C235.727 86.8567 234.767 86.4567 233.983 85.6407C233.199 84.8247 232.799 83.8167 232.799 82.6487C232.799 81.4807 233.199 80.4887 233.983 79.6727C234.767 78.8567 235.727 78.4407 236.847 78.4407C238.175 78.4407 239.183 78.9687 239.871 80.0247ZM237.023 85.5127C237.839 85.5127 238.511 85.2407 239.055 84.6967C239.599 84.1367 239.871 83.4647 239.871 82.6487C239.871 81.8327 239.599 81.1607 239.055 80.6167C238.511 80.0567 237.839 79.7847 237.023 79.7847C236.223 79.7847 235.551 80.0567 235.007 80.6167C234.463 81.1607 234.191 81.8327 234.191 82.6487C234.191 83.4647 234.463 84.1367 235.007 84.6967C235.551 85.2407 236.223 85.5127 237.023 85.5127ZM247.356 78.4407C249.228 78.4407 250.46 79.7047 250.46 81.7367V86.6487H249.068V81.8167C249.068 80.5207 248.316 79.7687 247.084 79.7687C245.692 79.7687 244.764 80.6167 244.764 82.4087V86.6487H243.372V78.6487H244.764V79.8007C245.324 78.8887 246.188 78.4407 247.356 78.4407ZM259.043 80.0247V78.6487H260.419V86.3127C260.419 87.4967 260.019 88.4087 259.219 89.0647C258.419 89.7207 257.459 90.0567 256.339 90.0567C254.547 90.0567 253.203 89.3687 252.547 88.1047L253.763 87.4167C254.195 88.3127 255.075 88.7607 256.371 88.7607C258.035 88.7607 259.043 87.8327 259.043 86.3127V85.1767C258.339 86.2487 257.331 86.7767 256.035 86.7767C254.899 86.7767 253.923 86.3767 253.139 85.5607C252.355 84.7447 251.955 83.7687 251.955 82.6007C251.955 81.4327 252.355 80.4567 253.139 79.6567C253.923 78.8407 254.899 78.4407 256.035 78.4407C257.347 78.4407 258.355 78.9687 259.043 80.0247ZM259.043 82.6007C259.043 81.8007 258.771 81.1287 258.227 80.5847C257.683 80.0407 257.011 79.7687 256.195 79.7687C255.379 79.7687 254.707 80.0407 254.163 80.5847C253.619 81.1287 253.347 81.8007 253.347 82.6007C253.347 83.4167 253.619 84.0887 254.163 84.6327C254.707 85.1767 255.379 85.4487 256.195 85.4487C257.011 85.4487 257.683 85.1767 258.227 84.6327C258.771 84.0887 259.043 83.4167 259.043 82.6007ZM212.731 99.0247V97.6487H214.107V105.313C214.107 106.497 213.707 107.409 212.907 108.065C212.107 108.721 211.147 109.057 210.027 109.057C208.235 109.057 206.891 108.369 206.235 107.105L207.451 106.417C207.883 107.313 208.763 107.761 210.059 107.761C211.723 107.761 212.731 106.833 212.731 105.313V104.177C212.027 105.249 211.019 105.777 209.723 105.777C208.587 105.777 207.611 105.377 206.827 104.561C206.043 103.745 205.643 102.769 205.643 101.601C205.643 100.433 206.043 99.4567 206.827 98.6567C207.611 97.8407 208.587 97.4407 209.723 97.4407C211.035 97.4407 212.043 97.9687 212.731 99.0247ZM212.731 101.601C212.731 100.801 212.459 100.129 211.915 99.5847C211.371 99.0407 210.699 98.7687 209.883 98.7687C209.067 98.7687 208.395 99.0407 207.851 99.5847C207.307 100.129 207.035 100.801 207.035 101.601C207.035 102.417 207.307 103.089 207.851 103.633C208.395 104.177 209.067 104.449 209.883 104.449C210.699 104.449 211.371 104.177 211.915 103.633C212.459 103.089 212.731 102.417 212.731 101.601ZM216.92 96.6567C216.392 96.6567 215.976 96.2407 215.976 95.7287C215.976 95.2167 216.392 94.7847 216.92 94.7847C217.432 94.7847 217.848 95.2167 217.848 95.7287C217.848 96.2407 217.432 96.6567 216.92 96.6567ZM217.608 105.649H216.216V97.6487H217.608V105.649ZM226.356 99.0247V97.6487H227.748V105.649H226.356V104.273C225.668 105.329 224.66 105.857 223.332 105.857C222.212 105.857 221.252 105.457 220.468 104.641C219.684 103.825 219.284 102.817 219.284 101.649C219.284 100.481 219.684 99.4887 220.468 98.6727C221.252 97.8567 222.212 97.4407 223.332 97.4407C224.66 97.4407 225.668 97.9687 226.356 99.0247ZM223.508 104.513C224.324 104.513 224.996 104.241 225.54 103.697C226.084 103.137 226.356 102.465 226.356 101.649C226.356 100.833 226.084 100.161 225.54 99.6167C224.996 99.0567 224.324 98.7847 223.508 98.7847C222.708 98.7847 222.036 99.0567 221.492 99.6167C220.948 100.161 220.676 100.833 220.676 101.649C220.676 102.465 220.948 103.137 221.492 103.697C222.036 104.241 222.708 104.513 223.508 104.513ZM236.609 104.641C235.793 105.457 234.785 105.857 233.617 105.857C232.449 105.857 231.441 105.457 230.625 104.641C229.809 103.825 229.409 102.833 229.409 101.649C229.409 100.465 229.809 99.4727 230.625 98.6567C231.441 97.8407 232.449 97.4407 233.617 97.4407C234.785 97.4407 235.793 97.8407 236.609 98.6567C237.425 99.4727 237.841 100.465 237.841 101.649C237.841 102.833 237.425 103.825 236.609 104.641ZM233.617 104.497C234.417 104.497 235.089 104.225 235.633 103.681C236.177 103.137 236.449 102.465 236.449 101.649C236.449 100.833 236.177 100.161 235.633 99.6167C235.089 99.0727 234.417 98.8007 233.617 98.8007C232.833 98.8007 232.161 99.0727 231.617 99.6167C231.073 100.161 230.801 100.833 230.801 101.649C230.801 102.465 231.073 103.137 231.617 103.681C232.161 104.225 232.833 104.497 233.617 104.497ZM247.466 97.4407C249.338 97.4407 250.57 98.7047 250.57 100.737V105.649H249.178V100.817C249.178 99.5207 248.426 98.7687 247.194 98.7687C245.802 98.7687 244.874 99.6167 244.874 101.409V105.649H243.482V94.4487H244.874V98.8007C245.434 97.8887 246.298 97.4407 247.466 97.4407ZM256.849 94.4487L258.129 96.5607H256.785L255.169 94.4487H256.849ZM259.137 99.0247V97.6487H260.529V105.649H259.137V104.273C258.449 105.329 257.441 105.857 256.113 105.857C254.993 105.857 254.033 105.457 253.249 104.641C252.465 103.825 252.065 102.817 252.065 101.649C252.065 100.481 252.465 99.4887 253.249 98.6727C254.033 97.8567 254.993 97.4407 256.113 97.4407C257.441 97.4407 258.449 97.9687 259.137 99.0247ZM256.289 104.513C257.105 104.513 257.777 104.241 258.321 103.697C258.865 103.137 259.137 102.465 259.137 101.649C259.137 100.833 258.865 100.161 258.321 99.6167C257.777 99.0567 257.105 98.7847 256.289 98.7847C255.489 98.7847 254.817 99.0567 254.273 99.6167C253.729 100.161 253.457 100.833 253.457 101.649C253.457 102.465 253.729 103.137 254.273 103.697C254.817 104.241 255.489 104.513 256.289 104.513ZM266.622 97.4407C268.494 97.4407 269.726 98.7047 269.726 100.737V105.649H268.334V100.817C268.334 99.5207 267.582 98.7687 266.35 98.7687C264.958 98.7687 264.03 99.6167 264.03 101.409V105.649H262.638V97.6487H264.03V98.8007C264.59 97.8887 265.454 97.4407 266.622 97.4407ZM278.309 99.0247V97.6487H279.685V105.313C279.685 106.497 279.285 107.409 278.485 108.065C277.685 108.721 276.725 109.057 275.605 109.057C273.813 109.057 272.469 108.369 271.813 107.105L273.029 106.417C273.461 107.313 274.341 107.761 275.637 107.761C277.301 107.761 278.309 106.833 278.309 105.313V104.177C277.605 105.249 276.597 105.777 275.301 105.777C274.165 105.777 273.189 105.377 272.405 104.561C271.621 103.745 271.221 102.769 271.221 101.601C271.221 100.433 271.621 99.4567 272.405 98.6567C273.189 97.8407 274.165 97.4407 275.301 97.4407C276.613 97.4407 277.621 97.9687 278.309 99.0247ZM278.309 101.601C278.309 100.801 278.037 100.129 277.493 99.5847C276.949 99.0407 276.277 98.7687 275.461 98.7687C274.645 98.7687 273.973 99.0407 273.429 99.5847C272.885 100.129 272.613 100.801 272.613 101.601C272.613 102.417 272.885 103.089 273.429 103.633C273.973 104.177 274.645 104.449 275.461 104.449C276.277 104.449 276.949 104.177 277.493 103.633C278.037 103.089 278.309 102.417 278.309 101.601Z" fill="#3A3A3A"/>
<path d="M335.39 80.2007V75.4487H336.862V86.6487H335.39V81.6087H329.95V86.6487H328.462V75.4487H329.95V80.2007H335.39ZM345.867 85.6407C345.051 86.4567 344.043 86.8567 342.875 86.8567C341.707 86.8567 340.699 86.4567 339.883 85.6407C339.067 84.8247 338.667 83.8327 338.667 82.6487C338.667 81.4647 339.067 80.4727 339.883 79.6567C340.699 78.8407 341.707 78.4407 342.875 78.4407C344.043 78.4407 345.051 78.8407 345.867 79.6567C346.683 80.4727 347.099 81.4647 347.099 82.6487C347.099 83.8327 346.683 84.8247 345.867 85.6407ZM342.875 85.4967C343.675 85.4967 344.347 85.2247 344.891 84.6807C345.435 84.1367 345.707 83.4647 345.707 82.6487C345.707 81.8327 345.435 81.1607 344.891 80.6167C344.347 80.0727 343.675 79.8007 342.875 79.8007C342.091 79.8007 341.419 80.0727 340.875 80.6167C340.331 81.1607 340.059 81.8327 340.059 82.6487C340.059 83.4647 340.331 84.1367 340.875 84.6807C341.419 85.2247 342.091 85.4967 342.875 85.4967ZM353.076 75.4487L354.356 77.5607H353.012L351.396 75.4487H353.076ZM355.364 80.0247V78.6487H356.756V86.6487H355.364V85.2727C354.676 86.3287 353.668 86.8567 352.34 86.8567C351.22 86.8567 350.26 86.4567 349.476 85.6407C348.692 84.8247 348.292 83.8167 348.292 82.6487C348.292 81.4807 348.692 80.4887 349.476 79.6727C350.26 78.8567 351.22 78.4407 352.34 78.4407C353.668 78.4407 354.676 78.9687 355.364 80.0247ZM352.516 85.5127C353.332 85.5127 354.004 85.2407 354.548 84.6967C355.092 84.1367 355.364 83.4647 355.364 82.6487C355.364 81.8327 355.092 81.1607 354.548 80.6167C354.004 80.0567 353.332 79.7847 352.516 79.7847C351.716 79.7847 351.044 80.0567 350.5 80.6167C349.956 81.1607 349.684 81.8327 349.684 82.6487C349.684 83.4647 349.956 84.1367 350.5 84.6967C351.044 85.2407 351.716 85.5127 352.516 85.5127ZM362.849 78.4407C364.721 78.4407 365.953 79.7047 365.953 81.7367V86.6487H364.561V81.8167C364.561 80.5207 363.809 79.7687 362.577 79.7687C361.185 79.7687 360.257 80.6167 360.257 82.4087V86.6487H358.865V78.6487H360.257V79.8007C360.817 78.8887 361.681 78.4407 362.849 78.4407ZM330.826 97.6487V98.9927H328.698V103.329C328.698 104.561 329.402 104.465 330.826 104.401V105.649C328.394 105.969 327.306 105.313 327.306 103.329V98.9927H325.722V97.6487H327.306V95.8247L328.698 95.4087V97.6487H330.826ZM336.505 97.4407C338.377 97.4407 339.609 98.7047 339.609 100.737V105.649H338.217V100.817C338.217 99.5207 337.465 98.7687 336.233 98.7687C334.841 98.7687 333.913 99.6167 333.913 101.409V105.649H332.521V94.4487H333.913V98.8007C334.473 97.8887 335.337 97.4407 336.505 97.4407ZM345.888 94.4487L347.168 96.5607H345.824L344.208 94.4487H345.888ZM348.176 99.0247V97.6487H349.568V105.649H348.176V104.273C347.488 105.329 346.48 105.857 345.152 105.857C344.032 105.857 343.072 105.457 342.288 104.641C341.504 103.825 341.104 102.817 341.104 101.649C341.104 100.481 341.504 99.4887 342.288 98.6727C343.072 97.8567 344.032 97.4407 345.152 97.4407C346.48 97.4407 347.488 97.9687 348.176 99.0247ZM345.328 104.513C346.144 104.513 346.816 104.241 347.36 103.697C347.904 103.137 348.176 102.465 348.176 101.649C348.176 100.833 347.904 100.161 347.36 99.6167C346.816 99.0567 346.144 98.7847 345.328 98.7847C344.528 98.7847 343.856 99.0567 343.312 99.6167C342.768 100.161 342.496 100.833 342.496 101.649C342.496 102.465 342.768 103.137 343.312 103.697C343.856 104.241 344.528 104.513 345.328 104.513ZM355.661 97.4407C357.533 97.4407 358.765 98.7047 358.765 100.737V105.649H357.373V100.817C357.373 99.5207 356.621 98.7687 355.389 98.7687C353.997 98.7687 353.069 99.6167 353.069 101.409V105.649H351.677V97.6487H353.069V98.8007C353.629 97.8887 354.493 97.4407 355.661 97.4407ZM364.692 97.4407C366.564 97.4407 367.796 98.7047 367.796 100.737V105.649H366.404V100.817C366.404 99.5207 365.652 98.7687 364.42 98.7687C363.028 98.7687 362.1 99.6167 362.1 101.409V105.649H360.708V94.4487H362.1V98.8007C362.66 97.8887 363.524 97.4407 364.692 97.4407Z" fill="#3A3A3A"/>
<circle cx="33.8232" cy="36.3242" r="20" fill="#FF414D"/>
<path d="M40.4898 32.1575L31.3232 41.3241L27.1565 37.1575" stroke="white" stroke-width="2" stroke-linecap="round" stroke-linejoin="round"/>
<circle cx="138.313" cy="36.3242" r="20" fill="#FF414D"/>
<path d="M137.38 38.9482C136.628 40.0042 135.556 40.5322 134.196 40.5322C132.836 40.5322 131.764 40.0042 131.012 38.9482C130.26 37.8922 129.876 36.4842 129.876 34.7242C129.876 32.9642 130.26 31.5562 131.012 30.5002C131.764 29.4442 132.836 28.9162 134.196 28.9162C135.556 28.9162 136.628 29.4442 137.38 30.5002C138.132 31.5562 138.516 32.9642 138.516 34.7242C138.516 36.4842 138.132 37.8922 137.38 38.9482ZM131.364 34.7242C131.364 37.4922 132.388 39.0762 134.196 39.0762C136.004 39.0762 137.044 37.4922 137.044 34.7242C137.044 31.9562 136.004 30.3562 134.196 30.3562C132.388 30.3562 131.364 31.9242 131.364 34.7242ZM146.839 40.3242H139.607V39.1082L143.559 35.0762C144.615 34.0202 145.143 33.1082 145.143 32.3562C145.143 31.0922 144.263 30.3562 143.159 30.3562C142.103 30.3562 141.335 30.8522 140.855 31.8602L139.607 31.1242C140.311 29.6682 141.623 28.9162 143.143 28.9162C144.087 28.9162 144.903 29.2202 145.591 29.8442C146.279 30.4682 146.631 31.3002 146.631 32.3402C146.631 33.4762 145.959 34.7082 144.631 36.0362L141.767 38.8842H146.839V40.3242Z" fill="white"/>
<circle cx="242.802" cy="36.3242" r="20" fill="white" stroke="#FF414D" stroke-linecap="round" stroke-linejoin="round" stroke-dasharray="6 4"/>
<path d="M241.893 38.9482C241.141 40.0042 240.069 40.5322 238.709 40.5322C237.349 40.5322 236.277 40.0042 235.525 38.9482C234.773 37.8922 234.389 36.4842 234.389 34.7242C234.389 32.9642 234.773 31.5562 235.525 30.5002C236.277 29.4442 237.349 28.9162 238.709 28.9162C240.069 28.9162 241.141 29.4442 241.893 30.5002C242.645 31.5562 243.029 32.9642 243.029 34.7242C243.029 36.4842 242.645 37.8922 241.893 38.9482ZM235.877 34.7242C235.877 37.4922 236.901 39.0762 238.709 39.0762C240.517 39.0762 241.557 37.4922 241.557 34.7242C241.557 31.9562 240.517 30.3562 238.709 30.3562C236.901 30.3562 235.877 31.9242 235.877 34.7242ZM250.861 30.4362L248.429 33.7162C250.141 34.0362 251.341 35.2362 251.341 37.0122C251.341 38.1002 250.973 38.9642 250.221 39.5882C249.469 40.2122 248.573 40.5322 247.501 40.5322C245.789 40.5322 244.381 39.7322 243.821 38.2602L245.069 37.5242C245.405 38.5642 246.205 39.0762 247.501 39.0762C248.893 39.0762 249.853 38.3082 249.853 37.0122C249.853 35.7162 248.893 34.9322 247.501 34.9322H247.117L246.525 34.0202L249.117 30.5162H244.141V29.1242H250.861V30.4362Z" fill="#FF414D"/>
<circle cx="347.292" cy="36.3242" r="20" fill="white" stroke="#FF414D" stroke-linecap="round" stroke-linejoin="round" stroke-dasharray="6 4"/>
<path d="M345.836 38.9482C345.084 40.0042 344.012 40.5322 342.652 40.5322C341.292 40.5322 340.22 40.0042 339.468 38.9482C338.716 37.8922 338.332 36.4842 338.332 34.7242C338.332 32.9642 338.716 31.5562 339.468 30.5002C340.22 29.4442 341.292 28.9162 342.652 28.9162C344.012 28.9162 345.084 29.4442 345.836 30.5002C346.588 31.5562 346.972 32.9642 346.972 34.7242C346.972 36.4842 346.588 37.8922 345.836 38.9482ZM339.82 34.7242C339.82 37.4922 340.844 39.0762 342.652 39.0762C344.46 39.0762 345.5 37.4922 345.5 34.7242C345.5 31.9562 344.46 30.3562 342.652 30.3562C340.844 30.3562 339.82 31.9242 339.82 34.7242ZM355.274 36.8042H356.634V38.1962H355.274V40.3242H353.786V38.1962H348.074V36.8042L352.09 29.1242H353.69L349.674 36.8042H353.786V33.6362H355.274V36.8042Z" fill="#FF414D"/>
</svg>
