<svg width="106" height="106" viewBox="0 0 106 106" fill="none" xmlns="http://www.w3.org/2000/svg">
<g clip-path="url(#clip0_636_32833)">
<path d="M52.9998 5.88867C43.6821 5.88867 34.5737 8.65169 26.8263 13.8283C19.0789 19.005 13.0405 26.3627 9.47481 34.9711C5.90908 43.5796 4.97613 53.052 6.79392 62.1907C8.61171 71.3294 13.0986 79.7238 19.6872 86.3124C26.2758 92.901 34.6702 97.3879 43.8089 99.2057C52.9475 101.023 62.42 100.091 71.0285 96.5248C79.6369 92.9591 86.9946 86.9207 92.1713 79.1733C97.3479 71.4259 100.111 62.3175 100.111 52.9998C100.111 40.5051 95.1474 28.5222 86.3124 19.6872C77.4773 10.8522 65.4945 5.88867 52.9998 5.88867ZM52.9998 94.222C44.8468 94.222 36.8769 91.8044 30.098 87.2748C23.319 82.7453 18.0354 76.3072 14.9154 68.7749C11.7954 61.2425 10.9791 52.9541 12.5697 44.9577C14.1602 36.9614 18.0863 29.6163 23.8513 23.8513C29.6163 18.0862 36.9614 14.1602 44.9578 12.5696C52.9541 10.9791 61.2425 11.7954 68.7749 14.9154C76.3073 18.0354 82.7453 23.319 87.2748 30.0979C91.8044 36.8769 94.222 44.8468 94.222 52.9998C94.222 63.9326 89.879 74.4176 82.1483 82.1483C74.4177 89.879 63.9326 94.222 52.9998 94.222Z" fill="#4DF791"/>
<path d="M82.444 35.6277C81.8923 35.0793 81.146 34.7715 80.3682 34.7715C79.5903 34.7715 78.844 35.0793 78.2923 35.6277L45.609 68.1638L27.9423 50.4972C27.4035 49.9154 26.6556 49.5715 25.8632 49.5411C25.0708 49.5107 24.2988 49.7964 23.717 50.3352C23.1353 50.874 22.7914 51.6219 22.761 52.4143C22.7306 53.2067 23.0163 53.9787 23.5551 54.5605L45.609 76.5555L82.444 39.8088C82.72 39.5351 82.939 39.2094 83.0885 38.8506C83.238 38.4918 83.315 38.107 83.315 37.7183C83.315 37.3296 83.238 36.9447 83.0885 36.5859C82.939 36.2271 82.72 35.9014 82.444 35.6277Z" fill="white"/>
<g clip-path="url(#clip1_636_32833)">
<path d="M53 3C57.5898 3 62.0169 3.58594 66.2812 4.75781C70.5456 5.92969 74.5169 7.6224 78.1953 9.83594C81.8737 12.0495 85.2428 14.6536 88.3027 17.6484C91.3626 20.6432 93.9831 24.0124 96.1641 27.7559C98.3451 31.4993 100.021 35.487 101.193 39.7188C102.365 43.9505 102.967 48.3776 103 53C103 57.5898 102.414 62.0169 101.242 66.2812C100.07 70.5456 98.3776 74.5169 96.1641 78.1953C93.9505 81.8737 91.3464 85.2428 88.3516 88.3027C85.3568 91.3626 81.9876 93.9831 78.2441 96.1641C74.5006 98.3451 70.513 100.021 66.2812 101.193C62.0495 102.365 57.6224 102.967 53 103C48.4102 103 43.9831 102.414 39.7188 101.242C35.4544 100.07 31.4831 98.3776 27.8047 96.1641C24.1263 93.9505 20.7572 91.3464 17.6973 88.3516C14.6374 85.3568 12.0169 81.9876 9.83594 78.2441C7.65495 74.5006 5.97852 70.513 4.80664 66.2812C3.63477 62.0495 3.03255 57.6224 3 53C3 48.4102 3.58594 43.9831 4.75781 39.7188C5.92969 35.4544 7.6224 31.4831 9.83594 27.8047C12.0495 24.1263 14.6536 20.7572 17.6484 17.6973C20.6432 14.6374 24.0124 12.0169 27.7559 9.83594C31.4993 7.65495 35.487 5.97852 39.7188 4.80664C43.9505 3.63477 48.3776 3.03255 53 3ZM82.4434 36.4473L75.8027 29.8066L43.625 61.9844L30.1973 48.5566L23.5566 55.1973L43.625 75.2656L82.4434 36.4473Z" fill="#01ED89"/>
</g>
</g>
<defs>
<clipPath id="clip0_636_32833">
<rect width="106" height="106" fill="white"/>
</clipPath>
<clipPath id="clip1_636_32833">
<rect width="100" height="100" fill="white" transform="translate(3 3)"/>
</clipPath>
</defs>
</svg>
